<svg width="186" height="186" viewBox="0 0 186 186" fill="none" xmlns="http://www.w3.org/2000/svg">
<mask id="mask0_2_484" style="mask-type:luminance" maskUnits="userSpaceOnUse" x="0" y="0" width="186" height="186">
<path d="M185.897 92.8293C185.897 143.952 144.455 185.393 93.3333 185.393C42.212 185.393 0.769318 143.952 0.769318 92.8293C0.769318 41.708 42.212 0.265327 93.3333 0.265327C144.455 0.265327 185.897 41.708 185.897 92.8293Z" fill="white"/>
</mask>
<g mask="url(#mask0_2_484)">
<path d="M185.897 92.8293C185.897 143.952 144.455 185.393 93.3333 185.393C42.212 185.393 0.769318 143.952 0.769318 92.8293C0.769318 41.708 42.212 0.265327 93.3333 0.265327C144.455 0.265327 185.897 41.708 185.897 92.8293Z" fill="#00225A"/>
<path d="M122.391 88.8027C120.897 89.1227 119.257 88.4027 118.324 87.8827C117.324 94.496 116.337 100.003 115.537 101.883C115.057 102.976 114.351 104.389 113.417 105.989C110.511 110.896 105.417 116.096 98.484 119.416C98.484 119.416 95.7507 120.896 89.1907 120.896C82.6173 120.896 79.5507 118.603 79.5507 118.603C72.924 114.829 68.1507 109.576 65.5774 104.936C64.924 103.763 64.4173 102.723 64.0573 101.883C63.244 99.9893 62.324 94.4293 61.4573 87.776C60.5773 88.296 58.7907 89.1493 57.204 88.8027C54.964 88.3093 49.8573 82.896 50.284 76.776C50.644 71.7493 51.8173 68.536 53.2573 67.496C53.564 67.2693 53.8973 67.136 54.2307 67.1227C54.8307 67.096 55.5107 67.256 56.1774 67.496C57.5774 68.0027 58.8573 68.8427 58.8573 68.8427C58.8573 68.8427 58.9907 68.3227 59.1774 67.4827C59.6707 65.2293 60.5907 60.6027 60.5507 56.7893C60.524 54.8027 60.684 51.9227 61.2973 49.0827C61.764 50.7627 62.8573 52.2693 64.3373 53.2027C66.004 54.2427 68.1107 54.536 70.004 53.9893L70.044 53.936C71.964 55.1227 74.2573 55.7227 76.524 55.5893C77.964 56.456 79.5107 57.1227 81.1373 57.536C78.2707 54.5493 77.0173 50.096 77.8973 46.056C78.2173 44.6293 78.804 43.216 79.7507 42.136C80.004 41.8427 80.284 41.5627 80.604 41.3227C82.0707 40.176 84.2307 39.8293 85.8173 40.8027L85.8707 40.7093C87.604 41.696 89.1907 42.816 89.8707 43.3093H89.884C90.564 42.816 92.164 41.696 93.8973 40.7093L93.9507 40.8027C95.524 39.8293 97.684 40.176 99.1507 41.3227C99.524 41.616 99.8573 41.936 100.137 42.296C101.017 43.3627 101.564 44.696 101.857 46.056C102.737 50.096 101.484 54.5493 98.6307 57.536C100.257 57.1227 101.804 56.456 103.244 55.6027H103.257C105.511 55.7093 107.804 55.1227 109.724 53.936L109.764 53.9893C111.644 54.536 113.751 54.2427 115.417 53.2027C117.084 52.1627 118.271 50.3893 118.591 48.456L118.951 48.376C119.697 51.4293 119.897 54.6293 119.871 56.7893C119.831 60.2293 120.577 64.3493 121.097 66.7627C121.244 67.4693 121.377 68.0427 121.457 68.4027C122.151 68.016 123.257 67.4693 124.297 67.2427C124.657 67.1493 125.017 67.1093 125.351 67.1227C125.737 67.136 126.124 67.3093 126.484 67.6293C127.857 68.7627 128.964 71.9227 129.311 76.776C129.737 82.896 124.617 88.3093 122.391 88.8027Z" fill="#FAF3E7"/>
<path d="M118.159 126.233C118.903 126.768 120.073 127.379 121.545 128.023C119.815 130.489 111.212 153.716 90.012 155.564C67.9427 153.64 59.5106 129.603 58.2986 127.763C59.7786 127.161 60.8826 126.635 61.4346 126.233C64.0013 124.376 65.0227 118.756 65.4067 113.68L65.5573 113.689C65.5573 113.689 73.9533 133.952 87.8853 132.279C104.72 130.255 113.901 106.271 113.901 106.271C113.901 106.271 113.099 122.569 118.159 126.233Z" fill="#FAF3E7"/>
<path d="M113.899 106.264C113.899 106.264 104.725 130.251 87.8853 132.277C73.952 133.957 65.552 113.691 65.552 113.691L65.4053 113.679C65.6987 109.864 65.632 106.331 65.5787 104.931C68.152 109.571 72.9253 114.824 79.552 118.597C79.552 118.597 82.6187 120.891 89.192 120.891C95.752 120.891 98.4853 119.411 98.4853 119.411C105.419 116.091 110.512 110.891 113.419 105.984L113.899 106.264Z" fill="#2C3958"/>
<path d="M89.1893 121.696C82.428 121.696 79.2053 119.343 79.072 119.243C73.092 115.845 67.888 110.752 64.8773 105.324C64.2666 104.227 63.728 103.144 63.3226 102.197C62.5946 100.504 61.772 96.1841 60.8133 89.0081C59.7626 89.4774 58.3733 89.876 57.032 89.584C54.1853 88.956 49.0413 83.0934 49.4853 76.72C49.8493 71.628 51.0226 68.1227 52.788 66.8467C53.224 66.5254 53.7146 66.3414 54.1986 66.3227C54.844 66.296 55.5813 66.4321 56.448 66.7427C57.1506 66.9974 57.8173 67.3254 58.3293 67.6041C58.3506 67.5107 58.3733 67.4134 58.396 67.3094C58.4906 66.8774 58.916 66.6014 59.3493 66.7014C59.7813 66.7974 60.0533 67.224 59.9586 67.656C59.768 68.5107 59.632 69.0414 59.632 69.0414C59.568 69.2907 59.3866 69.4947 59.1466 69.588C58.9053 69.684 58.6346 69.6534 58.4186 69.5121C58.4066 69.5041 57.1946 68.7147 55.9053 68.2481C55.2493 68.0121 54.6906 67.8947 54.2666 67.9227C54.0986 67.928 53.916 68.0041 53.732 68.1387C52.6946 68.8894 51.4587 71.5627 51.0813 76.8334C50.6733 82.6934 55.584 87.6267 57.376 88.0214C58.796 88.3334 60.5467 87.384 61.0493 87.0867C61.28 86.9507 61.5653 86.9387 61.8066 87.056C62.0493 87.1747 62.2146 87.4054 62.2506 87.6721C63.484 97.1361 64.3133 100.452 64.792 101.567C65.1773 102.464 65.6893 103.495 66.276 104.547C69.148 109.727 74.1306 114.596 79.9466 117.907C80.056 117.98 83.012 120.096 89.1893 120.096C95.408 120.096 98.08 118.724 98.1066 118.709C104.189 115.796 109.509 111.017 112.729 105.581C113.767 103.8 114.431 102.412 114.805 101.561C115.473 99.988 116.367 95.472 117.533 87.7627C117.572 87.504 117.736 87.28 117.971 87.164C118.207 87.0494 118.483 87.0547 118.713 87.184C119.481 87.612 120.96 88.2854 122.223 88.02C123.955 87.636 128.912 82.5814 128.513 76.8307C128.148 71.7467 126.963 69.0627 125.975 68.2454C125.801 68.0921 125.569 67.9307 125.323 67.9227C125.077 67.9134 124.779 67.944 124.497 68.0174C123.484 68.2387 122.404 68.7907 121.847 69.1014C121.624 69.2254 121.356 69.2361 121.128 69.1321C120.899 69.0281 120.731 68.8214 120.676 68.5747L120.603 68.2494C120.524 67.9014 120.423 67.4494 120.313 66.924C120.225 66.492 120.503 66.0681 120.936 65.9801C121.361 65.8894 121.793 66.1681 121.881 66.6014C121.925 66.8201 121.969 67.0267 122.012 67.2174C122.656 66.9134 123.399 66.6187 124.127 66.46C124.532 66.3547 124.963 66.3067 125.383 66.3227C125.949 66.3414 126.516 66.5867 127.016 67.0307C128.652 68.3827 129.759 71.8294 130.109 76.7187C130.552 83.0867 125.408 88.952 122.564 89.584C121.307 89.8494 120.016 89.5321 118.951 89.0801C117.829 96.3654 116.976 100.544 116.273 102.196C115.879 103.093 115.187 104.541 114.109 106.392C110.728 112.099 105.16 117.107 98.8293 120.137C98.7453 120.183 95.8773 121.696 89.1893 121.696Z" fill="#2C3958"/>
<path d="M121.551 128.829C121.443 128.829 121.333 128.807 121.228 128.76C119.636 128.06 118.448 127.425 117.693 126.876C113.341 123.737 113.007 112.511 113.051 108.052C109.628 113.061 104.539 117.403 98.8293 120.137C98.7453 120.183 95.8773 121.696 89.1893 121.696C82.428 121.696 79.2053 119.343 79.072 119.243C74.016 116.369 69.5133 112.285 66.424 107.811C66.4213 109.428 66.372 111.52 66.2013 113.744C65.6653 120.788 64.2173 125.207 61.8973 126.879C61.316 127.304 60.204 127.852 58.5986 128.504C58.188 128.669 57.7213 128.472 57.556 128.064C57.3893 127.653 57.5866 127.187 57.996 127.021C59.9426 126.232 60.6866 125.783 60.9573 125.584C62.2826 124.629 63.9853 121.784 64.6053 113.621C64.9173 109.575 64.816 105.973 64.7773 104.967C64.764 104.596 65.0053 104.264 65.3626 104.165C65.7133 104.067 66.0973 104.224 66.2773 104.548C69.148 109.727 74.1307 114.596 79.9467 117.907C80.056 117.98 83.012 120.096 89.1893 120.096C95.408 120.096 98.08 118.724 98.1067 118.709C104.189 115.796 109.509 111.017 112.729 105.581C112.953 105.203 113.441 105.076 113.821 105.299L114.3 105.579C114.559 105.729 114.711 106.009 114.696 106.308C114.48 110.724 114.767 122.793 118.631 125.58C119.296 126.064 120.387 126.641 121.873 127.297C122.277 127.476 122.46 127.948 122.283 128.352C122.151 128.651 121.857 128.829 121.551 128.829Z" fill="#2C3958"/>
<path d="M126.484 67.6294C126.124 67.3094 125.737 67.136 125.351 67.1227C125.017 67.1094 124.657 67.1494 124.297 67.2427C123.257 67.4694 122.151 68.016 121.457 68.4027C121.191 68.5627 120.977 68.6827 120.857 68.7494C120.937 68.0694 121.017 67.4027 121.097 66.7627C120.577 64.3494 119.831 60.2294 119.871 56.7894C119.897 54.6294 119.697 51.4294 118.951 48.376L118.591 48.456C118.271 50.3894 117.084 52.1627 115.417 53.2027C113.751 54.2427 111.644 54.536 109.764 53.9894L109.724 53.936C107.804 55.1227 105.511 55.7094 103.257 55.6027H103.244C101.804 56.456 100.257 57.1227 98.6307 57.536C101.484 54.5494 102.737 50.096 101.857 46.056C101.564 44.696 101.017 43.3627 100.137 42.296C99.8573 41.936 99.524 41.616 99.1506 41.3227C97.684 40.176 95.524 39.8294 93.9506 40.8027L93.8973 40.7094C92.164 41.696 90.564 42.816 89.884 43.3094H89.8707C89.1907 42.816 87.604 41.696 85.8707 40.7094L85.8173 40.8027C84.2306 39.8294 82.0707 40.176 80.604 41.3227C80.284 41.5627 80.004 41.8427 79.7506 42.136C78.804 43.216 78.2173 44.6294 77.8973 46.056C77.0173 50.096 78.2707 54.5494 81.1373 57.536C79.5107 57.1227 77.964 56.456 76.524 55.5894C74.2573 55.7227 71.964 55.1227 70.044 53.936L70.004 53.9894C68.1107 54.536 66.004 54.2427 64.3373 53.2027C62.8573 52.2694 61.764 50.7627 61.2973 49.0827C60.684 51.9227 60.524 54.8027 60.5506 56.7894C60.5906 60.6027 59.6707 65.2294 59.1773 67.4827C58.9907 68.3227 58.8573 68.8427 58.8573 68.8427C58.8573 68.8427 57.5773 68.0027 56.1773 67.496C55.5107 67.256 54.8307 67.096 54.2307 67.1227C53.8973 67.136 53.564 67.2694 53.2573 67.496C53.1907 65.4027 52.7373 51.1227 54.2173 45.376C55.8306 39.1494 63.2973 23.3627 73.9107 21.2694C83.0573 19.456 88.5373 21.256 89.884 21.776C91.244 21.2427 96.7373 19.456 105.844 21.2694C116.457 23.3627 123.924 39.1494 125.537 45.376C127.057 51.2694 126.551 66.136 126.484 67.6294Z" fill="#3B4243"/>
<path d="M96.82 66.16L96.5533 65.7827C97.372 63.08 99.8627 61.2133 102.603 61.324C106.731 61.6 110.849 63.5853 113.129 67.088L112.799 67.4094C110.344 66.0494 107.649 65.2307 104.883 65.4147C104.267 65.4427 103.641 65.6454 103.072 65.8467C101.059 66.4907 99.0546 66.38 96.82 66.16Z" fill="#2C3958"/>
<path d="M65.9493 67.4094L65.628 67.088C67.908 63.576 72.0173 61.6 76.1533 61.324C78.884 61.2133 81.376 63.08 82.1933 65.7827L81.936 66.16C79.7027 66.38 77.6893 66.4907 75.6853 65.8467C75.1146 65.6454 74.48 65.4427 73.8653 65.4147C71.0973 65.24 68.404 66.0494 65.9493 67.4094Z" fill="#2C3958"/>
<path d="M83.9133 89.016C83.9973 89.0067 84.0893 89.0067 84.1813 89.016C85.1093 89.04 86.3053 89.5667 86.9573 89.9014C88.9813 90.7547 90.8293 90.2694 92.7693 89.3C93.1787 89.124 93.6226 89.0574 94.0653 89.04C94.868 89.0067 95.696 89.1414 96.3813 89.1494C97.344 88.9147 97.6613 87.6187 97.9787 86.732C98.472 88.3294 98.012 90.5454 96.0306 90.78C95.152 90.9054 94.3413 90.9387 93.5893 91.348C93.372 91.4654 92.912 91.792 92.4347 92.0427C90.4533 93.1054 87.9187 93.1134 85.9373 92.0427C84.984 91.516 84.6653 91.1734 83.7213 90.98C82.7093 90.8054 81.3293 90.8307 80.6853 89.8094C80.0746 88.8147 80.1413 87.7694 80.392 86.732C80.5346 87.2014 80.6933 87.652 80.8946 88.0534C81.6386 89.6934 82.4253 89.0067 83.9133 89.016Z" fill="#2C3958"/>
<path d="M57.3494 78.6347C56.636 79.3187 56.2133 80.3293 56.2187 81.4373C56.2227 82.5573 56.6893 83.6747 57.3947 84.408C57.568 82.4933 57.552 80.5493 57.3494 78.6347ZM58.04 86.62C57.9347 86.62 57.8293 86.5987 57.7307 86.5573C55.908 85.7933 54.628 83.6907 54.6187 81.444C54.6093 79.496 55.5654 77.7467 57.1 76.8227C56.9907 76.1787 56.86 75.5414 56.708 74.912C56.528 74.1694 56.308 73.3987 55.924 72.8134C55.5947 72.312 55.1387 71.98 54.7667 72.012C54.4534 72.0254 54.08 72.38 54.0694 72.8187C54.0574 73.2613 53.6814 73.6067 53.248 73.5973C52.8067 73.5867 52.4587 73.2187 52.4694 72.7774C52.5027 71.524 53.5027 70.464 54.7 70.4134C55.6547 70.3894 56.6093 70.9427 57.2613 71.936C57.78 72.7253 58.0493 73.652 58.2627 74.536C58.4693 75.388 58.6374 76.2547 58.7694 77.1293C58.7707 77.1427 58.7734 77.1547 58.7747 77.168C59.2054 80.0573 59.228 83.04 58.832 85.928C58.7987 86.1747 58.652 86.392 58.436 86.5147C58.3134 86.584 58.1774 86.62 58.04 86.62Z" fill="#2C3958"/>
<path d="M122.495 78.4174C122.292 80.332 122.276 82.276 122.449 84.1907C123.153 83.4574 123.621 82.34 123.627 81.22C123.631 80.112 123.208 79.1014 122.495 78.4174ZM121.804 86.4014C121.667 86.4014 121.529 86.3667 121.407 86.296C121.192 86.1734 121.045 85.956 121.012 85.7107C120.617 82.8254 120.639 79.844 121.069 76.9574C121.071 76.94 121.072 76.9227 121.075 76.9054C121.207 76.0334 121.376 75.1694 121.581 74.3187C121.793 73.4347 122.064 72.508 122.583 71.7187C123.233 70.7254 124.201 70.1734 125.144 70.196C126.34 70.2454 127.341 71.3054 127.375 72.56C127.387 73.0014 127.039 73.3694 126.597 73.38C126.589 73.3814 126.581 73.3814 126.575 73.3814C126.143 73.3814 125.788 73.036 125.776 72.6027C125.764 72.1627 125.391 71.808 125.077 71.7947C124.681 71.7694 124.249 72.092 123.92 72.596C123.535 73.1827 123.316 73.9507 123.136 74.6947C122.984 75.324 122.853 75.9614 122.744 76.6054C124.279 77.5294 125.236 79.2787 125.225 81.228C125.215 83.4747 123.935 85.576 122.113 86.34C122.015 86.3814 121.909 86.4014 121.804 86.4014Z" fill="#2C3958"/>
<path d="M118.327 88.6774C118.311 88.6774 118.295 88.6774 118.28 88.676C117.839 88.6507 117.501 88.2734 117.527 87.832L118.219 75.8827C118.244 75.4427 118.625 75.112 119.063 75.1307C119.504 75.156 119.841 75.5347 119.815 75.976L119.124 87.924C119.099 88.3493 118.747 88.6774 118.327 88.6774Z" fill="#2C3958"/>
<path d="M61.4573 88.5707C61.0413 88.5707 60.6906 88.2493 60.66 87.828L59.84 76.412C59.8093 75.972 60.14 75.5893 60.5813 75.5573C61.028 75.5227 61.4053 75.8573 61.436 76.2973L62.256 87.7134C62.288 88.1547 61.956 88.5373 61.516 88.5693C61.496 88.5707 61.476 88.5707 61.4573 88.5707Z" fill="#2C3958"/>
<path d="M81.6533 72.9067C80.0147 72.4547 78.408 72.0787 76.8027 71.9027C77.2627 72.4134 77.5387 73.0987 77.5387 73.8347C77.5387 75.4494 76.2347 76.7534 74.62 76.7534C73.0067 76.7534 71.7013 75.4494 71.7013 73.8347C71.7013 73.1494 71.936 72.5134 72.3373 72.02C72.204 72.0454 72.0693 72.0707 71.936 72.0947C71.4507 72.2547 70.9067 72.2707 70.456 72.5467C69.7613 72.9987 69.2014 74.328 70.18 75.524C68.2894 75.156 67.8467 72.6227 69.0253 71.192C72.5213 67.9307 79.0107 69.0934 81.6533 72.9067Z" fill="#2C3958"/>
<path d="M98.1986 99.2734C98.1986 99.2734 96.7187 100.788 89.076 100.788C81.432 100.788 79.952 99.2734 79.952 99.2734C79.952 99.2734 81.808 98.7894 83.6906 97.7267C85.572 96.656 86.5253 97.3174 89.076 97.3174C91.6267 97.3174 92.58 96.656 94.4613 97.7267C96.3426 98.7894 98.1986 99.2734 98.1986 99.2734Z" fill="#2C3958"/>
<path d="M82.5107 103.12C84.8187 103.983 87.136 104.083 89.552 104.116C91.96 104.091 94.2773 103.991 96.5853 103.12C93.592 106.708 85.504 106.716 82.5107 103.12Z" fill="#2C3958"/>
<path d="M110.38 71.192C111.559 72.6227 111.124 75.156 109.225 75.524C110.204 74.328 109.644 72.9987 108.949 72.5467C108.356 72.2707 107.72 72.12 107.068 72.02C107.469 72.5134 107.704 73.1494 107.704 73.8347C107.704 75.4494 106.399 76.7534 104.785 76.7534C103.18 76.7534 101.867 75.4494 101.867 73.8347C101.867 73.0987 102.143 72.4134 102.603 71.9027C100.997 72.0787 99.408 72.4547 97.752 72.9067C100.395 69.0934 106.893 67.9307 110.38 71.192Z" fill="#2C3958"/>
<path d="M181.644 185.376H-1.63602C-1.62268 177.589 1.32399 164.243 4.61732 154.469C6.59065 148.656 8.68399 144.109 10.3507 142.736C10.5907 142.536 10.8573 142.349 11.164 142.163C14.3773 140.096 21.1107 138.016 26.124 136.643C29.6573 135.683 32.324 135.069 32.324 135.069C32.324 135.069 35.524 133.429 39.124 131.803C41.7506 130.616 44.604 129.443 46.6173 128.909C48.6973 128.349 51.164 128.016 53.2707 127.816L58.2986 127.763C58.2986 127.763 63.18 142.837 90.012 155.564C90.012 155.564 104.252 150.996 121.545 128.023C123.945 128.169 130.484 128.136 133.377 128.909C135.831 129.563 139.551 131.189 142.577 132.589C145.431 133.923 147.671 135.069 147.671 135.069C147.671 135.069 151.391 135.923 155.831 137.189C160.817 138.629 166.724 140.589 169.324 142.496C169.444 142.576 169.551 142.656 169.644 142.736C171.444 144.216 173.724 149.389 175.817 155.856C178.937 165.469 181.617 177.949 181.644 185.376Z" fill="#FF5E13"/>
<path d="M41.292 159.46C41.04 159.46 40.7933 159.341 40.636 159.12L27.9053 141.049C27.652 140.688 27.7387 140.188 28.1 139.933C28.46 139.68 28.96 139.765 29.2147 140.127L41.9453 158.199C42.1987 158.56 42.112 159.06 41.752 159.313C41.612 159.412 41.4507 159.46 41.292 159.46Z" fill="#2C3958"/>
<path d="M41.9053 152.153C41.5413 152.153 41.2106 151.903 41.1266 151.532L38.1747 138.556C38.076 138.124 38.3467 137.696 38.776 137.597C39.2093 137.501 39.636 137.769 39.7347 138.2L42.6866 151.176C42.7853 151.607 42.5146 152.036 42.084 152.133C42.024 152.147 41.964 152.153 41.9053 152.153Z" fill="#2C3958"/>
<path d="M146.724 159.573C146.707 159.573 146.689 159.573 146.675 159.572C146.233 159.545 145.897 159.167 145.924 158.725L147.052 140.193C147.079 139.752 147.501 139.42 147.899 139.443C148.34 139.471 148.676 139.849 148.648 140.291L147.52 158.821C147.495 159.247 147.143 159.573 146.724 159.573Z" fill="#2C3958"/>
<path d="M61.0373 49.464C60.7026 49.464 60.392 49.2533 60.2786 48.9186C58.228 42.8133 60.2746 35.6987 65.256 31.616C65.6 31.3373 66.1026 31.3867 66.3826 31.728C66.6626 32.0693 66.612 32.5733 66.2706 32.8546C61.8626 36.4653 59.9813 43.008 61.796 48.4093C61.936 48.828 61.7106 49.2813 61.292 49.4226C61.208 49.4506 61.1226 49.464 61.0373 49.464Z" fill="#2C3958"/>
<path d="M118.689 48.0081C118.677 48.0081 118.664 48.0081 118.651 48.0081C118.209 47.9854 117.869 47.6107 117.891 47.1694C118.16 41.6547 115.671 36.0574 111.395 32.564C111.052 32.284 111.003 31.7801 111.281 31.4374C111.561 31.0947 112.067 31.0454 112.407 31.3254C117.069 35.1334 119.783 41.2347 119.489 47.2481C119.468 47.6747 119.115 48.0081 118.689 48.0081Z" fill="#2C3958"/>
<path d="M88.2053 38.8227C88.0867 38.8227 87.968 38.7974 87.8547 38.7427L84.4267 37.0747C84.028 36.8827 83.8627 36.404 84.056 36.0067C84.2507 35.608 84.736 35.4467 85.1253 35.636L88.556 37.304C88.9533 37.4974 89.1187 37.976 88.9253 38.372C88.7867 38.6574 88.5013 38.8227 88.2053 38.8227Z" fill="#2C3958"/>
<path d="M89.012 35.7534C88.9307 35.7534 88.8493 35.7414 88.7667 35.7147C87.448 35.2907 86.1827 34.6027 85.112 33.724C84.7707 33.4427 84.7213 32.9387 85.0013 32.5974C85.28 32.2547 85.784 32.2054 86.128 32.4867C87.044 33.2387 88.1267 33.8294 89.256 34.192C89.6773 34.3267 89.908 34.7774 89.7733 35.1987C89.664 35.5374 89.3493 35.7534 89.012 35.7534Z" fill="#2C3958"/>
<path d="M88.8387 31.344C88.7107 31.344 88.58 31.3133 88.46 31.248L85.5067 29.6493C85.1173 29.44 84.972 28.9533 85.1827 28.5653C85.3934 28.1773 85.8733 28.032 86.2667 28.2427L89.22 29.84C89.6093 30.0507 89.7533 30.536 89.5427 30.9253C89.3987 31.192 89.124 31.344 88.8387 31.344Z" fill="#2C3958"/>
<path d="M91.6386 30.972C91.42 30.972 91.2013 30.8814 91.044 30.7054C90.748 30.3774 90.776 29.8707 91.104 29.576L93.1546 27.7347C93.4839 27.4387 93.9893 27.4667 94.2853 27.796C94.5799 28.124 94.5533 28.6307 94.2253 28.9254L92.1746 30.7667C92.02 30.904 91.8293 30.972 91.6386 30.972Z" fill="#2C3958"/>
<path d="M91.8186 35.412C91.572 35.412 91.328 35.2987 91.172 35.084C90.9107 34.728 90.9893 34.2267 91.3467 33.9667L93.7533 32.2054C94.1106 31.9454 94.612 32.0227 94.872 32.38C95.132 32.736 95.056 33.236 94.6987 33.4974L92.2893 35.2587C92.1466 35.3627 91.9813 35.412 91.8186 35.412Z" fill="#2C3958"/>
<path d="M91.2507 39.1013C90.9813 39.1013 90.72 38.9653 90.5693 38.72C90.3373 38.344 90.4547 37.8506 90.8307 37.62L93.4147 36.0293C93.7907 35.796 94.284 35.9146 94.516 36.2893C94.7467 36.6666 94.6293 37.1586 94.2533 37.3906L91.6693 38.9813C91.5387 39.0627 91.3933 39.1013 91.2507 39.1013Z" fill="#2C3958"/>
<path d="M103.176 56.2321C103.019 56.2321 102.86 56.1854 102.723 56.0907C102.359 55.8387 102.268 55.3414 102.519 54.9774C104.851 51.6001 105.393 46.9494 103.897 43.1281C103.736 42.7174 103.939 42.2534 104.349 42.092C104.76 41.9307 105.225 42.1334 105.387 42.5454C107.097 46.9134 106.503 52.0267 103.835 55.8867C103.68 56.112 103.429 56.2321 103.176 56.2321Z" fill="#2C3958"/>
<path d="M76.52 56.1934C76.268 56.1934 76.02 56.0747 75.8653 55.8534C73.18 52.0347 72.5586 46.7614 74.284 42.4227C74.448 42.012 74.9093 41.8107 75.3226 41.9747C75.7333 42.1387 75.9333 42.6027 75.7707 43.0134C74.2387 46.8654 74.7907 51.5427 77.1733 54.9334C77.428 55.2947 77.3413 55.7934 76.98 56.048C76.84 56.1467 76.6786 56.1934 76.52 56.1934Z" fill="#2C3958"/>
<path d="M69.9693 54.5667C69.7387 54.5667 69.5106 54.468 69.352 54.276C66.5413 50.8667 65.7013 45.9786 67.212 41.8253C67.3627 41.4093 67.8227 41.1973 68.2373 41.3467C68.6533 41.4987 68.8667 41.9573 68.716 42.372C67.3947 46.004 68.1293 50.2773 70.5866 53.2586C70.868 53.5986 70.8187 54.104 70.4773 54.384C70.3293 54.508 70.1493 54.5667 69.9693 54.5667Z" fill="#2C3958"/>
<path d="M109.48 54.256C109.335 54.256 109.185 54.216 109.053 54.132C108.681 53.896 108.569 53.4013 108.805 53.028C110.809 49.8627 111.333 45.84 110.208 42.2667C110.075 41.8453 110.309 41.396 110.731 41.2627C111.156 41.1267 111.601 41.364 111.735 41.7866C113 45.8026 112.409 50.3253 110.157 53.884C110.005 54.124 109.745 54.256 109.48 54.256Z" fill="#2C3958"/>
<path d="M113.005 77.688C111.899 80.568 107.512 80.4747 100.939 80.008C95.3387 79.608 94.0453 71.9013 94.032 71.8213C93.9253 71.088 94.0587 70.5414 94.472 70.0747C95.2587 69.168 97.512 68.0747 103.819 68.0747C108.312 68.0747 110.792 68.7414 112.139 69.408C113.499 70.088 113.725 70.7547 113.725 70.7547C113.725 70.768 113.845 71.5547 113.845 72.7014C113.845 74.0614 113.685 75.9413 113.005 77.688ZM83.992 71.8213C83.9787 71.9013 82.6853 79.608 77.0853 80.008C70.512 80.4747 66.1253 80.5547 65.0053 77.688C63.7653 74.4747 64.2853 70.808 64.2853 70.808C64.2853 70.7814 65.1653 68.0747 74.2053 68.0747C80.4987 68.0747 82.7653 69.168 83.552 70.0747C83.9653 70.5414 84.0987 71.088 83.992 71.8213ZM117.219 70.8213L117.885 70.7814V67.6213L117.392 67.488C117.325 67.4613 116.605 67.2747 115.112 66.968C113.619 66.6614 111.325 66.2347 108.152 65.7414C102.472 64.8614 97.232 66.1014 94.4187 66.768C94.0187 66.8614 93.6587 66.9414 93.3787 67.008C91.4853 67.408 89.5387 67.608 89.0187 67.648C88.4187 67.5947 86.4987 67.408 84.6453 67.008C84.3653 66.9414 84.0053 66.8614 83.6053 66.768C80.792 66.1014 75.5653 64.848 69.872 65.7414C63.512 66.7147 60.7387 67.448 60.632 67.488L60.1387 67.6213V70.7814L60.9253 70.8213L60.4587 71.288C60.472 71.3013 60.5787 71.408 60.8587 71.9014C60.9253 72.0614 60.9787 72.688 61.032 73.1814C61.272 75.8747 61.7653 81.4747 67.6053 82.208C69.592 82.448 71.4587 82.568 73.1653 82.568C77.952 82.568 81.4987 81.6214 83.0853 79.8347C83.832 78.9814 84.3787 77.848 84.9253 76.7547C85.9253 74.6747 86.8853 72.728 89.0053 72.6347C91.1387 72.728 92.0987 74.688 93.0987 76.7547C93.632 77.848 94.192 78.9814 94.9387 79.8347C97.072 82.2614 102.859 83.1414 110.419 82.208C116.245 81.4747 116.752 75.8747 116.992 73.1947C117.032 72.688 117.099 72.0614 117.165 71.9147C117.379 71.5414 117.485 71.3814 117.539 71.3147C117.459 71.3814 117.232 71.4747 116.979 71.3814L117.205 70.8213H117.219Z" fill="#2C3958"/>
</g>
</svg>
