<svg width="187" height="186" viewBox="0 0 187 186" fill="none" xmlns="http://www.w3.org/2000/svg">
<mask id="mask0_2_525" style="mask-type:luminance" maskUnits="userSpaceOnUse" x="0" y="0" width="187" height="186">
<path d="M186.059 92.8293C186.059 143.952 144.616 185.393 93.4934 185.393C42.372 185.393 0.929321 143.952 0.929321 92.8293C0.929321 41.708 42.372 0.265327 93.4934 0.265327C144.616 0.265327 186.059 41.708 186.059 92.8293Z" fill="white"/>
</mask>
<g mask="url(#mask0_2_525)">
<path d="M186.059 92.8293C186.059 143.952 144.616 185.393 93.4934 185.393C42.372 185.393 0.929321 143.952 0.929321 92.8293C0.929321 41.708 42.372 0.265327 93.4934 0.265327C144.616 0.265327 186.059 41.708 186.059 92.8293Z" fill="#FF5E13"/>
<path d="M119.031 64.1574C119.004 64.5707 118.964 65.0241 118.924 65.5174C118.751 67.7707 118.471 70.7974 118.097 74.1841C118.044 74.6374 117.991 75.1041 117.937 75.5708C117.924 75.7041 117.911 75.8241 117.897 75.9441C117.777 77.0241 117.631 78.1174 117.484 79.2241C117.351 80.1441 117.217 81.0907 117.084 82.0241C117.057 82.2107 117.031 82.3974 117.004 82.5841C116.991 82.6774 116.977 82.7574 116.964 82.8507C116.684 84.7441 116.351 86.6507 116.004 88.4907C115.191 92.7441 113.351 96.9041 110.791 100.504C109.844 101.824 108.817 103.064 107.711 104.211C107.631 104.291 107.564 104.357 107.484 104.437C106.671 105.264 105.817 106.037 104.924 106.744C104.631 106.984 104.324 107.224 104.017 107.451C103.004 108.211 101.924 108.891 100.817 109.491C100.457 109.691 100.097 109.877 99.724 110.051C96.7907 111.451 93.644 112.251 90.3906 112.251C84.1773 112.251 78.3107 109.331 73.724 104.851C72.004 103.184 70.4707 101.291 69.1773 99.2507C68.6707 85.7441 67.364 72.1574 69.1373 58.7574C69.364 57.0907 69.6306 55.4374 70.0173 53.7974C70.5506 51.4374 71.3107 49.1441 72.444 47.0108C74.364 43.4108 77.484 40.2907 81.404 39.1174C83.044 38.6241 84.8173 38.5307 86.4973 38.8507C87.0707 38.9441 87.6307 39.0907 88.164 39.2907C91.044 40.2907 94.204 40.3974 97.164 39.6774C97.404 39.6241 97.644 39.5707 97.8706 39.5307C98.124 39.4774 98.3907 39.4507 98.644 39.4241C98.8573 39.3841 99.0706 39.3707 99.284 39.3574C100.951 39.2507 102.644 39.4907 104.204 40.0907C104.897 40.3441 105.564 40.6774 106.191 41.0907C106.951 41.5841 107.644 42.1574 108.271 42.7841C110.897 45.4374 112.417 49.1708 113.671 52.7708C114.937 56.4374 115.417 61.4774 119.031 64.1574Z" fill="#FAF3E7"/>
<path d="M72.7093 59.9321C70.5347 60.1081 68.428 60.6761 66.5293 61.8801L66.22 61.5881C68.344 58.6614 71.9986 57.0215 75.5613 56.6788C77.384 56.5121 79.3666 56.2695 81.064 57.0721C81.9173 57.4228 82.6866 57.9668 83.4213 58.5188C84.108 59.1548 84.752 59.8561 85.236 60.7521L85.044 61.1201C82.4693 61.4534 80.136 61.3121 77.744 60.6014C76.1467 59.9481 74.4147 59.8654 72.7093 59.9321Z" fill="#2C3958"/>
<path d="M137.671 133.184C134.857 132.037 132.204 130.944 130.404 130.211C129.004 129.637 128.124 129.277 128.124 129.277C128.124 129.277 125.111 128.237 121.511 126.624C120.004 125.944 112.711 122.051 111.191 121.224C111.004 120.957 110.057 118.997 109.924 118.744C107.977 115.024 107.711 108.171 107.711 104.664L107.484 104.437C107.564 104.357 107.631 104.291 107.711 104.211C108.817 103.064 109.844 101.824 110.791 100.504C113.351 96.904 115.191 92.744 116.004 88.4907C116.351 86.6507 116.684 84.744 116.964 82.8507L117.364 82.9173C117.364 82.9173 118.124 82.9307 119.177 82.6907C120.217 82.4507 121.537 81.984 122.724 81.0107C123.697 80.2374 124.577 79.1307 125.151 77.5707V77.5573C125.164 77.544 125.164 77.5307 125.164 77.5173C126.364 74.184 126.391 69.8774 125.817 66.9307C125.777 66.744 125.737 66.5573 125.697 66.384C125.391 65.144 124.991 64.224 124.511 63.8107C124.364 63.6907 124.204 63.6107 124.044 63.5974C122.604 63.4507 120.751 64.3307 119.937 64.7573C119.617 64.584 119.311 64.384 119.031 64.1573C115.417 61.4773 114.937 56.4374 113.671 52.7707C112.417 49.1707 110.897 45.4373 108.271 42.784C107.644 42.1573 106.951 41.584 106.191 41.0907C105.564 40.6773 104.897 40.344 104.204 40.0907C102.644 39.4907 100.951 39.2507 99.284 39.3573C99.0706 39.3707 98.8573 39.384 98.644 39.424C98.3907 39.4507 98.124 39.4774 97.8706 39.5307C97.644 39.5707 97.404 39.624 97.164 39.6774C94.204 40.3974 91.044 40.2907 88.164 39.2907C87.6307 39.0907 87.0707 38.944 86.4973 38.8507C84.8173 38.5307 83.044 38.624 81.404 39.1173C77.484 40.2907 74.364 43.4107 72.444 47.0107C71.3107 49.144 70.5506 51.4374 70.0173 53.7974C69.6306 55.4374 69.364 57.0907 69.1373 58.7573C67.364 72.1573 68.6707 85.744 69.1773 99.2507C69.1907 99.7573 69.2173 100.264 69.2307 100.771C69.444 107.771 69.3907 114.891 68.5373 121.851C67.6973 128.771 66.084 135.531 63.1906 141.864H63.1773C63.9773 136.291 63.884 130.571 62.8707 125.024C57.7107 127.237 49.484 130.771 45.284 132.531C41.9373 124.411 39.3373 114.784 41.164 106.011C43.5773 94.464 48.644 83.624 51.5107 72.1707C53.3907 64.584 54.3107 56.7707 56.3107 49.224C58.3107 41.664 64.2307 34.1707 69.9373 28.8374C75.644 23.4907 84.204 20.704 91.5373 23.3974H91.6973C99.0307 20.704 107.591 23.4907 113.297 28.8374C119.004 34.1707 123.591 41.664 125.591 49.224C127.031 54.6507 127.911 60.2107 128.991 65.7307C129.044 65.9974 129.097 66.2507 129.151 66.5173C129.524 68.4107 129.937 70.2907 130.404 72.1707C133.257 83.624 138.324 94.464 140.737 106.011C142.631 115.011 141.311 124.931 137.671 133.184Z" fill="#101111"/>
<path d="M138.137 133.371C137.751 133.731 137.484 134.224 137.404 134.784C136.311 142.637 130.884 164.211 104.444 169.864C100.391 170.731 95.8306 171.224 90.7106 171.237H90.5373C84.9373 171.224 80.004 170.637 75.6573 169.597C50.2173 163.584 44.9373 142.531 43.844 134.784C43.844 134.784 43.844 134.757 43.8306 134.717C43.8173 134.624 43.7906 134.531 43.764 134.451C43.764 134.437 43.764 134.424 43.7506 134.397C43.6306 134.024 43.4306 133.677 43.164 133.411C43.244 133.384 43.324 133.344 43.4173 133.304C43.8706 133.117 44.5106 132.851 45.284 132.531C49.484 130.771 57.7106 127.237 62.8706 125.024C63.884 130.571 63.9773 136.291 63.1773 141.864H63.1906C66.084 135.531 67.6973 128.771 68.5373 121.851C69.8973 120.837 70.964 119.784 71.5106 118.744C72.2573 117.304 72.764 115.411 73.084 113.411C73.084 113.411 77.7373 122.024 90.6173 118.651C103.511 115.291 107.711 104.664 107.711 104.664C107.711 108.171 107.977 115.024 109.924 118.744C110.057 118.997 111.004 120.957 111.191 121.224C112.711 122.051 120.004 125.944 121.511 126.624C125.111 128.237 128.124 129.277 128.124 129.277C128.124 129.277 129.004 129.637 130.404 130.211C132.071 130.891 134.484 131.877 137.071 132.931C137.271 133.024 137.471 133.104 137.671 133.184C137.817 133.237 137.977 133.304 138.137 133.371Z" fill="#FAF3E7"/>
<path d="M125.164 77.5173C125.164 77.5307 125.164 77.544 125.151 77.5574V77.5707C124.577 79.1307 123.697 80.2374 122.724 81.0107C121.537 81.984 120.217 82.4507 119.177 82.6907C118.124 82.9307 117.364 82.9173 117.364 82.9173L116.964 82.8507C116.977 82.7573 116.991 82.6773 117.004 82.584C117.031 82.3973 117.057 82.2107 117.084 82.024C117.217 81.0907 117.351 80.144 117.484 79.224C117.631 78.1174 117.777 77.024 117.897 75.944C117.911 75.824 117.924 75.704 117.937 75.5707C117.991 75.104 118.044 74.6373 118.097 74.184C118.471 70.7973 118.751 67.7707 118.924 65.5173C118.964 65.024 119.004 64.5707 119.031 64.1574C119.311 64.384 119.617 64.584 119.937 64.7574C120.751 64.3307 122.604 63.4507 124.044 63.5974C124.204 63.6107 124.364 63.6907 124.511 63.8107C125.057 64.2774 125.511 65.424 125.817 66.9307C126.391 69.8774 126.364 74.184 125.164 77.5173Z" fill="#FAF3E7"/>
<path d="M107.711 104.211V104.664C107.711 104.664 103.511 115.291 90.6173 118.651C77.7373 122.024 73.084 113.411 73.084 113.411C73.604 110.317 73.7107 107.011 73.724 104.851C78.3107 109.331 84.1773 112.251 90.3907 112.251C93.644 112.251 96.7907 111.451 99.724 110.051C100.097 109.877 100.457 109.691 100.817 109.491C101.924 108.891 103.004 108.211 104.017 107.451C104.324 107.224 104.631 106.984 104.924 106.744C105.817 106.037 106.671 105.264 107.484 104.437C107.564 104.357 107.631 104.291 107.711 104.211Z" fill="#2C3958"/>
<path d="M83.112 83.3081C84.0906 83.2254 84.6013 82.4974 85.68 82.6387C85.8226 82.6641 85.9559 82.6974 86.0639 82.7481C86.3239 82.8321 86.4906 82.9494 86.616 83.0067C88.2973 83.8521 90.5133 83.6761 92.336 83.4761C92.98 83.4174 93.5826 83.0161 94.2013 82.7814C94.6786 82.6054 95.1626 82.5307 95.6893 82.7734C96.7853 83.2747 98.2906 84.0027 98.4666 82.188C99.4279 84.0027 97.4039 84.872 95.8399 84.6214C95.7479 84.6294 95.0293 84.4454 95.0373 84.5707C93.2733 86.3361 89.8613 86.4027 87.436 85.784C86.968 85.6414 86.4826 85.4574 86.04 85.1814C85.6213 84.9134 85.1359 84.5214 85.2866 84.5707C85.3039 84.5547 85.2786 84.512 85.1106 84.5294C84.4426 84.6467 83.656 84.7294 83.012 84.5374C81.8413 84.3281 81.2559 83.1907 81.8666 82.188C81.9666 82.9574 82.3093 83.5254 83.112 83.3081Z" fill="#2C3958"/>
<path d="M80.7453 91.7561C80.0186 91.5214 79.7839 91.3374 79.7839 91.3374C79.7839 91.3374 81.9 90.9027 84.0493 89.9654C86.2066 89.0214 87.2853 88.8121 90.204 88.8121C93.1226 88.8121 94.2093 89.0214 96.3586 89.9654C98.5079 90.9027 100.632 91.3374 100.632 91.3374C100.632 91.3374 100.448 91.4881 99.88 91.6801C98.7333 92.0814 96.0413 92.6761 90.204 92.6761C84.6933 92.6761 81.992 92.1401 80.7453 91.7561Z" fill="#AAA5EB"/>
<path d="M72.5 66.5721C72.5 65.9027 72.7266 65.2761 73.1186 64.7827C72.0653 64.9667 71.012 65.2761 69.9493 65.7361C70.0666 66.6387 70.3506 67.5334 70.9786 68.2694C69.5226 67.8761 68.604 66.3961 68.2013 65.0001C71.8986 60.9267 79.2239 61.0947 82.4519 65.6441C80.7799 65.1334 79.1653 64.7734 77.5853 64.6147C78.0533 65.1254 78.3373 65.8187 78.3373 66.5721C78.3373 68.1854 77.0239 69.4907 75.4186 69.4907C73.8053 69.4907 72.5 68.1854 72.5 66.5721Z" fill="#2C3958"/>
<path d="M90.204 99.2481C92.5706 99.2228 94.8533 99.0894 97.0946 98.1361C94.252 101.883 86.1653 101.899 83.3213 98.1361C85.5626 99.0814 87.8373 99.2228 90.204 99.2481Z" fill="#2C3958"/>
<path d="M82.52 92.9748C83.632 94.0801 85.864 95.3788 90.204 95.3788C94.508 95.3788 96.8093 94.0761 97.9907 92.9614C96.3253 93.2481 93.8533 93.4761 90.204 93.4761C86.6267 93.4761 84.18 93.2521 82.52 92.9748ZM90.204 96.9801C81.9907 96.9801 80.1733 92.5307 79.992 92.0241C79.8906 91.7387 79.96 91.4201 80.168 91.2028C80.3773 90.9828 80.696 90.9014 80.9813 90.9907C82.052 91.3214 84.672 91.8748 90.204 91.8748C96.0333 91.8748 98.6027 91.2801 99.616 90.9241C99.904 90.8241 100.228 90.8974 100.447 91.1148C100.664 91.3321 100.737 91.6548 100.635 91.9454C100.563 92.1508 98.768 96.9801 90.204 96.9801Z" fill="#2C3958"/>
<path d="M109.319 66.5721C109.319 65.9027 109.093 65.2761 108.7 64.7827C109.753 64.9667 110.807 65.2761 111.869 65.7361C111.752 66.6387 111.468 67.5334 110.84 68.2694C112.296 67.8761 113.216 66.3961 113.617 65.0001C109.92 60.9267 102.595 61.0947 99.3666 65.6441C101.04 65.1334 102.653 64.7734 104.235 64.6147C103.765 65.1254 103.481 65.8187 103.481 66.5721C103.481 68.1854 104.795 69.4907 106.4 69.4907C108.015 69.4907 109.319 68.1854 109.319 66.5721Z" fill="#2C3958"/>
<path d="M109.109 59.9321C111.284 60.1081 113.391 60.6761 115.289 61.8801L115.599 61.5881C113.475 58.6614 109.82 57.0215 106.257 56.6788C104.435 56.5121 102.453 56.2695 100.755 57.0721C99.9026 57.4228 99.1333 57.9668 98.3973 58.5188C97.7106 59.1548 97.068 59.8561 96.5826 60.7521L96.7746 61.1201C99.3506 61.4534 101.684 61.3121 104.076 60.6014C105.672 59.9481 107.404 59.8654 109.109 59.9321Z" fill="#2C3958"/>
<path d="M73.724 104.851C73.7107 107.011 73.604 110.317 73.084 113.411C72.764 115.411 72.2574 117.304 71.5107 118.744C70.964 119.784 69.8974 120.837 68.5374 121.851C69.3907 114.891 69.444 107.771 69.2307 100.771C69.2173 100.264 69.1907 99.7574 69.1774 99.2507C70.4707 101.291 72.004 103.184 73.724 104.851Z" fill="#FF5E13"/>
<path d="M69.9694 99.0028C71.2134 100.935 72.6627 102.708 74.2814 104.276C79.0174 108.903 84.7387 111.451 90.3907 111.451C93.4067 111.451 96.4307 110.736 99.3787 109.328C99.7427 109.16 100.087 108.981 100.428 108.791C101.547 108.185 102.591 107.52 103.539 106.811C103.837 106.589 104.133 106.357 104.416 106.125C105.269 105.452 106.105 104.697 106.913 103.876L107.143 103.647C108.197 102.553 109.209 101.337 110.141 100.037C112.683 96.4628 114.439 92.4175 115.219 88.3401C115.608 86.2735 115.921 84.4388 116.173 82.7335C116.173 82.7308 116.212 82.4695 116.212 82.4668L116.692 79.1095C116.844 77.9775 116.985 76.9095 117.103 75.8548L117.303 74.0908C117.643 71.0095 117.936 67.9415 118.127 65.4561L118.151 65.1695C118.169 64.9455 118.185 64.7308 118.203 64.5241C115.488 62.2921 114.547 58.8215 113.712 55.7441C113.451 54.7788 113.203 53.8681 112.913 53.0321C111.683 49.4921 110.197 45.8668 107.701 43.3468C107.095 42.7388 106.439 42.2041 105.756 41.7615C105.184 41.3855 104.571 41.0761 103.929 40.8415C102.495 40.2908 100.911 40.0588 99.336 40.1548C99.1454 40.1681 98.9681 40.1761 98.7934 40.2095C98.4774 40.2455 98.252 40.2682 98.0347 40.3135C97.7987 40.3562 97.5774 40.4041 97.3547 40.4535C94.216 41.2175 90.8587 41.0735 87.9014 40.0468C87.404 39.8601 86.8947 39.7255 86.3694 39.6401C84.788 39.3388 83.1574 39.4241 81.6347 39.8841C78.244 40.8975 75.152 43.6335 73.1494 47.3868C72.1374 49.2935 71.368 51.4481 70.7974 53.9735C70.4654 55.3801 70.1987 56.8868 69.9307 58.8655C68.5307 69.4361 69.072 80.3348 69.596 90.8748C69.732 93.5868 69.8654 96.2961 69.9694 99.0028ZM90.3907 113.051C84.3187 113.051 78.2014 110.341 73.1654 105.423C71.408 103.721 69.8387 101.787 68.5027 99.6788C68.4267 99.5588 68.384 99.4215 68.3787 99.2801C68.2747 96.5081 68.136 93.7308 67.9987 90.9548C67.4707 80.3428 66.9267 69.3695 68.3454 58.6521C68.6214 56.6188 68.8974 55.0655 69.2387 53.6135C69.84 50.9548 70.6574 48.6708 71.7374 46.6361C73.94 42.5068 77.38 39.4868 81.176 38.3508C82.9427 37.8188 84.8374 37.7201 86.6467 38.0641C87.2547 38.1628 87.8667 38.3241 88.4454 38.5415C91.0974 39.4615 94.1307 39.5921 96.9747 38.9001C97.256 38.8375 97.5014 38.7841 97.7334 38.7428C97.976 38.6908 98.2574 38.6601 98.528 38.6321C98.7374 38.5921 98.9774 38.5748 99.2187 38.5601C101.031 38.4428 102.853 38.7135 104.492 39.3441C105.237 39.6161 105.961 39.9801 106.631 40.4228C107.404 40.9228 108.147 41.5281 108.837 42.2188C111.559 44.9668 113.131 48.7881 114.425 52.5081C114.733 53.3975 114.987 54.3335 115.256 55.3255C116.097 58.4241 116.965 61.6295 119.508 63.5148C119.727 63.6761 119.848 63.9388 119.829 64.2095C119.807 64.5468 119.777 64.9108 119.744 65.3001L119.721 65.5828C119.529 68.0802 119.236 71.1681 118.893 74.2721L118.693 76.0308C118.573 77.0988 118.431 78.1775 118.285 79.2681L117.775 82.8401C117.501 84.6948 117.184 86.5495 116.791 88.6388C115.967 92.9415 114.12 97.2041 111.444 100.968C110.464 102.332 109.404 103.609 108.287 104.765L108.048 105.005C107.199 105.867 106.313 106.665 105.42 107.371C105.128 107.611 104.811 107.86 104.495 108.093C103.488 108.848 102.377 109.555 101.199 110.193C100.829 110.399 100.452 110.595 100.06 110.776C96.9041 112.284 93.6467 113.051 90.3907 113.051Z" fill="#2C3958"/>
<path d="M44.6186 134.573C44.6333 134.647 44.644 134.728 44.644 134.784C45.8107 142.999 51.2027 162.995 75.8413 168.819C80.28 169.88 85.2253 170.424 90.5387 170.437H90.7107C95.5627 170.424 100.127 169.969 104.277 169.081C129.9 163.603 135.425 143.195 136.612 134.673C136.659 134.344 136.756 134.025 136.899 133.731C136.843 133.705 136.788 133.681 136.733 133.655L127.821 130.017C127.817 130.017 124.765 128.959 121.184 127.353C119.64 126.657 112.349 122.764 110.809 121.927C110.7 121.868 110.608 121.785 110.536 121.684C110.391 121.476 110.073 120.851 109.464 119.616C109.344 119.371 109.251 119.181 109.216 119.116C107.683 116.184 107.145 111.479 106.979 107.748C104.785 111.247 99.9146 117.055 90.82 119.424C81.0013 121.996 75.6786 117.779 73.5266 115.339C73.1866 116.828 72.7493 118.092 72.2226 119.112C71.6853 120.131 70.7013 121.196 69.2906 122.284C68.3453 129.839 66.5866 136.356 63.9186 142.197C63.692 142.691 62.936 142.801 62.58 142.388C62.428 142.213 62.3533 141.98 62.3866 141.751C63.1333 136.539 63.0893 131.297 62.2546 126.159L61.8413 126.336C56.684 128.548 49.4466 131.653 45.5946 133.268L44.368 133.776C44.4227 133.897 44.4707 134.024 44.5133 134.153C44.5187 134.175 44.5267 134.201 44.5333 134.229C44.568 134.335 44.5986 134.453 44.6186 134.573ZM90.7133 172.037H90.5373C85.096 172.024 80.028 171.465 75.4707 170.375C49.8747 164.324 44.2733 143.548 43.0533 134.896C43.036 134.847 43.0093 134.732 42.988 134.628C42.8733 134.328 42.7467 134.125 42.5987 133.976C42.4027 133.78 42.3213 133.496 42.3853 133.225C42.4493 132.955 42.6493 132.737 42.912 132.651C42.916 132.649 43.0973 132.571 43.1013 132.568L44.9787 131.791C48.824 130.179 56.0587 127.076 61.2093 124.865L62.556 124.288C62.7773 124.192 63.0347 124.203 63.248 124.319C63.4627 124.433 63.6146 124.64 63.6573 124.88C64.3573 128.709 64.628 132.597 64.472 136.493C66.008 132.039 67.0853 127.172 67.7427 121.755C67.7693 121.536 67.884 121.34 68.06 121.208C69.424 120.192 70.348 119.237 70.8027 118.371C71.452 117.119 71.9546 115.405 72.2933 113.284C72.3493 112.947 72.612 112.681 72.9493 112.623C73.292 112.564 73.6226 112.729 73.788 113.028C73.9666 113.357 78.3493 121.044 90.4147 117.876C102.739 114.665 106.927 104.472 106.967 104.369C107.109 104.013 107.481 103.805 107.861 103.879C108.237 103.951 108.511 104.28 108.511 104.664C108.511 107.565 108.717 114.712 110.632 118.372C110.671 118.444 110.771 118.647 110.9 118.908C111.111 119.335 111.561 120.248 111.767 120.627C113.767 121.708 120.453 125.268 121.841 125.895C125.36 127.472 128.355 128.511 128.385 128.52L137.373 132.189C137.588 132.289 137.768 132.361 137.947 132.432C138.101 132.489 138.275 132.561 138.447 132.633C138.697 132.737 138.877 132.963 138.925 133.231C138.973 133.497 138.881 133.771 138.683 133.956C138.42 134.2 138.248 134.535 138.196 134.897C137.236 141.803 131.969 164.796 104.611 170.647C100.353 171.557 95.6773 172.024 90.7133 172.037Z" fill="#2C3958"/>
<path d="M119.727 65.5294L119.721 65.5828C119.529 68.0801 119.236 71.1681 118.893 74.2721L118.693 76.0308C118.573 77.0988 118.431 78.1774 118.285 79.2681L117.883 82.0921C118.156 82.0654 118.549 82.0134 119 81.9108C120.26 81.6201 121.343 81.1094 122.216 80.3921C123.188 79.6187 123.915 78.5934 124.385 77.3361C124.392 77.3054 124.401 77.2748 124.411 77.2468C125.576 74.0108 125.563 69.8107 125.032 67.0841C124.711 65.5014 124.284 64.6681 123.992 64.4187C123.1 64.3054 121.775 64.6961 120.309 65.4654C120.127 65.5614 119.917 65.5814 119.727 65.5294ZM117.385 83.7174C117.365 83.7174 117.353 83.7174 117.349 83.7174L116.833 83.6401C116.405 83.5681 116.112 83.1694 116.173 82.7401C116.173 82.7374 116.192 82.6041 116.192 82.6014C116.192 82.6001 116.212 82.4694 116.212 82.4668L116.692 79.1094C116.844 77.9774 116.985 76.9094 117.103 75.8547L117.303 74.0907C117.643 71.0094 117.936 67.9414 118.127 65.4561L118.151 65.1694C118.183 64.7881 118.211 64.4334 118.233 64.1041C118.252 63.8068 118.437 63.5441 118.711 63.4241C118.985 63.3054 119.301 63.3481 119.535 63.5361C119.667 63.6428 119.811 63.7468 119.965 63.8454C121.179 63.2508 122.764 62.6548 124.125 62.8014C124.421 62.8254 124.737 62.9601 125.017 63.1921C125.709 63.7827 126.237 64.9828 126.601 66.7708C127.131 69.4974 127.271 73.9987 125.928 77.7547C125.921 77.7867 125.912 77.8174 125.903 77.8468C125.331 79.4028 124.428 80.6788 123.221 81.6374C122.165 82.5041 120.861 83.1228 119.357 83.4694C118.336 83.7028 117.559 83.7174 117.385 83.7174Z" fill="#2C3958"/>
<path d="M73.9199 113.252C74.7466 114.559 79.3493 120.777 90.4146 117.876C98.296 115.823 102.849 110.913 105.12 107.615C104.916 107.776 104.704 107.937 104.495 108.093C103.488 108.848 102.377 109.555 101.199 110.193C100.829 110.399 100.452 110.595 100.06 110.776C96.904 112.284 93.6466 113.051 90.3906 113.051C84.8426 113.051 79.2573 110.789 74.4919 106.647C74.4199 109.107 74.2293 111.32 73.9199 113.252ZM84.9839 120.227C75.9813 120.227 72.4213 113.868 72.38 113.791C72.2946 113.633 72.2653 113.453 72.2946 113.277C72.6919 110.912 72.9039 108.075 72.9239 104.845C72.9253 104.525 73.12 104.236 73.4146 104.112C73.7106 103.988 74.052 104.052 74.2826 104.279C79.0173 108.903 84.7386 111.451 90.3906 111.451C93.4066 111.451 96.4306 110.736 99.3786 109.328C99.7426 109.16 100.087 108.981 100.428 108.791C101.547 108.185 102.591 107.52 103.539 106.811C103.837 106.589 104.133 106.357 104.416 106.125C105.269 105.452 106.105 104.697 106.913 103.876L107.143 103.647C107.371 103.416 107.715 103.347 108.016 103.471C108.315 103.593 108.511 103.887 108.511 104.211V104.664C108.511 104.764 108.492 104.864 108.455 104.957C108.277 105.407 103.956 116.001 90.8199 119.424C88.6626 119.989 86.7213 120.227 84.9839 120.227Z" fill="#2C3958"/>
<path d="M70.0653 101.924C70.2467 109.027 70.088 114.717 69.556 119.952C70.124 119.399 70.5414 118.871 70.8027 118.371C71.452 117.119 71.9547 115.405 72.2933 113.284C72.68 110.995 72.8893 108.273 72.92 105.184C71.9 104.172 70.9453 103.083 70.0653 101.924ZM68.5374 122.651C68.4 122.651 68.26 122.615 68.1347 122.541C67.8587 122.381 67.704 122.071 67.7427 121.753C68.4774 115.764 68.6893 109.3 68.432 100.795L68.3787 99.2707C68.3694 98.9107 68.6014 98.5893 68.9454 98.484C69.2934 98.3786 69.6613 98.5186 69.8533 98.8213C71.124 100.824 72.612 102.66 74.2814 104.276C74.4374 104.428 74.524 104.637 74.5227 104.855C74.504 108.169 74.2854 111.092 73.8734 113.543C73.508 115.828 72.952 117.703 72.2227 119.112C71.652 120.196 70.5734 121.332 69.016 122.492C68.8747 122.597 68.7054 122.651 68.5374 122.651Z" fill="#2C3958"/>
<path d="M172.311 185.491H8.01733C8.01733 185.491 13.884 156.557 15.924 149.024C17.964 141.491 25.564 139.504 25.564 139.504C25.564 139.504 39.5907 129.931 41.3774 130.611C42.3907 130.997 43.044 132.264 43.4173 133.304C43.324 133.344 43.244 133.384 43.164 133.411C43.4307 133.677 43.6307 134.024 43.7507 134.397C43.764 134.424 43.764 134.437 43.764 134.451C43.7907 134.531 43.8173 134.624 43.8307 134.717C43.844 134.757 43.844 134.784 43.844 134.784C44.9374 142.531 50.2173 163.584 75.6573 169.597C80.004 170.637 84.9373 171.224 90.5373 171.237H90.7107C95.8307 171.224 100.391 170.731 104.444 169.864C130.884 164.211 136.311 142.637 137.404 134.784C137.484 134.224 137.751 133.731 138.137 133.371C137.977 133.304 137.817 133.237 137.671 133.184C137.471 133.104 137.271 133.024 137.071 132.931C137.457 131.984 138.071 130.944 138.951 130.611C140.751 129.931 154.777 139.504 154.777 139.504C154.777 139.504 162.364 141.491 164.404 149.024C166.444 156.557 172.311 185.491 172.311 185.491Z" fill="#00225B"/>
<path d="M120.343 73.2107C120.14 75.1227 120.124 77.0667 120.296 78.9827C121.001 78.2494 121.468 77.1321 121.473 76.0121C121.479 74.9041 121.056 73.8947 120.343 73.2107ZM119.652 81.1947C119.515 81.1947 119.377 81.1587 119.255 81.0894C119.039 80.9654 118.893 80.7494 118.859 80.5027C118.464 77.6174 118.487 74.6387 118.915 71.7547C118.917 71.7334 118.92 71.7134 118.924 71.6934C119.056 70.8214 119.224 69.9587 119.429 69.1107C119.641 68.2294 119.909 67.3041 120.429 66.5121C121.083 65.5161 122.072 64.9587 122.992 64.988C124.187 65.0374 125.188 66.0974 125.223 67.352C125.235 67.7934 124.887 68.1614 124.445 68.1734C124.437 68.1734 124.429 68.1734 124.423 68.1734C123.991 68.1734 123.635 67.8294 123.624 67.3947C123.612 66.9547 123.237 66.6 122.925 66.5867C122.544 66.564 122.097 66.8854 121.768 67.3894C121.383 67.9774 121.164 68.7454 120.984 69.4867C120.832 70.116 120.701 70.7547 120.592 71.3974C122.127 72.3214 123.083 74.0707 123.072 76.02C123.063 78.2667 121.783 80.3694 119.96 81.132C119.861 81.1734 119.756 81.1947 119.652 81.1947Z" fill="#2C3958"/>
</g>
</svg>
