<svg width="194" height="194" viewBox="0 0 194 194" fill="none" xmlns="http://www.w3.org/2000/svg">
<g filter="url(#filter0_d_2_566)">
<mask id="mask0_2_566" style="mask-type:luminance" maskUnits="userSpaceOnUse" x="4" y="0" width="186" height="186">
<path d="M189.737 92.8293C189.737 143.952 148.295 185.393 97.1729 185.393C46.0511 185.393 4.6084 143.952 4.6084 92.8293C4.6084 41.708 46.0511 0.265327 97.1729 0.265327C148.295 0.265327 189.737 41.708 189.737 92.8293Z" fill="white"/>
</mask>
<g mask="url(#mask0_2_566)">
<path d="M189.737 92.8293C189.737 143.952 148.295 185.393 97.1729 185.393C46.0511 185.393 4.6084 143.952 4.6084 92.8293C4.6084 41.708 46.0511 0.26532 97.1729 0.26532C148.295 0.26532 189.737 41.708 189.737 92.8293Z" fill="#00225A"/>
<path d="M164.707 149.273C164.707 149.273 148.44 167.247 94.7729 167.247H94.6396C40.9593 167.247 24.7063 149.273 24.7063 149.273C24.7063 149.273 28.9729 140.567 35.3328 138.353C36.4927 137.953 38.3328 137.233 40.5864 136.313C40.5995 136.313 40.6131 136.3 40.626 136.3C42.5864 135.5 44.8396 134.567 47.2131 133.567C47.226 133.553 47.2531 133.553 47.2661 133.541C57.186 129.367 69.0661 124.181 69.0661 124.181C69.1995 124.128 69.3193 124.073 69.4396 124.02C70.186 123.607 70.9063 123.181 71.5864 122.727C71.626 122.7 71.6661 122.673 71.7063 122.647C73.6792 121.38 75.2797 120.007 75.986 118.647C76.7328 117.208 77.2396 115.313 77.5593 113.313C77.5593 113.313 77.5729 113.353 77.6131 113.407C78.186 114.527 83.7593 124.66 95.9328 121.473C104.226 119.3 108.573 112.927 110.626 108.66C111.173 108.22 111.72 107.768 112.24 107.26C112.387 110.9 112.88 115.74 114.4 118.647C114.533 118.9 115.48 120.86 115.667 121.128C116.24 121.435 117.613 122.181 119.2 123.02C119.679 123.273 120.173 123.541 120.667 123.795C120.667 123.795 120.693 123.807 120.747 123.833C120.893 123.9 121.227 124.047 121.733 124.287C125.187 125.848 136.307 130.887 144.84 134.567C147.253 135.607 149.453 136.541 151.213 137.247C152.387 137.727 153.36 138.101 154.08 138.353C160.44 140.567 164.707 149.273 164.707 149.273Z" fill="#FAF3E7"/>
<path d="M164.707 150.073C164.411 150.073 164.127 149.909 163.988 149.625C163.947 149.541 159.787 141.187 153.816 139.109C153.085 138.852 152.099 138.475 150.909 137.987C149.149 137.281 146.944 136.344 144.523 135.303C136.572 131.872 126.517 127.328 122.224 125.387L121.404 125.016C120.997 124.824 120.711 124.696 120.537 124.617C120.536 124.616 120.415 124.563 120.413 124.561C119.961 124.331 119.621 124.151 119.287 123.972L118.825 123.728C117.676 123.119 116.637 122.559 115.933 122.179L115.289 121.832C115.179 121.773 115.083 121.689 115.011 121.587C114.867 121.38 114.555 120.763 113.952 119.543C113.825 119.287 113.728 119.089 113.692 119.02C112.329 116.415 111.759 112.369 111.529 108.957C111.441 109.029 111.355 109.1 111.268 109.171C108.92 113.977 104.402 120.081 96.1355 122.248C85.9672 124.912 80.1912 118.731 77.9459 115.487C77.6136 116.871 77.1959 118.052 76.6964 119.016C75.9833 120.388 74.4505 121.836 72.1385 123.32C71.3869 123.821 70.6667 124.256 69.8265 124.72C69.636 124.809 69.5068 124.867 69.3631 124.924C69.2672 124.965 57.4068 130.143 47.5995 134.268C47.5953 134.271 47.5917 134.272 47.5869 134.275C47.5661 134.285 47.5453 134.295 47.5235 134.304C45.1473 135.305 42.8912 136.24 40.9281 137.041C40.9099 137.048 40.8912 137.056 40.8719 137.061C40.8713 137.063 40.8708 137.063 40.8703 137.063C38.4771 138.039 36.7016 138.728 35.5932 139.111C29.626 141.187 25.4656 149.541 25.4245 149.625C25.2303 150.024 24.7516 150.187 24.3536 149.992C23.9573 149.797 23.7932 149.317 23.988 148.921C24.1677 148.555 28.4751 139.893 35.0697 137.597C36.1552 137.224 37.9084 136.543 40.2844 135.573C40.3027 135.565 40.3213 135.559 40.3401 135.553C40.3412 135.552 40.3417 135.552 40.3421 135.552C42.2885 134.757 44.524 133.832 46.8771 132.841C46.8833 132.837 46.8885 132.835 46.8943 132.832C46.9145 132.821 46.9349 132.812 46.9563 132.803C56.7568 128.68 68.6271 123.499 68.7459 123.448C68.8921 123.388 69.0031 123.339 69.1136 123.289C69.8531 122.877 70.5369 122.465 71.1427 122.061C71.1469 122.059 71.2697 121.977 71.274 121.975C73.3183 120.661 74.7021 119.384 75.2765 118.279C75.9276 117.023 76.4303 115.311 76.7697 113.188C76.8281 112.823 77.1287 112.545 77.4964 112.516C77.8219 112.481 78.136 112.672 78.2792 112.964C78.2959 112.989 78.3115 113.016 78.3251 113.043C78.8891 114.145 84.1656 123.728 95.7303 120.7C103.499 118.664 107.727 112.84 109.905 108.313C109.957 108.205 110.032 108.112 110.125 108.037C110.637 107.624 111.181 107.175 111.681 106.688C111.907 106.467 112.243 106.401 112.535 106.517C112.828 106.635 113.025 106.913 113.039 107.228C113.241 112.256 113.957 116.076 115.108 118.277C115.147 118.348 115.251 118.56 115.387 118.833C115.593 119.255 116.037 120.152 116.241 120.528L116.693 120.771C117.393 121.149 118.428 121.707 119.573 122.313L120.039 122.56C120.367 122.735 120.699 122.912 121.032 123.083L121.192 123.157C121.373 123.239 121.669 123.372 122.076 123.564L122.883 123.929C127.173 125.868 137.219 130.409 145.156 133.833C147.563 134.869 149.756 135.8 151.511 136.505C152.675 136.98 153.635 137.349 154.345 137.599C160.937 139.893 165.244 148.555 165.424 148.921C165.619 149.317 165.455 149.797 165.059 149.992C164.945 150.047 164.825 150.073 164.707 150.073Z" fill="#2C3958"/>
<path d="M147.6 66.8214L145.2 67.4214C145.467 68.6867 145.427 70.0067 145.012 71.2334C144.36 73.1547 142.867 74.94 143.12 76.9534C143.44 79.4067 146.147 80.8867 146.893 83.2467C147.893 86.4347 144.947 89.5534 144.867 92.9C144.827 94.6334 145.56 96.3134 145.56 98.0467C145.56 99.0334 145.16 100.101 144.48 100.795C143.027 100.287 141.6 99.7134 140.213 99.06C140.547 101.541 138.973 104.327 136.48 104.953C134.985 105.327 133.24 105.101 132.12 106.14C130.345 107.807 131.773 111.115 130.28 113.033C128.96 114.74 126 114.473 124.813 116.273C123.947 117.58 124.427 119.407 123.76 120.821C122.985 122.473 121.107 122.967 119.2 123.02C117.613 122.181 116.24 121.435 115.667 121.128C115.48 120.86 114.533 118.9 114.4 118.647C112.88 115.74 112.387 110.9 112.24 107.26C115.053 104.66 117.427 101.38 118.813 97.4214C120.267 93.2734 121.24 87.9534 121.907 82.8214C122.147 82.8067 122.787 82.7814 123.613 82.5934C124.652 82.3534 125.973 81.8867 127.16 80.9267C128.133 80.14 129 79.0334 129.587 77.4734V77.4614C129.587 77.448 129.587 77.4347 129.6 77.4214C130.307 75.4214 130.613 73.088 130.613 70.9C126.093 69.9134 124.053 68.4067 123.187 67.5C123.053 67.3534 122.947 67.22 122.853 67.1014C122.813 67.0467 122.773 66.98 122.747 66.94C122.679 66.848 122.64 66.7814 122.64 66.7547L122.627 66.74C122.293 66.14 122.053 65.448 121.933 64.7947C121.6 63.0467 121.573 61.1014 120.387 59.768C119.24 58.488 117.319 58.1547 116.173 56.8747C114.147 54.5934 115.679 51.02 115.293 47.9934C114.985 45.7 113.413 43.6067 111.293 42.7C109.333 41.848 106.959 42.02 105.133 43.128L105.053 42.86C101.853 40.2734 96.426 41.26 94.3459 44.8214C93.4396 46.3667 93.1464 48.1933 92.5593 49.8867C91.9593 51.58 90.9063 53.3 89.1995 53.848C86.8131 54.62 84.2131 52.848 81.7995 53.1547C81.5593 53.1814 81.3328 53.22 81.0927 53.3C78.3864 54.1667 77.6661 57.5534 76.2396 59.9934C75.9328 60.5147 75.5729 61.0067 75.1593 61.4614C72.9729 63.9 69.5328 65.1934 66.2927 64.74C66.3063 65.4734 66.7197 85.8214 70.7328 97.3C72.2396 101.647 74.9464 105.181 78.1193 107.9C78.026 109.593 77.8661 111.488 77.5593 113.313C77.2396 115.313 76.7328 117.208 75.986 118.647C75.2797 120.007 73.6792 121.38 71.7063 122.647C69.9328 121.58 68.1464 120.5 66.3729 119.435C65.9464 119.181 65.5328 118.927 65.1995 118.567C62.5063 119.833 59.6527 120.755 56.7328 121.287C55.6396 120.755 54.5864 120.14 53.6792 119.34C52.3328 118.155 51.3193 116.473 51.3593 114.673C51.3864 113.34 51.986 111.9 51.3593 110.713C50.9063 109.86 49.9464 109.421 49.1995 108.807C48.0125 107.821 47.426 106.247 47.4927 104.713C44.9063 104.887 42.3063 105.06 39.7197 105.233L39.5864 105.313C39.1593 104.541 38.9464 103.567 39.0125 102.7C39.1464 100.807 39.9593 98.9267 39.5593 97.0734C38.9328 94.22 35.5864 92.4214 35.3459 89.5147C35.026 85.7 40.1193 83.2734 40.2927 79.4614C40.3593 77.8867 39.5729 76.2467 40.1593 74.7947C40.8797 72.9934 43.2661 72.5147 44.4527 70.98C45.6661 69.3934 45.3193 67.1934 45.4661 65.208C45.5328 64.088 46.0125 62.8334 46.7593 62.0334C44.5193 61.2734 42.3995 60.1547 40.5193 58.7134C40.5593 57.9 40.786 57.088 41.1464 56.3667C42.0531 54.5934 43.6131 53.2734 45.0661 51.9267C46.5193 50.58 47.9593 49.06 48.4661 47.14C49.3328 43.8867 47.3328 40.26 48.626 37.14C50.2797 33.128 56.1995 32.6067 58.3864 28.86C59.2797 27.3267 59.4125 25.4347 60.2927 23.9C61.6927 21.4614 64.626 20.4067 67.3593 19.768C70.1063 19.14 73.0396 18.6734 75.1729 16.848C76.7593 15.5 77.7995 13.4614 79.6661 12.5267C83.026 10.8214 86.9464 13.4614 90.7197 13.5147C93.1995 13.5414 95.5593 12.4347 98.026 12.22C100.28 12.02 102.946 13.02 103.626 15.0467H103.64C105.653 13.62 108.026 12.5934 110.506 12.5C112.973 12.4214 115.547 13.3667 117.107 15.2867C118.253 16.7133 118.84 18.62 120.333 19.7C122.253 21.088 124.907 20.5534 127.253 20.94C130.587 21.5 133.453 24.22 134.187 27.5267C134.613 29.4067 134.413 31.4614 135.36 33.14C137.067 36.1147 141.747 36.66 142.88 39.9C143.787 42.488 141.84 45.38 142.507 48.0334C143.133 50.5 145.679 51.86 147.4 53.7267C150.652 57.2334 150.747 63.208 147.6 66.8214Z" fill="#3B4243"/>
<path d="M130.613 70.9C130.613 73.088 130.307 75.4214 129.6 77.4214C129.587 77.4347 129.587 77.448 129.587 77.4614V77.4734C129 79.0334 128.133 80.14 127.16 80.9267C125.973 81.8867 124.652 82.3534 123.613 82.5934C122.787 82.7814 122.147 82.8067 121.907 82.8214C122.587 77.58 122.92 72.5267 123.093 69.128C123.093 69.1147 123.093 69.1147 123.093 69.1147C123.133 68.5934 123.187 68.088 123.227 67.6067C123.213 67.5934 123.2 67.5667 123.187 67.5533C123.053 67.4213 122.947 67.26 122.853 67.1014C122.947 67.22 123.053 67.3534 123.187 67.5C124.053 68.4067 126.093 69.9134 130.613 70.9Z" fill="#2C3958"/>
<path d="M123.227 67.6068C123.187 68.0881 123.133 68.5934 123.093 69.1148C123.093 69.1148 123.093 69.1148 123.093 69.1281C122.92 72.5268 122.587 77.5801 121.907 82.8214C121.24 87.9534 120.267 93.2734 118.813 97.4214C117.427 101.38 115.053 104.66 112.24 107.26C111.72 107.768 111.173 108.22 110.626 108.66C109.973 109.181 109.306 109.673 108.626 110.128C108.28 110.353 107.933 110.58 107.586 110.795C107.159 111.06 106.72 111.313 106.28 111.541C104.973 112.233 103.666 112.833 102.359 113.3C99.5864 114.313 96.9197 114.807 94.7063 114.807C90.0661 114.74 83.4396 112.448 78.1193 107.9C74.9464 105.181 72.2396 101.647 70.7328 97.3001C69.2927 93.1548 68.3063 87.8601 67.6396 82.7401C66.4797 73.6868 66.3063 65.2081 66.2927 64.7401C69.5328 65.1934 72.9729 63.9001 75.1593 61.4614C75.5729 61.0068 75.9328 60.5148 76.2396 59.9934C77.6661 57.5534 78.3864 54.1668 81.0927 53.3001C81.3328 53.2201 81.5593 53.1814 81.7995 53.1547C84.2131 52.8481 86.8131 54.6201 89.1995 53.8481C90.9063 53.3001 91.9593 51.5801 92.5593 49.8867C93.1464 48.1934 93.4396 46.3667 94.3459 44.8214C96.426 41.2601 101.853 40.2734 105.053 42.8601L105.133 43.1281C106.959 42.0201 109.333 41.8481 111.293 42.7001C113.413 43.6068 114.985 45.7001 115.293 47.9934C115.679 51.0201 114.147 54.5934 116.173 56.8748C117.319 58.1548 119.24 58.4881 120.387 59.7681C121.573 61.1014 121.6 63.0468 121.933 64.7948C122.12 65.7681 122.547 66.8067 123.187 67.5534C123.2 67.5667 123.213 67.5934 123.227 67.6068Z" fill="#FAF3E7"/>
<path d="M130.613 70.9C130.613 73.088 130.307 75.4214 129.6 77.4214C129.587 77.4347 129.587 77.448 129.587 77.4614V77.4734C129 79.0334 128.133 80.14 127.16 80.9267C125.973 81.8867 124.652 82.3534 123.613 82.5934C122.787 82.7814 122.147 82.8067 121.907 82.8214C122.587 77.58 122.92 72.5267 123.093 69.128C123.093 69.1147 123.093 69.1147 123.093 69.1147C123.133 68.5934 123.187 68.088 123.227 67.6067C123.213 67.5934 123.2 67.5667 123.187 67.5533V67.5C124.053 68.4067 126.093 69.9134 130.613 70.9Z" fill="#FAF3E7"/>
<path d="M67.6396 82.74C67.0396 82.6733 66.2396 82.5267 65.3864 82.2467C63.9995 81.7947 62.4396 80.9933 61.2396 79.5667C60.7328 78.9667 60.2927 78.2466 59.9593 77.4213C57.7197 71.8866 59.0792 63.7 61.226 63.5C61.2396 63.5 61.2396 63.5 61.2531 63.5C62.6661 63.38 64.4396 64.0333 65.4797 64.4733C65.6927 64.5667 66.1464 64.6733 66.2927 64.74C66.3063 65.208 66.4797 73.6867 67.6396 82.74Z" fill="#FAF3E7"/>
<path d="M103.319 93.9C101.319 94.4214 98.4797 94.8747 94.6396 94.8747C90.7995 94.8747 87.9729 94.4214 85.9729 93.9C84.9729 93.6334 84.8927 92.2333 85.8527 91.86C88.2131 90.9133 90.3459 89.208 91.226 89.488C91.3328 89.5267 91.4527 89.58 91.5729 89.6334C93.4927 90.5414 95.786 90.5414 97.7063 89.6334C97.826 89.58 97.9464 89.5267 98.0661 89.488C98.9464 89.208 101.066 90.9133 103.44 91.86C104.399 92.2333 104.306 93.6334 103.319 93.9Z" fill="#AAA5EB"/>
<path d="M94.6412 101.457C96.9907 101.407 99.0896 101.416 101.348 100.453C99.4245 105.153 89.8573 105.163 87.9344 100.453C90.2005 101.416 92.2995 101.407 94.6412 101.457Z" fill="#2C3958"/>
<path d="M110.626 108.66C108.573 112.927 104.226 119.3 95.9328 121.473C83.7593 124.66 78.186 114.527 77.6131 113.407C77.5729 113.353 77.5593 113.313 77.5593 113.313C77.8661 111.488 78.026 109.593 78.1193 107.9C83.4396 112.448 90.0661 114.74 94.7063 114.807L94.6396 114.927C97.8927 114.927 102.159 113.807 106.28 111.541C106.72 111.313 107.159 111.06 107.586 110.795C107.933 110.58 108.28 110.353 108.626 110.128C109.306 109.673 109.973 109.181 110.626 108.66Z" fill="#2C3958"/>
<path d="M67.1183 65.62C67.2136 68.6187 67.5172 75.4894 68.4333 82.6387C69.2073 88.5854 70.2355 93.4294 71.4885 97.0374C72.838 100.932 75.2437 104.383 78.6407 107.293C84.3344 112.16 90.8599 113.952 94.7177 114.007C96.8921 114.007 99.5131 113.489 102.085 112.549C103.297 112.116 104.545 111.556 105.905 110.835C106.334 110.613 106.754 110.371 107.163 110.116C107.507 109.903 107.848 109.68 108.188 109.457C108.806 109.045 109.46 108.565 110.127 108.035C110.637 107.624 111.181 107.175 111.681 106.688C114.668 103.927 116.808 100.725 118.057 97.156C119.301 93.6067 120.329 88.7493 121.112 82.7173C121.644 78.6227 122.043 74.036 122.295 69.0867C122.319 68.744 122.347 68.44 122.375 68.144L122.401 67.8533C121.823 67.1133 121.36 66.052 121.147 64.9454C121.073 64.564 121.016 64.1734 120.957 63.7827C120.756 62.44 120.565 61.172 119.789 60.2987C119.313 59.768 118.631 59.4093 117.907 59.0293C117.091 58.5987 116.247 58.1547 115.577 57.408C114.032 55.6694 114.235 53.4187 114.429 51.2414C114.525 50.176 114.624 49.0747 114.499 48.0947C114.228 46.0653 112.845 44.2347 110.978 43.436C109.249 42.6827 107.169 42.828 105.547 43.812C105.334 43.94 105.075 43.9627 104.844 43.8734C104.613 43.784 104.436 43.592 104.366 43.3547L104.36 43.336C103.031 42.3574 101.246 41.9893 99.4197 42.3227C97.5068 42.6733 95.9093 43.7307 95.0369 45.224C94.4745 46.184 94.1645 47.2774 93.8369 48.4347C93.6735 49.0107 93.5099 49.5867 93.3156 50.148C92.7271 51.8094 91.5797 53.924 89.4437 54.6094C87.9131 55.1054 86.3979 54.7253 84.9333 54.356C83.8531 54.0853 82.8344 53.832 81.9 53.948C81.6656 53.9734 81.5036 54.0067 81.3464 54.06C79.6869 54.5907 78.8708 56.364 78.0068 58.2414C77.6745 58.9654 77.3297 59.7134 76.9303 60.3974C76.5875 60.9787 76.1912 61.516 75.7505 62C73.5719 64.4307 70.3364 65.7707 67.1183 65.62ZM94.7063 115.607C89.2636 115.529 82.5536 112.743 77.6 108.508C73.9849 105.409 71.4203 101.728 69.9771 97.5627C68.6885 93.852 67.6355 88.9 66.8464 82.844C65.8109 74.7627 65.5505 67.0387 65.4959 64.864C65.4901 64.6294 65.5864 64.352 65.7615 64.1947C65.9364 64.0387 66.1677 63.9187 66.4031 63.948C69.3505 64.3614 72.5511 63.1747 74.5636 60.9267C74.9355 60.5187 75.2651 60.0707 75.55 59.588C75.9093 58.9733 76.2224 58.2934 76.5536 57.5734C77.5245 55.4627 78.5276 53.2814 80.8484 52.5387C81.1068 52.452 81.3755 52.396 81.7104 52.3587C82.9276 52.2013 84.1464 52.508 85.3235 52.804C86.626 53.132 87.8573 53.4413 88.9527 53.0867C90.4677 52.6 91.3401 50.9333 91.8057 49.6187C91.9885 49.092 92.1427 48.5454 92.2973 47.9987C92.6385 46.7947 92.9907 45.5507 93.6563 44.416C94.7636 42.52 96.7593 41.184 99.1317 40.7494C101.423 40.332 103.679 40.82 105.369 42.092C107.317 41.1693 109.645 41.1107 111.612 41.9667C113.983 42.98 115.74 45.3053 116.085 47.888C116.233 49.044 116.127 50.2333 116.023 51.384C115.851 53.308 115.687 55.1227 116.771 56.3427C117.245 56.8734 117.929 57.232 118.652 57.6134C119.468 58.0414 120.313 58.4854 120.983 59.2334C122.077 60.464 122.312 62.0307 122.54 63.5454C122.595 63.9147 122.651 64.284 122.719 64.644C122.897 65.5734 123.289 66.444 123.793 67.0334C123.969 67.2 124.044 67.432 124.023 67.6747L123.968 68.292C123.941 68.58 123.913 68.8747 123.891 69.1747C123.637 74.1587 123.236 78.7867 122.7 82.924C121.903 89.064 120.848 94.032 119.568 97.6853C118.231 101.504 115.948 104.924 112.783 107.848C112.249 108.368 111.672 108.845 111.127 109.284C110.413 109.853 109.74 110.347 109.069 110.793C108.711 111.027 108.358 111.257 108.006 111.475C107.564 111.751 107.105 112.015 106.646 112.252C105.225 113.005 103.908 113.596 102.629 114.053C99.8505 115.069 97.1088 115.607 94.7063 115.607Z" fill="#2C3958"/>
<path d="M78.3937 113.173C79.2312 114.741 84.5344 123.631 95.7303 120.7C101.837 119.099 105.756 115.159 108.21 111.347C108.143 111.391 108.075 111.432 108.006 111.475C107.564 111.751 107.105 112.015 106.646 112.252C102.637 114.456 98.2541 115.728 94.6396 115.728C94.4792 115.728 94.3245 115.679 94.1953 115.592C89.2953 115.377 83.4563 113.048 78.8161 109.493C78.7115 110.843 78.5713 112.059 78.3937 113.173ZM91.3333 122.897C81.9287 122.897 77.4849 114.907 76.9093 113.788C76.864 113.711 76.8177 113.619 76.7989 113.564C76.7588 113.44 76.7489 113.309 76.7703 113.181C77.0287 111.647 77.2084 109.905 77.3208 107.857C77.3375 107.553 77.5251 107.285 77.8052 107.165C78.0823 107.044 78.4079 107.093 78.6391 107.292C84.3344 112.16 90.8599 113.952 94.7177 114.007C94.8599 114.008 94.9964 114.049 95.1151 114.119C98.3412 114.009 102.329 112.801 105.894 110.84C106.334 110.613 106.754 110.371 107.163 110.116C107.507 109.903 107.848 109.68 108.188 109.457C108.806 109.045 109.46 108.565 110.127 108.035C110.419 107.801 110.833 107.803 111.125 108.035C111.416 108.268 111.509 108.671 111.347 109.008C109.022 113.839 104.496 120.057 96.1355 122.248C94.4099 122.7 92.8093 122.897 91.3333 122.897Z" fill="#2C3958"/>
<path d="M87.5912 83.212C88.5693 83.1294 89.0797 82.4014 90.1584 82.544C90.3005 82.568 90.4344 82.6014 90.5432 82.652C90.8027 82.736 90.9697 82.8534 91.0953 82.9107C92.776 83.756 94.9921 83.58 96.8151 83.38C97.4588 83.3214 98.0615 82.92 98.6803 82.6854C99.1568 82.5094 99.6417 82.4347 100.169 82.6774C101.264 83.1787 102.769 83.9067 102.945 82.092C103.907 83.9067 101.883 84.776 100.319 84.5254C100.227 84.5334 99.5079 84.3494 99.5161 84.4747C97.7521 86.24 94.3401 86.3067 91.9145 85.688C91.4464 85.5454 90.9615 85.3614 90.5183 85.0854C90.1 84.8174 89.6145 84.4254 89.7656 84.4747C89.7823 84.4587 89.7573 84.416 89.5901 84.4334C88.9208 84.5507 88.1349 84.6334 87.4912 84.4414C86.3197 84.232 85.7349 83.0947 86.3453 82.092C86.4459 82.8614 86.7885 83.4294 87.5912 83.212Z" fill="#2C3958"/>
<path d="M116.643 70.3934C115.372 69.7987 114.059 69.3307 112.737 69.0294C112.905 69.3974 112.997 69.7987 112.997 70.2254C112.997 71.84 111.692 73.144 110.079 73.144C108.465 73.144 107.16 71.84 107.16 70.2254C107.16 69.6734 107.31 69.1547 107.586 68.712C106.156 68.8787 104.743 69.2974 103.347 70C105.947 65.0414 113.131 65.1907 116.895 68.7454C117.621 68.5947 118.283 68.1014 118.516 67.3574C118.976 68.6707 117.872 69.9747 116.643 70.3934Z" fill="#2C3958"/>
<path d="M86.8973 62.7081L86.6631 63.0507C84.6307 63.26 82.7995 63.3601 80.9683 62.7747C80.4495 62.5827 79.8812 62.3987 79.3208 62.3734C76.8036 62.2147 74.3531 62.9587 72.1203 64.196L71.8193 63.9041C73.8932 60.7094 77.6396 58.9027 81.3948 58.652C83.8869 58.56 86.1531 60.2574 86.8973 62.7081Z" fill="#2C3958"/>
<path d="M85.9354 70C84.539 69.2974 83.1254 68.8787 81.6958 68.712C81.9718 69.1547 82.1224 69.6734 82.1224 70.2254C82.1224 71.84 80.8177 73.144 79.2036 73.144C77.5896 73.144 76.2849 71.84 76.2849 70.2254C76.2849 69.7987 76.377 69.3974 76.5442 69.0294C75.2229 69.3307 73.9099 69.7987 72.6391 70.3934C71.4093 69.9747 70.3057 68.6707 70.7656 67.3574C71 68.1014 71.6604 68.5947 72.388 68.7454C76.1516 65.1907 83.3432 65.0414 85.9354 70Z" fill="#2C3958"/>
<path d="M102.627 63.0507L102.385 62.7081C103.129 60.2574 105.395 58.56 107.887 58.652C111.643 58.9027 115.389 60.7094 117.463 63.9041L117.161 64.196C114.929 62.9587 112.479 62.2147 109.961 62.3734C109.401 62.3987 108.832 62.5827 108.314 62.7747C106.474 63.3601 104.659 63.26 102.627 63.0507Z" fill="#2C3958"/>
<path d="M87.5969 95.044C88.5844 96.1467 90.6183 97.5067 94.6412 97.5067C98.5667 97.5067 100.602 96.2107 101.619 95.1227C99.0183 95.62 93.9885 96.1947 87.5969 95.044ZM94.6412 99.1067C86.7636 99.1067 85.2651 94.3307 85.2057 94.1267C85.1255 93.8547 85.1953 93.5613 85.3891 93.3547C85.5833 93.1467 85.8729 93.06 86.1473 93.12C95.9349 95.3067 103.011 93.16 103.08 93.1374C103.36 93.048 103.671 93.1227 103.881 93.3307C104.091 93.5387 104.17 93.8453 104.086 94.128C104.025 94.332 102.517 99.1067 94.6412 99.1067Z" fill="#2C3958"/>
<path d="M64.2224 73.1547C63.5093 73.84 63.0869 74.8493 63.0921 75.9573C63.0969 77.0773 63.5636 78.196 64.2683 78.928C64.4412 77.0133 64.4251 75.068 64.2224 73.1547ZM64.9131 81.14C64.8084 81.14 64.7036 81.1187 64.6036 81.0774C62.7817 80.3134 61.5027 78.212 61.4917 75.964C61.4828 74.016 62.4391 72.2667 63.9729 71.3427C63.8636 70.6987 63.7328 70.0613 63.5812 69.432C63.4016 68.6893 63.1828 67.9213 62.7973 67.3333C62.4677 66.8307 61.9937 66.5187 61.6412 66.532C61.3271 66.5453 60.9541 66.9 60.9417 67.34C60.9303 67.7827 60.5407 68.176 60.1208 68.1187C59.6787 68.1067 59.3303 67.7387 59.3427 67.2973C59.3765 66.0427 60.3781 64.9827 61.574 64.9333C62.5484 64.8933 63.4833 65.4627 64.1355 66.456C64.6547 67.248 64.9229 68.1747 65.136 69.056C65.3427 69.9107 65.512 70.7787 65.6437 71.656C65.6448 71.664 65.6464 71.6734 65.6473 71.6814C66.0781 74.572 66.1005 77.5574 65.7057 80.448C65.6724 80.6947 65.5255 80.9107 65.3104 81.0347C65.188 81.104 65.0505 81.14 64.9131 81.14Z" fill="#2C3958"/>
<path d="M125.656 73.156C125.453 75.0693 125.436 77.0133 125.609 78.928C126.315 78.196 126.781 77.0773 126.785 75.9573C126.791 74.8493 126.368 73.84 125.656 73.156ZM124.964 81.14C124.827 81.14 124.689 81.104 124.568 81.0347C124.352 80.9107 124.205 80.6947 124.172 80.448C123.777 77.564 123.799 74.5867 124.228 71.7027C124.229 71.68 124.233 71.6573 124.237 71.6347C124.369 70.764 124.537 69.9027 124.741 69.056C124.955 68.1747 125.223 67.248 125.741 66.456C126.393 65.4613 127.329 64.8907 128.304 64.9333C129.5 64.9827 130.501 66.0427 130.535 67.2973C130.547 67.7387 130.199 68.1067 129.757 68.1187C129.355 68.1787 128.948 67.7827 128.936 67.34C128.924 66.9 128.551 66.5453 128.237 66.532C127.877 66.5093 127.409 66.8307 127.08 67.3333C126.695 67.9213 126.476 68.6893 126.297 69.4307C126.145 70.0613 126.015 70.7 125.905 71.3427C127.439 72.2667 128.395 74.016 128.385 75.9653C128.376 78.212 127.096 80.3134 125.273 81.0774C125.175 81.1187 125.069 81.14 124.964 81.14Z" fill="#2C3958"/>
<path d="M60 129C60 129 50.5 164 94.5 167.5C138.5 165.5 131.5 129.5 131.5 129.5L155.5 140C158.301 141.895 172 148 168.5 154.14C168.5 154.14 178.894 155.566 165.5 160C194 185.45 107.184 185.95 89.5 185.95C70.0785 185.95 43.4496 172.077 30.5 167.5C19.1591 163.492 25.5 150 25.5 150C25.5 150 25.5241 145.882 30.5 142C31.5 140.5 34.4911 139.516 37 138.5C39.6 137.447 39.368 139.235 39.5 137.5L60 129Z" fill="#FF5E13"/>
</g>
</g>
<defs>
<filter id="filter0_d_2_566" x="0.608398" y="0.26532" width="193.129" height="193.128" filterUnits="userSpaceOnUse" color-interpolation-filters="sRGB">
<feFlood flood-opacity="0" result="BackgroundImageFix"/>
<feColorMatrix in="SourceAlpha" type="matrix" values="0 0 0 0 0 0 0 0 0 0 0 0 0 0 0 0 0 0 127 0" result="hardAlpha"/>
<feOffset dy="4"/>
<feGaussianBlur stdDeviation="2"/>
<feComposite in2="hardAlpha" operator="out"/>
<feColorMatrix type="matrix" values="0 0 0 0 0 0 0 0 0 0 0 0 0 0 0 0 0 0 0.25 0"/>
<feBlend mode="normal" in2="BackgroundImageFix" result="effect1_dropShadow_2_566"/>
<feBlend mode="normal" in="SourceGraphic" in2="effect1_dropShadow_2_566" result="shape"/>
</filter>
</defs>
</svg>
