<svg width="186" height="186" viewBox="0 0 186 186" fill="none" xmlns="http://www.w3.org/2000/svg">
<mask id="mask0_2_415" style="mask-type:luminance" maskUnits="userSpaceOnUse" x="0" y="0" width="186" height="186">
<path d="M185.737 92.8373C185.737 143.959 144.295 185.402 93.1729 185.402C42.0511 185.402 0.608398 143.959 0.608398 92.8373C0.608398 41.7147 42.0511 0.272012 93.1729 0.272012C144.295 0.272012 185.737 41.7147 185.737 92.8373Z" fill="white"/>
</mask>
<g mask="url(#mask0_2_415)">
<path d="M185.737 92.8373C185.737 143.959 144.295 185.402 93.1729 185.402C42.0511 185.402 0.608398 143.959 0.608398 92.8373C0.608398 41.7147 42.0511 0.272012 93.1729 0.272012C144.295 0.272012 185.737 41.7147 185.737 92.8373Z" fill="#FF5E13"/>
<path d="M122.976 67.4027C121.939 67.6373 120.835 68.1813 120.14 68.5653C120.057 68.2067 119.923 67.6373 119.772 66.9267C119.255 64.5093 118.509 60.396 118.552 56.9587C118.611 51.732 117.389 40.2827 110.064 39.8733C102.746 39.464 101.191 43.712 88.8896 43.712C76.588 43.712 75.0412 39.464 67.715 39.8733C60.3896 40.2827 59.1688 51.732 59.227 56.9587C59.2688 60.7627 58.3573 65.396 57.8557 67.6453C57.6713 68.4907 57.538 69 57.538 69C57.538 69 56.2584 68.164 54.8536 67.6627C54.8536 67.6627 46.0224 22.0867 88.8896 22.0867C129.875 22.0867 123.603 63.732 122.976 67.4027Z" fill="#3B4243"/>
<path d="M65.4213 113.851H65.5683C65.5683 113.851 65.5683 113.851 65.5683 113.864L65.4213 113.851Z" fill="#FAF3E7"/>
<path d="M108.368 112.344C109.608 109.664 110.381 107.531 110.688 106.624C110.408 107.557 109.688 109.731 108.368 112.344Z" fill="#FAF3E7"/>
<path d="M121.075 88.9706C119.581 89.2906 117.941 88.5706 117.008 88.0506C116.008 94.664 114.475 99.1706 113.675 101.051C113.195 102.144 111.701 104.557 110.768 106.157C107.861 111.064 104.101 116.264 97.1677 119.584C97.1677 119.584 94.4344 121.064 87.8745 121.064C81.3016 121.064 78.2349 118.771 78.2349 118.771C71.6078 114.997 68.1677 109.744 65.5948 105.104C64.9412 103.931 63.6614 102.211 63.3016 101.371C62.488 99.4773 61.0078 94.5973 60.1412 87.944C59.2614 88.464 57.4745 89.3173 55.888 88.9706C53.6478 88.4773 48.5412 83.064 48.9682 76.944C49.4078 70.8106 51.0614 67.384 52.9145 67.2906C53.5145 67.264 54.1948 67.424 54.8614 67.664C56.2614 68.1706 57.5412 69.0106 57.5412 69.0106C57.5412 69.0106 57.6745 68.4906 57.8614 67.6506C58.3546 65.3973 59.2745 60.7706 59.2349 56.9573C59.1677 51.7306 60.3948 40.2906 67.7145 39.8773C75.0478 39.464 76.5948 43.7173 88.888 43.7173C101.195 43.7173 102.755 39.464 110.061 39.8773C117.395 40.2906 118.608 51.7306 118.555 56.9573C118.515 60.3973 119.261 64.5173 119.781 66.9306V66.9706C119.928 67.664 120.061 68.224 120.141 68.5706C120.835 68.184 121.941 67.6373 122.981 67.4106C123.341 67.3173 123.701 67.2773 124.035 67.2906C125.901 67.384 127.555 70.8106 127.995 76.944C128.421 83.064 123.301 88.4773 121.075 88.9706Z" fill="#FAF3E7"/>
<path d="M180.329 185.548H-2.9516C-2.938 177.761 0.00840092 164.415 3.30213 154.641C5.27547 148.828 7.3688 144.281 9.03547 142.908C9.27547 142.708 9.54213 142.521 9.8484 142.335C13.062 140.268 19.7953 138.188 24.8088 136.815C28.3417 135.855 31.0084 135.241 31.0084 135.241C31.0084 135.241 34.2088 133.601 37.8088 131.975C40.4355 130.788 43.2885 129.615 45.3021 129.081C50.0751 127.801 56.8088 127.681 56.8088 127.681C56.8088 127.681 56.862 127.761 56.9817 127.935C58.1953 129.775 66.6088 141.241 88.6751 143.161C109.876 141.308 118.488 130.655 120.223 128.188C120.448 127.868 120.556 127.681 120.556 127.681C120.556 127.681 127.303 127.801 132.061 129.081C134.516 129.735 138.236 131.361 141.263 132.761C144.115 134.095 146.356 135.241 146.356 135.241C146.356 135.241 150.075 136.095 154.516 137.361C159.501 138.801 165.408 140.761 168.008 142.668C168.128 142.748 168.236 142.828 168.329 142.908C170.128 144.388 172.408 149.561 174.503 156.028C177.621 165.641 180.303 178.121 180.329 185.548Z" fill="#3B4243"/>
<path d="M95.4989 66.3279L95.2323 65.952C96.0505 63.2493 98.5421 61.3826 101.282 61.4933C105.409 61.7679 109.528 63.7546 111.808 67.2573L111.477 67.5786C109.023 66.2186 106.329 65.4 103.562 65.584C102.946 65.612 102.32 65.8133 101.751 66.016C99.7369 66.66 97.7328 66.5493 95.4989 66.3279Z" fill="#2C3958"/>
<path d="M64.6287 67.5786L64.3068 67.2573C66.5864 63.7453 70.6959 61.7679 74.8328 61.4933C77.5636 61.3826 80.0547 63.2493 80.8729 65.952L80.6156 66.3279C78.3817 66.5493 76.3683 66.66 74.364 66.016C73.7943 65.8133 73.1593 65.612 72.5437 65.584C69.7765 65.4093 67.0828 66.2186 64.6287 67.5786Z" fill="#2C3958"/>
<path d="M82.5921 89.184C82.676 89.176 82.7682 89.176 82.8598 89.184C83.788 89.2093 84.9838 89.736 85.6364 90.0707C87.6598 90.924 89.5084 90.4387 91.4484 89.468C91.8584 89.2933 92.3016 89.2266 92.7448 89.2093C93.5473 89.176 94.375 89.3093 95.0609 89.3187C96.0229 89.084 96.3406 87.788 96.6584 86.9013C97.1516 88.4987 96.6917 90.7147 94.7098 90.9493C93.8317 91.0747 93.0202 91.108 92.2682 91.5173C92.0505 91.6347 91.5906 91.9613 91.114 92.212C89.1317 93.2733 86.5978 93.2813 84.6161 92.212C83.663 91.6853 83.3448 91.3413 82.4 91.1493C81.388 90.9733 80.0084 90.9987 79.3645 89.9787C78.7536 88.984 78.8208 87.9387 79.0718 86.9013C79.214 87.3693 79.3729 87.8213 79.5734 88.2227C80.3177 89.8613 81.1036 89.176 82.5921 89.184Z" fill="#2C3958"/>
<path d="M120.221 128.197C118.488 130.664 109.875 141.317 88.6745 143.157C66.6079 141.237 58.1948 129.771 56.9812 127.931C58.4615 127.331 59.5683 126.797 60.1145 126.397C62.6745 124.544 65.0344 118.931 65.4213 113.851L65.5683 113.864C65.5683 113.864 65.5683 113.864 65.5683 113.877C65.9412 114.464 75.2213 129.331 88.888 127.677C99.1546 126.437 105.061 118.717 108.101 112.877C108.195 112.691 108.288 112.517 108.368 112.344C109.688 109.731 110.408 107.557 110.688 106.624C110.701 106.611 110.701 106.597 110.701 106.571C110.741 106.491 110.755 106.424 110.768 106.357C110.795 106.304 110.808 106.252 110.808 106.211C110.835 106.171 110.835 106.144 110.835 106.144C110.835 106.144 111.781 122.744 116.835 126.397C117.581 126.931 118.755 127.544 120.221 128.197Z" fill="#FAF3E7"/>
<path d="M60.1412 87.1453C60.2609 87.1453 60.3807 87.1707 60.4912 87.2253C60.7333 87.3427 60.8995 87.5747 60.9349 87.8414C61.8188 94.6307 63.3 99.3414 64.036 101.056C64.2104 101.463 64.6995 102.205 65.1724 102.925C65.5803 103.547 65.9984 104.185 66.2932 104.715C68.9599 109.525 72.3 114.472 78.6307 118.076C78.7401 118.149 81.6958 120.264 87.875 120.264C94.0921 120.264 96.7645 118.893 96.7906 118.879C103.556 115.639 107.173 110.655 110.08 105.751C110.313 105.351 110.585 104.893 110.867 104.419C111.681 103.052 112.603 101.503 112.941 100.729C113.285 99.9213 115.077 95.4653 116.216 87.9307C116.256 87.672 116.42 87.448 116.655 87.3334C116.891 87.2187 117.167 87.2254 117.397 87.352C118.165 87.7787 119.64 88.456 120.905 88.1907C122.644 87.8 127.597 82.748 127.196 77C126.735 70.5574 125.028 68.1414 123.993 68.0907C123.741 68.08 123.461 68.112 123.183 68.1867C122.164 68.4094 121.085 68.96 120.531 69.2694C120.312 69.3907 120.047 69.4027 119.817 69.3027C119.587 69.2 119.419 68.996 119.361 68.7507L119.321 68.5747C119.239 68.224 119.124 67.728 118.999 67.1387C118.987 67.084 118.981 67.028 118.981 66.972C118.516 64.8574 117.712 60.556 117.755 56.948C117.771 55.3294 117.695 41.108 110.016 40.676C106.878 40.504 104.9 41.2107 102.406 42.1134C99.4442 43.184 95.7584 44.5174 88.8875 44.5174C82.0307 44.5174 78.3505 43.1867 75.3937 42.116C72.8959 41.212 70.9145 40.496 67.7593 40.676C61.5016 41.0293 59.9593 51.0707 60.0349 56.9467C60.0719 60.5107 59.2979 64.828 58.6421 67.8214C58.4516 68.68 58.3167 69.208 58.3167 69.208C58.2527 69.4587 58.0713 69.6627 57.8312 69.7574C57.5901 69.848 57.3193 69.8213 57.1027 69.68C57.0912 69.672 55.8792 68.8827 54.5891 68.4174C53.9349 68.1814 53.3927 68.0747 52.9489 68.0907C51.926 68.1427 50.2281 70.5574 49.7661 77.0014C49.3573 82.8627 54.2688 87.796 56.0593 88.1907C57.4849 88.504 59.2307 87.5534 59.7333 87.256C59.8584 87.1814 60 87.1453 60.1412 87.1453ZM87.875 121.864C81.113 121.864 77.8896 119.512 77.7557 119.412C71.1656 115.667 67.6745 110.504 64.8948 105.492C64.6177 104.993 64.2208 104.392 63.8349 103.805C63.3005 102.991 62.7958 102.223 62.5661 101.687C61.8396 99.9947 60.4213 95.5374 59.5027 89.1747C58.4536 89.6454 57.0604 90.048 55.7172 89.7534C52.8693 89.1254 47.7255 83.2614 48.1697 76.888C48.6281 70.504 50.3864 66.6174 52.874 66.4907C53.524 66.4774 54.2667 66.5987 55.1317 66.912C55.8339 67.1653 56.5016 67.4934 57.014 67.772C57.0349 67.68 57.0573 67.5813 57.0803 67.4787C57.7172 64.5667 58.4703 60.3774 58.4349 56.9654C58.412 55.192 58.4776 39.5974 67.6697 39.08C71.1584 38.8787 73.374 39.684 75.938 40.6107C78.9255 41.6933 82.3115 42.9187 88.8875 42.9187C95.4776 42.9187 98.8693 41.6907 101.862 40.608C104.421 39.6827 106.637 38.8774 110.105 39.08C117.063 39.4707 119.436 48.9587 119.355 56.9654C119.315 60.4187 120.095 64.5867 120.563 66.7627C120.575 66.8173 120.581 66.8747 120.581 66.9307C120.616 67.0827 120.652 67.2374 120.687 67.3894C121.332 67.0854 122.077 66.7894 122.811 66.6307C123.215 66.5254 123.647 66.4734 124.065 66.4907C126.571 66.6174 128.335 70.5027 128.793 76.8867C129.236 83.256 124.093 89.1214 121.248 89.7534C121.245 89.7534 121.244 89.7547 121.241 89.7547C119.988 90.0187 118.696 89.6987 117.628 89.2467C116.493 96.1267 114.893 100.231 114.411 101.365C114.028 102.236 113.12 103.761 112.241 105.237C111.963 105.707 111.693 106.159 111.46 106.56C108.567 111.441 104.651 116.888 97.5136 120.307C97.4297 120.353 94.5604 121.864 87.875 121.864Z" fill="#2C3958"/>
<path d="M120.22 128.999C120.112 128.999 120.001 128.976 119.896 128.928C118.317 128.225 117.131 127.592 116.369 127.048C112.561 124.296 110.977 115.104 110.372 109.88C110.025 110.727 109.599 111.683 109.081 112.704C109.036 112.807 108.971 112.932 108.905 113.063L108.817 113.236C105.559 119.492 99.4797 127.204 88.9833 128.472C77.4599 129.867 68.9651 119.981 65.9797 115.891C65.2011 120.639 62.9984 125.297 60.5833 127.045C60.0031 127.472 58.8907 128.02 57.2817 128.672C56.8735 128.839 56.4063 128.641 56.2396 128.232C56.0735 127.821 56.2703 127.356 56.6803 127.191C58.6292 126.4 59.3713 125.951 59.6412 125.753C62.0193 124.032 64.2527 118.665 64.6235 113.789C64.6396 113.576 64.7412 113.376 64.9063 113.239C65.0719 113.099 65.288 113.043 65.4984 113.053L65.6459 113.068C65.9364 113.096 66.1781 113.279 66.2937 113.529C67.5011 115.411 76.3125 128.407 88.7917 126.883C98.5953 125.7 104.318 118.413 107.392 112.508L107.48 112.335C107.536 112.224 107.592 112.116 107.641 112.008C108.967 109.383 109.676 107.211 109.921 106.396C109.935 106.331 109.959 106.267 109.988 106.208C109.995 106.171 110.005 106.132 110.016 106.092C110.028 106.02 110.048 105.949 110.079 105.881C110.184 105.577 110.471 105.355 110.812 105.345C111.253 105.357 111.608 105.667 111.633 106.099C111.891 110.611 113.413 122.937 117.303 125.749C117.975 126.229 119.067 126.808 120.547 127.468C120.951 127.647 121.132 128.12 120.952 128.524C120.82 128.821 120.527 128.999 120.22 128.999Z" fill="#2C3958"/>
<path d="M110.835 106.144C110.835 106.144 110.821 106.171 110.808 106.211C110.808 106.252 110.795 106.304 110.768 106.357C110.755 106.411 110.728 106.477 110.701 106.571C110.701 106.597 110.701 106.611 110.688 106.624C110.408 107.557 109.688 109.731 108.368 112.344C108.288 112.517 108.195 112.691 108.101 112.877C105.061 118.717 99.1546 126.437 88.888 127.677C75.2213 129.331 65.9412 114.464 65.5683 113.877C65.5683 113.864 65.5683 113.864 65.5683 113.864L65.4213 113.851C65.7145 110.037 65.6478 106.504 65.5948 105.104C68.1677 109.744 71.6079 114.997 78.2349 118.771C78.2349 118.771 81.3016 121.064 87.8745 121.064C94.4344 121.064 97.1677 119.584 97.1677 119.584C104.101 116.264 107.861 111.064 110.768 106.157L110.835 106.144Z" fill="#2C3958"/>
<path d="M56.0287 78.804C55.3156 79.488 54.8921 80.4986 54.8973 81.6053C54.9027 82.7266 55.3693 83.844 56.074 84.5773C56.2469 82.6626 56.2307 80.7173 56.0287 78.804ZM56.7188 86.788C56.6136 86.788 56.5088 86.768 56.4093 86.7266C54.5875 85.964 53.3084 83.8613 53.2973 81.6133C53.288 79.6653 54.2448 77.916 55.7792 76.9906C55.6697 76.348 55.5391 75.7106 55.3869 75.0813C55.2068 74.3373 54.9864 73.568 54.6031 72.9826C54.274 72.48 53.8109 72.168 53.4459 72.1813C53.1323 72.1946 52.7593 72.5493 52.7479 72.988C52.736 73.4293 52.3495 73.7346 51.9276 73.7666C51.4855 73.756 51.1369 73.388 51.1489 72.9466C51.1812 71.6933 52.1828 70.632 53.3792 70.5826C54.3473 70.5413 55.2901 71.112 55.9412 72.1053C56.4584 72.8933 56.7276 73.82 56.9417 74.704C57.1473 75.556 57.3161 76.4213 57.4473 77.2946C57.4505 77.3106 57.4527 77.324 57.4541 77.34C57.8839 80.228 57.9063 83.2093 57.5109 86.096C57.4776 86.3426 57.3312 86.56 57.1156 86.6826C56.9927 86.7533 56.8557 86.788 56.7188 86.788Z" fill="#2C3958"/>
<path d="M121.173 78.5867C120.971 80.5 120.955 82.444 121.128 84.36C121.832 83.6267 122.299 82.5093 122.304 81.388C122.309 80.2813 121.887 79.2707 121.173 78.5867ZM120.484 86.5707C120.347 86.5707 120.209 86.5347 120.087 86.4653C119.871 86.3427 119.724 86.1253 119.691 85.8787C119.295 82.9893 119.319 80.004 119.748 77.1133C119.749 77.104 119.751 77.0947 119.753 77.0867C119.884 76.208 120.053 75.34 120.26 74.4867C120.473 73.6027 120.743 72.6773 121.261 71.8867C121.913 70.892 122.849 70.3213 123.824 70.3653C125.019 70.4147 126.02 71.476 126.053 72.7293C126.065 73.1707 125.716 73.5373 125.275 73.5493C124.841 73.5453 124.465 73.212 124.455 72.7707C124.443 72.332 124.069 71.9773 123.756 71.964C123.373 71.9813 122.929 72.2627 122.599 72.764C122.215 73.3507 121.995 74.12 121.815 74.864C121.663 75.492 121.532 76.1307 121.423 76.7733C122.957 77.6987 123.913 79.4467 123.905 81.396C123.893 83.644 122.615 85.7467 120.793 86.5093C120.693 86.5507 120.588 86.5707 120.484 86.5707Z" fill="#2C3958"/>
<path d="M109.019 76.4132C110.251 75.1999 109.847 73.4719 108.957 72.7546C108.533 72.3906 107.624 72.2279 107.108 72.0772C106.906 72.0266 106.694 71.9866 106.492 71.9452C106.775 72.3999 106.936 72.9253 106.936 73.5026C106.936 75.1693 105.592 76.5239 103.925 76.5239C102.257 76.5239 100.913 75.1693 100.913 73.5026C100.913 72.9053 101.084 72.3493 101.398 71.8853C99.5281 72.1373 97.6683 72.6933 95.8489 73.4013C96.9104 72.0973 98.376 71.1679 99.9625 70.5306C102.752 69.3586 106.087 69.4493 108.847 70.7226C111.252 71.6319 111.656 75.6239 109.019 76.4132Z" fill="#2C3958"/>
<path d="M80.224 73.4013C78.4145 72.6933 76.5547 72.1479 74.6855 71.8853C74.9885 72.3493 75.1604 72.9053 75.1604 73.5026C75.1604 75.1693 73.8161 76.5239 72.1484 76.5239C70.4806 76.5239 69.1265 75.1693 69.1265 73.5026C69.1265 72.9253 69.2885 72.3999 69.5713 71.9452C69.3693 71.9866 69.1568 72.0266 68.9546 72.0772C68.4396 72.2279 67.5401 72.3906 67.115 72.7546C66.2161 73.4719 65.812 75.1999 67.0546 76.4132C64.4172 75.6239 64.8213 71.6319 67.2265 70.7226C69.986 69.4493 73.3208 69.3586 76.1104 70.5306C77.6869 71.1679 79.1527 72.0973 80.224 73.4013Z" fill="#2C3958"/>
<path d="M117.005 88.8467C116.989 88.8467 116.973 88.8467 116.959 88.8453C116.517 88.82 116.18 88.4414 116.205 88.0014L116.897 76.052C116.923 75.6107 117.307 75.26 117.741 75.3C118.183 75.324 118.52 75.7027 118.495 76.144L117.803 88.092C117.779 88.5187 117.425 88.8467 117.005 88.8467Z" fill="#2C3958"/>
<path d="M60.1369 88.74C59.7208 88.74 59.3703 88.42 59.3396 87.9973L58.5193 76.5813C58.488 76.1413 58.8193 75.7573 59.2599 75.7253C59.7093 75.6933 60.0839 76.0253 60.1156 76.4667L60.936 87.8826C60.9672 88.3226 60.636 88.7067 60.1953 88.7387C60.1755 88.74 60.1563 88.74 60.1369 88.74Z" fill="#2C3958"/>
<path d="M95.3625 102.824C94.3172 104.145 92.6614 105.032 90.8046 105.476V105.484C88.8896 105.944 86.7489 105.936 84.8421 105.459C83.0193 105.007 81.3969 104.129 80.3683 102.824C81.5973 103.409 82.8432 103.669 84.0896 103.869C87.8609 104.296 91.7917 104.355 95.3625 102.824Z" fill="#2C3958"/>
<path d="M93.5978 97.752C95.6046 98.6893 97.5787 99.116 97.5787 99.116C97.5787 99.116 96.0062 100.445 87.8609 100.445C79.724 100.445 78.1521 99.116 78.1521 99.116C78.1521 99.116 80.1254 98.6893 82.1328 97.752C84.1312 96.824 85.1432 97.4013 87.8609 97.4013C90.5786 97.4013 91.5906 96.824 93.5978 97.752Z" fill="#2C3958"/>
<path d="M123.68 57.304C122.987 54.704 123.045 48.8986 122.352 46.2973C119.432 50.8986 115.195 54.224 110.101 56.1706C112.128 51.8906 112.461 46.824 111.021 42.304C106.581 50.6106 99.3547 57.4106 90.7677 61.304C92.9281 56.9186 93.9948 52.0106 93.8479 47.1306C90.7547 52.6106 86.0079 57.144 80.3812 59.9573C82.3016 55.8773 83.3677 51.3973 83.4745 46.8906C80.2745 53.3706 73.8344 58.1439 66.7145 59.3306C69.0344 55.2519 70.5547 50.7173 71.1677 46.0773C67.5812 52.7306 60.9281 57.664 53.5011 59.1573C49.7412 55.4373 48.9948 43.984 51.0615 39.104C52.3948 35.9186 54.9145 33.3973 57.3677 30.9573C61.1011 27.2373 64.8344 23.5306 68.5683 19.8239C70.1281 18.2639 71.7281 16.6906 73.7011 15.7173C76.4344 14.3439 79.6615 14.2639 82.6479 14.8906C85.3812 15.4506 87.9683 16.5706 90.5281 17.7306C93.3281 16.4106 96.5011 15.8239 99.5281 16.4506C102.221 17.0106 104.608 18.4773 106.941 19.9186C110.475 22.1039 114.008 24.2906 117.141 27.0106C120.261 29.7306 122.981 33.0106 124.488 36.8773C126.581 42.224 129.139 49.428 123.68 57.304Z" fill="#3B4243"/>
<path d="M64.3068 185.548L59.3177 123.08C59.3177 123.08 40.9213 123.521 35.9651 129.381C31.0084 135.241 6.06506 135.805 4.33546 143.219C2.60572 150.632 -4.67868 169.807 -2.95161 185.548H64.3068Z" fill="#00225A"/>
<path d="M113.364 185.548L118.353 123.08C118.353 123.08 136.749 123.521 141.705 129.381C146.661 135.241 171.605 135.805 173.335 143.219C175.065 150.632 182.349 169.807 180.621 185.548H113.364Z" fill="#00225A"/>
<path d="M54.1021 184.36C53.762 184.36 53.4469 184.141 53.3391 183.8L37.0453 132.215C36.9125 131.793 37.1464 131.344 37.5677 131.211C37.9896 131.079 38.438 131.312 38.5713 131.733L54.865 183.317C54.9978 183.74 54.764 184.189 54.3427 184.321C54.2631 184.347 54.1812 184.36 54.1021 184.36Z" fill="#FDFAED"/>
<path d="M123.68 183.432C123.603 183.432 123.524 183.421 123.447 183.397C123.024 183.268 122.787 182.821 122.915 182.398L138.613 130.877C138.741 130.456 139.189 130.216 139.611 130.345C140.033 130.475 140.272 130.921 140.143 131.344L124.445 182.865C124.34 183.209 124.023 183.432 123.68 183.432Z" fill="#FDFAED"/>
<path d="M65.5683 114.664C65.5677 114.664 65.5667 114.664 65.5656 114.664C65.124 114.663 64.7667 114.304 64.7683 113.863L64.7948 105.101C64.7959 104.66 65.1541 104.305 65.5948 104.305C65.5953 104.305 65.5964 104.305 65.5973 104.305C66.039 104.307 66.3964 104.665 66.3948 105.107L66.3683 113.868C66.3672 114.309 66.0088 114.664 65.5683 114.664Z" fill="#2C3958"/>
</g>
</svg>
