<svg width="186" height="186" viewBox="0 0 186 186" fill="none" xmlns="http://www.w3.org/2000/svg">
<mask id="mask0_2_364" style="mask-type:luminance" maskUnits="userSpaceOnUse" x="0" y="0" width="186" height="186">
<path d="M185.897 92.8373C185.897 143.959 144.455 185.402 93.3333 185.402C42.212 185.402 0.769318 143.959 0.769318 92.8373C0.769318 41.7147 42.212 0.272012 93.3333 0.272012C144.455 0.272012 185.897 41.7147 185.897 92.8373Z" fill="white"/>
</mask>
<g mask="url(#mask0_2_364)">
<path d="M185.897 92.8373C185.897 143.959 144.455 185.402 93.3333 185.402C42.212 185.402 0.769318 143.959 0.769318 92.8373C0.769318 41.7147 42.212 0.272012 93.3333 0.272012C144.455 0.272012 185.897 41.7147 185.897 92.8373Z" fill="#00225A"/>
<path d="M167.497 182.452H147.945C136.062 165.484 137.785 139.635 138.562 132.351C138.57 132.267 138.578 132.184 138.578 132.1C138.578 132.067 138.578 132.033 138.57 132C141.589 133.22 144.308 134.308 145.796 134.876C150.445 136.657 157.186 140.22 159.126 146.809C161.066 153.4 167.497 182.452 167.497 182.452Z" fill="#FF5E13"/>
<path d="M135.84 133.031C135.453 133.391 135.187 133.884 135.107 134.444C133.84 143.511 126.813 170.817 88.4133 170.897H88.24C49.84 170.817 42.8267 143.511 41.5467 134.444C41.4667 133.911 41.2133 133.431 40.8666 133.071C43.72 131.924 57.0666 126.177 62.6666 123.777C63.4133 123.364 64.1333 122.937 64.8133 122.484C66.84 121.191 68.4933 119.791 69.2133 118.404C69.96 116.964 70.4666 115.071 70.7866 113.071C70.7866 113.071 75.44 121.684 88.32 118.311C101.213 114.951 105.413 104.324 105.413 104.324C105.413 107.831 105.68 114.684 107.627 118.404C107.76 118.657 108.704 120.616 108.891 120.883C110.411 121.709 117.707 125.604 119.213 126.284C122.813 127.897 125.827 128.937 125.827 128.937C125.827 128.937 126.707 129.297 128.107 129.871C130 130.644 132.853 131.817 135.84 133.031Z" fill="#FAF3E7"/>
<path d="M122.869 77.1694C122.869 77.1961 122.869 77.2094 122.856 77.2227V77.2361C122.283 78.7827 121.403 79.9027 120.429 80.676C119.923 81.0894 119.389 81.4094 118.869 81.6627C118.161 82.0094 117.483 82.2094 116.883 82.3427C115.816 82.596 115.069 82.5694 115.069 82.5694L114.669 82.516C114.883 81.116 115.081 79.716 115.256 78.3427C115.323 77.8894 115.376 77.436 115.429 76.996C115.441 76.876 115.456 76.7694 115.468 76.6494C115.536 76.1694 115.589 75.6894 115.643 75.2227C115.763 74.2894 115.856 73.3694 115.949 72.4894C116.069 71.4227 116.161 70.4094 116.256 69.4361C116.323 68.6894 116.389 67.9694 116.456 67.2894C116.483 66.9561 116.509 66.6227 116.536 66.3027C116.616 65.3561 116.683 64.5027 116.736 63.7827C117.029 63.996 117.336 64.2094 117.643 64.4094C118.456 63.9827 120.309 63.116 121.736 63.2627C121.909 63.276 122.069 63.3427 122.216 63.476C122.563 63.7694 122.869 64.3294 123.123 65.076C124.069 67.836 124.296 73.1961 122.869 77.1694Z" fill="#FAF3E7"/>
<path d="M123.589 62.4627C123.456 63.3427 123.309 64.2094 123.123 65.076C122.869 64.3294 122.563 63.7694 122.216 63.476C122.069 63.3427 121.909 63.276 121.736 63.2627C120.309 63.116 118.456 63.9827 117.643 64.4094C117.336 64.2094 117.029 63.996 116.736 63.7827C108.256 57.8227 102.216 48.3827 100.775 38.196C100.576 36.7694 100.456 35.3427 100.456 33.8894C100.081 35.5027 99.496 37.0494 98.748 38.5294C97.6827 40.596 96.296 42.5027 94.7626 44.2494C92.0426 47.3027 88.8293 49.8494 85.6293 52.396C85.816 47.2494 87.3493 42.156 90.016 37.7427C87.1627 41.396 83.2827 44.196 78.976 45.8494C76.456 46.8494 73.7893 47.436 71.096 47.5827C70.7226 48.3694 70.2693 49.116 69.7747 49.836C69.816 49.6894 69.8826 49.556 69.936 49.4094C69.816 49.6627 69.696 49.9027 69.5493 50.156C67.0813 55.0627 63.8013 59.5694 59.8827 63.4227C59.736 63.8227 59.6293 64.236 59.536 64.6627C59.536 64.596 59.5226 64.5294 59.5226 64.476C59.3893 64.4094 59.2293 64.3294 59.0427 64.236C58.1227 63.7827 56.5627 63.1294 55.3093 63.2627C55.296 63.2627 55.296 63.2627 55.296 63.2627C54.456 63.3427 53.7627 64.9827 53.4147 67.2627C48.108 55.956 50.0693 41.636 58.108 32.1027C56.4413 32.196 54.736 31.5427 53.616 30.3027C62.176 27.7427 67.936 19.5294 76.2026 16.1027C83.7746 12.9427 93.0693 14.4627 99.256 19.8627L99.2827 20.0627C104.643 19.1827 110.216 21.5027 114.123 25.276C118.056 29.0627 120.495 34.1694 122.029 39.4094C124.229 46.8627 124.763 54.796 123.589 62.4627Z" fill="#3B4243"/>
<path d="M71.4293 104.516C71.4293 105.023 71.4146 105.596 71.3893 106.223C66.748 103.623 63.216 99.0893 61.8293 93.956C61.9226 94.916 61.4826 95.916 60.696 96.4893C61.056 91.5827 60.4147 86.6093 58.8427 81.956C58.8827 81.9693 58.9093 81.9826 58.9493 81.996C60.0427 82.396 61.016 82.5293 61.536 82.556C61.8293 84.436 62.1346 86.316 62.496 88.1426C62.6826 89.1426 62.936 90.156 63.2427 91.1426C63.736 92.7293 64.3626 94.2893 65.096 95.796C66.7093 99.036 68.8693 102.023 71.4293 104.516Z" fill="#3B4243"/>
<path d="M116.736 63.7827C116.683 64.5027 116.616 65.356 116.536 66.3027C116.509 66.6227 116.483 66.956 116.456 67.2894C116.389 67.9694 116.323 68.6894 116.256 69.436C116.161 70.4094 116.069 71.4227 115.949 72.4894C115.856 73.3694 115.763 74.2894 115.643 75.2227C115.589 75.6894 115.536 76.1694 115.468 76.6494C115.456 76.7694 115.441 76.876 115.429 76.996C115.376 77.436 115.323 77.8893 115.256 78.3427C115.081 79.716 114.883 81.116 114.669 82.516C114.389 84.4094 114.056 86.3027 113.709 88.1427C112.949 92.156 111.269 96.0494 108.936 99.5027C108.789 99.7294 108.643 99.956 108.483 100.169C107.549 101.489 106.523 102.729 105.415 103.876C100.723 108.716 94.6027 111.916 88.096 111.916C81.8827 111.916 76.016 108.996 71.4293 104.516C68.8693 102.023 66.7093 99.036 65.096 95.796C64.3627 94.2893 63.736 92.7293 63.2427 91.1427C62.936 90.156 62.6827 89.1427 62.496 88.1427C62.1347 86.316 61.8293 84.436 61.536 82.556C60.468 75.6094 59.8427 68.716 59.536 64.6627C59.6293 64.236 59.736 63.8227 59.8827 63.4227C63.8014 59.5694 67.0814 55.0627 69.5494 50.156C69.6294 50.0494 69.7093 49.9427 69.7747 49.836C70.2693 49.116 70.7227 48.3694 71.096 47.5827C73.7893 47.436 76.456 46.8494 78.976 45.8494C83.2827 44.196 87.1627 41.396 90.016 37.7427C87.3494 42.156 85.816 47.2493 85.6293 52.396C88.8293 49.8493 92.0427 47.3027 94.7627 44.2494C96.296 42.5027 97.6827 40.596 98.748 38.5294C99.496 37.0494 100.081 35.5027 100.456 33.8893C100.456 35.3427 100.576 36.7694 100.775 38.196C102.216 48.3827 108.256 57.8227 116.736 63.7827Z" fill="#FAF3E7"/>
<path d="M61.536 82.556C61.016 82.5294 60.0427 82.396 58.9493 81.996C58.9093 81.9827 58.8827 81.9694 58.8427 81.956C57.656 81.5027 56.336 80.7027 55.296 79.316C54.856 78.716 54.468 78.0094 54.176 77.1694C53.0693 74.076 52.9627 70.156 53.4147 67.2627C53.7627 64.9827 54.456 63.3427 55.296 63.2627C55.296 63.2627 55.296 63.2627 55.3093 63.2627C56.5627 63.1294 58.1227 63.7827 59.0427 64.236C59.2293 64.3294 59.3893 64.4094 59.5226 64.476C59.5226 64.5294 59.536 64.596 59.536 64.6627C59.8427 68.716 60.468 75.6094 61.536 82.556Z" fill="#FAF3E7"/>
<path d="M59.516 64.4786C59.3907 64.412 59.2307 64.328 59.0387 64.236C59.1813 64.1026 59.3227 63.968 59.4653 63.8346C59.4827 64.0346 59.4987 64.252 59.516 64.4786Z" fill="#FAF3E7"/>
<path d="M37.7027 132.051C38.472 139.335 40.2027 165.184 28.32 182.152H8.94266C8.94266 182.152 15.3827 153.1 17.3147 146.509C19.2547 139.92 25.9947 136.357 30.644 134.576C32.1 134.016 34.7426 132.963 37.6853 131.775C37.6853 131.783 37.6853 131.783 37.6853 131.792C37.6853 131.875 37.6947 131.959 37.7027 132.051Z" fill="#FF5E13"/>
<path d="M139.976 134.796C139.976 134.889 139.963 134.969 139.963 135.049V134.743C139.976 134.756 139.976 134.783 139.976 134.796Z" fill="#AAA5EB"/>
<path d="M91.2853 89.248C92.632 88.8134 96.8466 93.004 100.451 92.0747C100.451 92.0747 96.98 94.6254 87.8653 94.6254C78.7586 94.6254 75.288 92.0747 75.288 92.0747C78.884 93.004 83.1067 88.8134 84.4453 89.248C85.7907 89.684 87.8653 91.7747 87.8653 91.7747C87.8653 91.7747 89.9386 89.684 91.2853 89.248Z" fill="#AAA5EB"/>
<path d="M87.8653 97.5067C90.2146 97.456 92.3133 97.4653 94.572 96.504C92.648 101.203 83.0813 101.212 81.1586 96.504C83.424 97.4653 85.524 97.456 87.8653 97.5067Z" fill="#2C3958"/>
<path d="M105.415 103.876V104.329C105.415 104.329 105.415 104.343 105.403 104.356C105.389 104.383 105.376 104.409 105.363 104.449C105.336 104.516 105.296 104.609 105.229 104.743C105.189 104.823 105.149 104.929 105.096 105.036C105.029 105.156 104.976 105.276 104.896 105.409C104.748 105.703 104.549 106.063 104.323 106.449C104.161 106.716 103.989 106.996 103.801 107.289C103.775 107.329 103.763 107.356 103.736 107.396C103.549 107.663 103.363 107.943 103.149 108.236C102.736 108.809 102.256 109.423 101.709 110.063C101.616 110.169 101.509 110.276 101.415 110.383C101.256 110.556 101.096 110.743 100.936 110.916C100.829 111.023 100.736 111.129 100.629 111.236C100.243 111.623 99.8427 112.023 99.4027 112.409C98.9627 112.809 98.496 113.196 98.0027 113.583C97.5093 113.969 96.9893 114.343 96.4293 114.716C95.6026 115.263 94.7093 115.783 93.748 116.276C93.108 116.596 92.4293 116.903 91.7226 117.196C91.1626 117.423 90.576 117.636 89.976 117.823C89.7227 117.916 89.468 117.996 89.216 118.063C88.9227 118.156 88.6293 118.236 88.3226 118.316C86.216 118.863 84.3227 119.103 82.6427 119.103C82.2427 119.103 81.856 119.089 81.4827 119.063C81.468 119.063 81.456 119.063 81.456 119.063H81.4027C81.2293 119.049 81.0693 119.036 80.896 119.009C80.7226 118.996 80.536 118.983 80.3626 118.956C80.056 118.916 79.7627 118.863 79.4827 118.809C79.0813 118.729 78.7093 118.636 78.3493 118.543C77.936 118.436 77.536 118.303 77.1626 118.156C76.4026 117.876 75.7227 117.543 75.108 117.196C74.8013 117.009 74.5226 116.836 74.256 116.649C74.108 116.556 73.9893 116.463 73.856 116.369C73.3493 115.996 72.9093 115.609 72.536 115.249C72.4027 115.116 72.2693 114.983 72.1493 114.849C72.056 114.756 71.976 114.663 71.896 114.569C71.816 114.476 71.736 114.383 71.6693 114.303C71.5227 114.129 71.4026 113.969 71.296 113.823L71.2827 113.809C71.216 113.716 71.1493 113.623 71.096 113.556C71.0426 113.476 71.0026 113.409 70.9626 113.343C70.8826 113.223 70.8293 113.129 70.8013 113.089C70.7893 113.076 70.7893 113.076 70.7893 113.076V113.063C71.1893 110.716 71.336 108.223 71.3893 106.223C71.4146 105.596 71.4293 105.023 71.4293 104.516C76.016 108.996 81.8826 111.916 88.096 111.916C94.6026 111.916 100.723 108.716 105.415 103.876Z" fill="#FAF3E7"/>
<path d="M81.8587 82.968C82.7293 82.884 83.1827 82.1573 84.1427 82.2987C84.2694 82.324 84.388 82.3574 84.484 82.408C84.7147 82.492 84.864 82.608 84.976 82.6667C86.4707 83.512 88.4427 83.336 90.064 83.136C90.6373 83.0774 91.172 82.676 91.7227 82.4414C92.1467 82.2654 92.5787 82.1907 93.048 82.4333C94.0214 82.9347 95.3613 83.6627 95.5173 81.848C96.3733 83.6627 94.572 84.532 93.1814 84.2813C93.1 84.2893 92.46 84.1053 92.4667 84.2307C90.8973 85.996 87.8627 86.0627 85.704 85.444C85.288 85.3013 84.856 85.1174 84.4627 84.8414C84.0907 84.5734 83.6587 84.1813 83.7933 84.2307C83.808 84.2147 83.7853 84.172 83.636 84.1894C83.0413 84.3067 82.3427 84.3893 81.7693 84.1973C80.728 83.988 80.2067 82.8507 80.7494 81.848C80.8387 82.6173 81.144 83.1854 81.8587 82.968Z" fill="#2C3958"/>
<path d="M118.869 81.6627C117.856 88.5427 114.243 95.0094 108.936 99.5027C111.269 96.0494 112.949 92.156 113.709 88.1427C114.056 86.3027 114.389 84.4093 114.669 82.516L115.069 82.5694C115.069 82.5694 115.816 82.596 116.883 82.3427C117.483 82.2093 118.161 82.0093 118.869 81.6627Z" fill="#3B4243"/>
<path d="M79.176 67.3854C77.536 66.9347 75.9307 66.5587 74.3253 66.3827C74.7853 66.8921 75.0613 67.5787 75.0613 68.3147C75.0613 69.9281 73.7573 71.2334 72.1427 71.2334C70.5293 71.2334 69.224 69.9281 69.224 68.3147C69.224 67.6374 69.4587 67.0014 69.86 66.5081C69.7267 66.5241 69.6 66.5494 69.4667 66.5747C68.9733 66.7334 68.4293 66.7507 67.9787 67.0267C67.292 67.4774 66.724 68.7987 67.7107 70.0041C65.812 69.6361 65.3693 67.1014 66.556 65.6721C70.044 62.4107 76.5413 63.5721 79.176 67.3854Z" fill="#2C3958"/>
<path d="M108.02 70.0041C108.997 68.7987 108.437 67.4774 107.744 67.0267C107.149 66.7507 106.515 66.6001 105.861 66.5001C106.263 66.9934 106.497 67.6281 106.497 68.3147C106.497 69.9281 105.193 71.2334 103.579 71.2334C101.973 71.2334 100.66 69.9281 100.66 68.3147C100.66 67.5787 100.936 66.8921 101.396 66.3827C99.7906 66.5587 98.2013 66.9347 96.5467 67.3854C99.188 63.5721 105.687 62.4107 109.173 65.6721C110.353 67.1014 109.917 69.6361 108.02 70.0041Z" fill="#2C3958"/>
<path d="M113.121 61.7827L112.811 62.068C110.913 60.8627 108.805 60.2947 106.632 60.1187C105.687 60.0853 104.716 60.0933 103.788 60.2107C102.283 60.4027 100.945 61.164 99.4147 61.2813C97.708 61.448 96.136 61.608 94.296 61.3067L94.104 60.9387C94.5893 60.052 95.2333 59.3413 95.9187 58.7053C96.6547 58.1533 97.424 57.6107 98.2773 57.2587C100.853 56.2053 103.872 56.7907 106.505 57.376C109.073 58.112 111.565 59.6173 113.121 61.7827Z" fill="#2C3958"/>
<path d="M69.0986 60.1187C66.924 60.2947 64.8173 60.8627 62.9106 62.068L62.6093 61.7827C64.7253 58.848 68.38 57.208 71.9426 56.8653C73.7653 56.6987 75.7466 56.456 77.4533 57.2587C78.3066 57.6107 79.076 58.1533 79.8026 58.7053C80.4973 59.3413 81.1333 60.052 81.6266 60.9387L81.4333 61.3067C78.8573 61.6413 76.5253 61.4987 74.1253 60.788C72.536 60.136 70.8053 60.052 69.0986 60.1187Z" fill="#2C3958"/>
<path d="M117.431 65.1827C117.4 65.5587 117.367 65.9561 117.332 66.3707L117.252 67.3547C117.185 68.0454 117.12 68.764 117.052 69.5094L117.023 69.812C116.939 70.6987 116.852 71.6174 116.744 72.58L116.697 73.0174C116.619 73.7667 116.536 74.54 116.435 75.3254C116.372 75.8774 116.321 76.3174 116.261 76.7587L116.225 77.0827C116.225 77.0867 116.208 77.2201 116.208 77.2241C116.159 77.6294 116.108 78.0454 116.047 78.4614C115.911 79.536 115.757 80.64 115.593 81.748C115.865 81.7227 116.249 81.6707 116.697 81.564C117.383 81.4134 117.973 81.2107 118.516 80.944C119.037 80.692 119.511 80.3934 119.924 80.0561C120.884 79.2921 121.609 78.2707 122.084 77.0147C122.092 76.9747 122.103 76.936 122.116 76.8987C123.448 73.1907 123.283 68.0094 122.365 65.3361C122.071 64.4681 121.801 64.1734 121.699 64.0881C120.804 63.9747 119.444 64.3681 118.015 65.1187C117.831 65.2134 117.623 65.232 117.431 65.1827ZM115.132 83.3694C115.077 83.3694 115.045 83.3681 115.04 83.3681L114.564 83.3094C114.349 83.28 114.157 83.168 114.028 82.996C113.9 82.824 113.847 82.6067 113.879 82.3947C114.091 81.0027 114.289 79.6094 114.46 78.2427C114.523 77.8227 114.571 77.424 114.62 77.032L114.673 76.564C114.736 76.1107 114.784 75.684 114.832 75.264C114.832 75.26 114.848 75.1241 114.849 75.1201C114.949 74.3481 115.028 73.5867 115.107 72.8494L115.153 72.4054C115.261 71.4481 115.348 70.5387 115.429 69.6614L115.459 69.3614C115.525 68.616 115.592 67.8947 115.659 67.2107L115.737 66.2387C115.819 65.2921 115.884 64.4414 115.937 63.7241C115.96 63.4334 116.136 63.1787 116.4 63.0561C116.661 62.9334 116.972 62.9667 117.207 63.1361C117.367 63.2534 117.532 63.3694 117.699 63.4854C118.772 62.9667 120.42 62.3227 121.817 62.4681C122.156 62.4921 122.479 62.6347 122.755 62.8854C123.188 63.2521 123.564 63.8907 123.88 64.8187C124.903 67.7987 125.088 73.3041 123.639 77.3881C123.631 77.4321 123.62 77.4747 123.605 77.5134C123.027 79.0747 122.127 80.3494 120.927 81.3027C120.425 81.7107 119.848 82.0774 119.217 82.3827C118.563 82.704 117.853 82.9467 117.056 83.1241C116.115 83.3481 115.384 83.3694 115.132 83.3694Z" fill="#2C3958"/>
<path d="M58.108 31.304C58.4107 31.304 58.688 31.4733 58.824 31.7453C58.9667 32.032 58.9267 32.3746 58.72 32.6186C51.4213 41.2746 49.292 54.136 53.204 64.692C53.6267 63.5026 54.2627 62.5573 55.22 62.4666C56.2587 62.3586 57.5493 62.656 59.0573 63.3573C59.0813 63.2853 59.1053 63.216 59.1307 63.148C59.172 63.036 59.2373 62.936 59.3213 62.8533C63.1907 59.048 66.3907 54.656 68.8333 49.7973C68.932 49.628 69.0467 49.4266 69.1947 49.2653C69.6827 48.544 70.0693 47.88 70.3733 47.2413C70.4987 46.976 70.7587 46.8013 71.052 46.7853C73.6653 46.6426 76.232 46.0773 78.68 45.1053C82.952 43.4666 86.6507 40.7519 89.3853 37.2519C89.648 36.9173 90.1213 36.8466 90.4693 37.0853C90.8173 37.3253 90.9187 37.796 90.7 38.1573C88.4 41.9653 86.9787 46.248 86.548 50.64C89.216 48.5026 91.8947 46.268 94.1653 43.7173C95.7853 41.8706 97.0893 40.0013 98.0373 38.1626C98.7813 36.692 99.3333 35.1906 99.676 33.708C99.7693 33.312 100.149 33.0466 100.547 33.0946C100.951 33.1413 101.255 33.4826 101.255 33.8893C101.255 35.2159 101.357 36.5893 101.568 38.0866C102.951 47.8613 108.793 57.2226 117.195 63.128C117.363 63.2506 117.531 63.3693 117.699 63.4853C118.772 62.9666 120.42 62.3226 121.817 62.468C122.141 62.4906 122.451 62.6213 122.719 62.8533C122.745 62.684 122.772 62.5146 122.796 62.344C122.797 62.344 122.797 62.3426 122.797 62.3426C123.953 54.804 123.421 46.952 121.261 39.6373C119.539 33.7466 116.951 29.1079 113.568 25.8533C109.569 21.9906 104.137 20.0733 99.412 20.8519C99.192 20.8906 98.9813 20.8346 98.8067 20.7053C98.664 20.6 98.56 20.4493 98.5134 20.28C92.536 15.2133 83.7347 13.828 76.5107 16.8413C72.7893 18.384 69.4974 20.9959 66.3134 23.5239C62.8934 26.2373 59.3693 29.0346 55.2307 30.6C56.0653 31.1013 57.0667 31.344 58.064 31.3053C58.0787 31.304 58.0933 31.304 58.108 31.304ZM53.4147 68.0626C53.108 68.0626 52.824 67.8866 52.6907 67.6026C47.5267 56.5986 49.1373 42.516 56.5333 32.7919C55.18 32.5293 53.932 31.8466 53.0213 30.84C52.8387 30.636 52.7707 30.3519 52.8454 30.0879C52.9187 29.8226 53.124 29.616 53.3867 29.536C57.84 28.204 61.4733 25.3213 65.3187 22.2693C68.588 19.6746 71.9693 16.992 75.896 15.364C83.7213 12.0973 93.276 13.6373 99.7027 19.1933C104.855 18.548 110.409 20.5786 114.679 24.7013C118.263 28.152 120.995 33.0266 122.796 39.1866C125.021 46.724 125.569 54.8146 124.379 62.5853C124.243 63.4786 124.093 64.3626 123.904 65.2453C123.829 65.596 123.527 65.8546 123.169 65.8746C122.827 65.908 122.48 65.676 122.364 65.3346C122.071 64.468 121.801 64.1733 121.699 64.088C120.804 63.9746 119.444 64.368 118.015 65.1186C117.756 65.2546 117.447 65.24 117.203 65.08C116.887 64.8706 116.568 64.6493 116.264 64.4293C107.516 58.2826 101.427 48.5146 99.984 38.3093C99.964 38.1746 99.9467 38.0413 99.9293 37.9106C99.7827 38.2386 99.628 38.5653 99.4613 38.8906C98.452 40.8506 97.0733 42.828 95.364 44.7773C92.628 47.848 89.3867 50.428 86.2494 52.924L86.128 53.0226C85.8827 53.2146 85.5493 53.2533 85.268 53.1093C84.9893 52.9693 84.8173 52.6786 84.8293 52.368C84.9587 48.824 85.7 45.32 87.0053 42.0226C84.732 43.9506 82.1147 45.5013 79.2613 46.596C76.808 47.5706 74.232 48.1613 71.6067 48.3533C71.288 48.9706 70.9013 49.608 70.4347 50.288C70.4013 50.3386 70.3613 50.384 70.3187 50.424C70.3027 50.4506 70.2867 50.4786 70.2693 50.5093C67.7693 55.476 64.5107 59.9653 60.576 63.8626C60.4707 64.1773 60.3893 64.5 60.3173 64.8333C60.2293 65.2333 59.8507 65.492 59.4494 65.4586C59.1707 65.428 58.9373 65.2573 58.82 65.02L58.6827 64.9506C57.348 64.2933 56.18 63.9746 55.3933 64.0586C55.2387 64.116 54.5907 64.8586 54.2067 67.3826C54.1533 67.732 53.8787 68.004 53.5293 68.0546C53.4907 68.06 53.4534 68.0626 53.4147 68.0626Z" fill="#2C3958"/>
<path d="M60.3427 64.7201C60.6174 68.3307 61.2347 75.3254 62.3267 82.4347C62.5893 84.1214 62.908 86.1001 63.28 87.9881C63.4614 88.9587 63.7053 89.9374 64.0053 90.9067C64.476 92.4187 65.0854 93.9454 65.8147 95.4467C67.3867 98.6027 69.5213 101.543 71.9867 103.943C76.7227 108.569 82.444 111.117 88.096 111.117C94.0187 111.117 99.9653 108.348 104.841 103.319C105.92 102.201 106.927 100.984 107.829 99.7067C107.989 99.4921 108.127 99.2787 108.265 99.0667C110.596 95.6174 112.204 91.7934 112.923 87.9947C113.328 85.8481 113.631 84.0694 113.877 82.3987C114.091 81.0027 114.289 79.6094 114.46 78.2427C114.523 77.8227 114.571 77.4241 114.62 77.0321L114.673 76.5641C114.736 76.1107 114.784 75.6841 114.832 75.2641C114.832 75.2601 114.848 75.1241 114.849 75.1201C114.949 74.3481 115.028 73.5867 115.107 72.8494L115.153 72.4054C115.261 71.4481 115.348 70.5387 115.429 69.6614L115.459 69.3614C115.525 68.6161 115.592 67.8947 115.66 67.2107L115.737 66.2387C115.801 65.4827 115.857 64.7881 115.904 64.1734C107.345 58.0041 101.405 48.3694 99.984 38.3094C99.964 38.1747 99.9467 38.0414 99.9293 37.9107C99.7827 38.2387 99.628 38.5654 99.4613 38.8907C98.452 40.8507 97.0733 42.8281 95.364 44.7774C92.628 47.8481 89.3867 50.4281 86.2494 52.9241L86.128 53.0227C85.8827 53.2147 85.5493 53.2534 85.268 53.1094C84.9893 52.9694 84.8173 52.6787 84.8293 52.3681C84.9587 48.8241 85.7 45.3201 87.0053 42.0227C84.732 43.9507 82.1147 45.5014 79.2613 46.5961C76.7987 47.5734 74.2134 48.1654 71.5787 48.3547C70.2787 50.5734 64.268 60.1427 60.576 63.8614C60.4827 64.1414 60.408 64.4267 60.3427 64.7201ZM88.096 112.716C82.0227 112.716 75.9053 110.008 70.8693 105.088C68.2787 102.565 66.0334 99.4761 64.3787 96.1534C63.6107 94.5734 62.972 92.9707 62.4787 91.3814C62.1587 90.3534 61.9 89.3134 61.7094 88.2907C61.3334 86.3827 61.0107 84.3827 60.7454 82.6801C59.632 75.4374 59.0107 68.3201 58.7387 64.7227C58.732 64.6454 58.7373 64.5681 58.7533 64.4921C58.8707 63.9601 58.9893 63.5334 59.1307 63.1481C59.172 63.0361 59.2373 62.9361 59.3213 62.8534C63.132 59.1054 70.0493 47.9201 70.3733 47.2414C70.4987 46.9761 70.76 46.8014 71.052 46.7854C73.6653 46.6427 76.232 46.0774 78.68 45.1054C82.952 43.4667 86.6507 40.752 89.3853 37.252C89.648 36.9174 90.1213 36.8467 90.4693 37.0854C90.8173 37.3254 90.9187 37.7961 90.7 38.1574C88.3987 41.9654 86.9787 46.2481 86.548 50.6401C89.216 48.5027 91.8947 46.2681 94.1653 43.7174C95.7853 41.8707 97.0893 40.0014 98.0373 38.1627C98.7813 36.6921 99.3334 35.1907 99.676 33.7081C99.7694 33.3121 100.149 33.0467 100.547 33.0947C100.951 33.1414 101.255 33.4827 101.255 33.8894C101.255 35.216 101.357 36.5894 101.568 38.0867C102.951 47.8614 108.793 57.2227 117.195 63.1281C117.425 63.2907 117.555 63.5614 117.533 63.8414C117.48 64.5641 117.412 65.4227 117.332 66.3707L117.252 67.3547C117.185 68.0454 117.12 68.7641 117.052 69.5094L117.023 69.8121C116.939 70.6987 116.852 71.6174 116.744 72.5801L116.697 73.0174C116.619 73.7667 116.536 74.5401 116.435 75.3254C116.372 75.8774 116.323 76.3174 116.261 76.7587L116.225 77.0827C116.225 77.0867 116.208 77.2201 116.208 77.2241C116.159 77.6294 116.108 78.0454 116.047 78.4614C115.875 79.8227 115.675 81.2294 115.46 82.6374C115.211 84.3241 114.904 86.1227 114.496 88.2921C113.736 92.3041 112.043 96.3347 109.599 99.9507C109.451 100.18 109.293 100.42 109.125 100.647C108.185 101.975 107.128 103.253 105.991 104.432C100.809 109.775 94.456 112.716 88.096 112.716Z" fill="#2C3958"/>
<path d="M55.652 64.0453C55.5613 64.0453 55.476 64.0493 55.3933 64.0586C55.2386 64.1159 54.5907 64.8586 54.2067 67.3826C53.8293 69.7906 53.7933 73.7253 54.9293 76.9C55.1787 77.616 55.5173 78.2666 55.94 78.8439C56.74 79.9093 57.8133 80.7066 59.128 81.208C59.688 81.4146 60.1853 81.5426 60.5866 81.624C59.5986 74.9266 59.0266 68.4786 58.7586 64.988L58.6827 64.9506C57.488 64.3626 56.424 64.0453 55.652 64.0453ZM61.536 83.356C61.5227 83.356 61.5093 83.356 61.496 83.356C61.18 83.34 60.0453 83.2493 58.6747 82.7479C56.9573 82.0919 55.644 81.1146 54.656 79.7973C54.1333 79.0853 53.72 78.2933 53.42 77.432C52.1853 73.984 52.2 69.8533 52.6253 67.14C52.936 65.092 53.64 62.616 55.22 62.4666C56.3413 62.3493 57.7413 62.7026 59.396 63.5186L59.88 63.7599C60.1507 63.8973 60.3226 64.1733 60.3226 64.4773C60.3293 64.5346 60.336 64.5986 60.336 64.6626C60.604 68.1773 61.2226 75.248 62.3266 82.4346C62.3626 82.672 62.2907 82.9146 62.1293 83.0919C61.9773 83.2599 61.7613 83.356 61.536 83.356Z" fill="#2C3958"/>
<path d="M70.788 113.869C70.764 113.869 70.74 113.869 70.716 113.868C70.276 113.828 69.9507 113.44 69.9893 113L70.592 106.152C70.6307 105.712 71.0133 105.387 71.46 105.425C71.9 105.465 72.2253 105.853 72.1853 106.293L71.584 113.141C71.5467 113.557 71.1973 113.869 70.788 113.869Z" fill="#2C3958"/>
<path d="M87.8693 115.903L87.696 115.983L87.5226 115.903H87.8693Z" fill="#AAA5EB"/>
<path d="M87.8693 115.903L87.696 115.983L87.5226 115.903H87.8693Z" fill="#AAA5EB"/>
<path d="M27.3227 185.156C37.456 170.676 37.6826 149.729 37.056 139.369C37.056 139.369 37.056 139.329 37.0427 139.263C36.976 138.756 36.696 136.636 36.6827 134.809V134.769C36.6693 133.489 36.816 132.369 37.256 132.089C38.4413 131.343 51.9093 126.809 58.8427 123.996C65.7747 121.183 67.936 117.449 68.0293 114.236C68.1226 111.023 69.3493 110.289 70.7893 110.649C70.7893 110.649 73.616 115.823 87.5226 115.903L87.696 115.983L87.8693 115.903C102.135 115.823 105.029 110.649 105.029 110.649C106.495 110.289 107.748 111.023 107.843 114.236C107.949 117.449 110.161 121.183 117.256 123.996C124.363 126.809 138.161 131.343 139.363 132.089C139.816 132.369 139.963 133.449 139.963 134.703V135.116C139.843 136.116 139.723 137.476 139.616 139.103V139.116C138.963 149.369 139.108 170.556 149.336 185.156H27.3227Z" fill="#FF5E13"/>
<path d="M139.963 135.116C139.923 136.703 139.709 138.449 139.616 139.103C139.723 137.476 139.843 136.116 139.963 135.116Z" fill="#AAA5EB"/>
<path d="M90.38 138.745C86.592 138.745 82.7627 137.903 79.2974 136.256C73.924 133.699 69.4254 129.284 66.6294 123.824C66.428 123.431 66.584 122.949 66.9774 122.748C67.3707 122.547 67.852 122.703 68.0533 123.095C70.6907 128.244 74.928 132.404 79.9853 134.811C85.1507 137.265 91.1773 137.813 96.5253 136.315C102.057 134.765 106.812 131.089 109.572 126.227C109.791 125.843 110.28 125.705 110.663 125.925C111.047 126.144 111.183 126.632 110.963 127.016C107.997 132.243 102.893 136.193 96.9587 137.857C94.8373 138.451 92.616 138.745 90.38 138.745Z" fill="#2C3958"/>
<path d="M105.231 125.599C104.876 125.599 104.552 125.363 104.457 125.004C103.484 121.349 103.013 117.579 103.057 113.796C103.063 113.357 103.419 113.005 103.856 113.005C103.859 113.005 103.863 113.005 103.865 113.005C104.307 113.011 104.661 113.372 104.656 113.813C104.615 117.452 105.068 121.079 106.004 124.592C106.117 125.02 105.863 125.457 105.436 125.572C105.367 125.591 105.297 125.599 105.231 125.599Z" fill="#2C3958"/>
<path d="M101.647 127.7C101.26 127.7 100.92 127.42 100.857 127.027L100.059 122.021C99.9893 121.585 100.287 121.175 100.723 121.104C101.151 121.04 101.569 121.331 101.639 121.768L102.439 126.773C102.508 127.211 102.211 127.62 101.775 127.691C101.732 127.697 101.688 127.7 101.647 127.7Z" fill="#2C3958"/>
<path d="M57.8773 73.0214C57.164 73.704 56.74 74.7147 56.7453 75.8214C56.7507 76.9427 57.2173 78.06 57.9227 78.7934C58.096 76.8787 58.0787 74.9334 57.8773 73.0214ZM58.5667 81.004C58.4613 81.004 58.3573 80.984 58.2573 80.9427C56.4347 80.1787 55.156 78.0774 55.1453 75.8294C55.136 73.88 56.0933 72.132 57.628 71.208C57.5173 70.5654 57.3867 69.9267 57.2347 69.2974C57.0547 68.5534 56.836 67.7854 56.452 67.2C56.1227 66.6974 55.66 66.3987 55.2947 66.3974C54.9813 66.4107 54.608 66.7654 54.596 67.2054C54.5827 67.6467 54.1747 67.9987 53.7747 67.9827C53.332 67.972 52.984 67.604 52.996 67.1614C53.0307 65.908 54.032 64.848 55.228 64.7987C56.1907 64.7627 57.1373 65.328 57.7893 66.3214C58.308 67.1107 58.576 68.0374 58.7893 68.9227C58.996 69.772 59.164 70.6374 59.2947 71.5094C59.2987 71.5267 59.3013 71.5427 59.3027 71.56C59.732 74.4454 59.7547 77.4267 59.3587 80.312C59.3253 80.5587 59.18 80.776 58.964 80.8987C58.8413 80.9694 58.704 81.004 58.5667 81.004Z" fill="#2C3958"/>
<path d="M118.237 73.192C118.036 75.104 118.019 77.048 118.192 78.964C118.897 78.2307 119.364 77.1133 119.369 75.992C119.375 74.8853 118.952 73.8747 118.237 73.192ZM117.548 81.1747C117.409 81.1747 117.273 81.14 117.151 81.0693C116.935 80.9467 116.789 80.7293 116.755 80.4827C116.36 77.5973 116.383 74.6173 116.811 71.732C116.813 71.7133 116.816 71.6947 116.82 71.676C116.952 70.804 117.12 69.94 117.325 69.0907C117.537 68.2093 117.805 67.284 118.325 66.492C118.98 65.4973 119.975 64.9333 120.887 64.968C122.084 65.02 123.084 66.08 123.119 67.332C123.129 67.7747 122.783 68.1427 122.341 68.1533C122.333 68.1533 122.325 68.1533 122.319 68.1533C121.887 68.1533 121.531 67.8107 121.519 67.376C121.508 66.936 121.133 66.58 120.82 66.5667C120.387 66.556 119.993 66.868 119.663 67.3693C119.279 67.9573 119.06 68.7253 118.88 69.4667C118.728 70.096 118.597 70.7347 118.488 71.3773C120.021 72.3027 120.979 74.052 120.968 76C120.959 78.248 119.679 80.3507 117.856 81.1133C117.757 81.1547 117.652 81.1747 117.548 81.1747Z" fill="#2C3958"/>
<path d="M57.1813 93.9707C57.1306 93.9707 57.0786 93.9694 57.028 93.9667C55.9293 93.9174 54.8466 93.348 54.06 92.404C53.3413 91.5427 52.984 90.5294 52.7773 89.844C51.8226 86.6627 52.08 83.112 53.4853 80.1C53.7973 79.4334 54.5906 79.1467 55.2573 79.4547C55.9253 79.7667 56.2133 80.56 55.9026 81.228C54.7706 83.6534 54.5626 86.5134 55.332 89.076C55.552 89.812 55.8 90.3267 56.108 90.696C56.412 91.0614 56.8013 91.288 57.148 91.3027C57.5 91.3014 57.9693 91.0854 58.308 90.692C58.652 90.292 58.92 89.7254 59.1546 88.908C59.9613 86.1014 59.6906 82.984 58.412 80.3574C58.0893 79.696 58.3653 78.8987 59.0266 78.5747C59.6906 78.2547 60.488 78.5307 60.8093 79.1907C62.372 82.4014 62.704 86.212 61.7173 89.644C61.5013 90.3987 61.1226 91.508 60.3306 92.4294C59.496 93.4014 58.328 93.9707 57.1813 93.9707Z" fill="#FF5E13"/>
<path d="M118.931 95.7346C118.981 95.7346 119.032 95.7333 119.083 95.7306C120.183 95.6813 121.264 95.112 122.052 94.168C122.771 93.3053 123.127 92.2933 123.333 91.6066C124.289 88.4253 124.031 84.8746 122.625 81.8626C122.315 81.1959 121.521 80.9106 120.853 81.2186C120.187 81.5293 119.899 82.3226 120.209 82.9906C121.341 85.4173 121.549 88.2773 120.78 90.84C120.559 91.576 120.312 92.0893 120.004 92.4599C119.7 92.8239 119.311 93.0506 118.964 93.0666C118.612 93.0653 118.141 92.8493 117.803 92.456C117.46 92.056 117.191 91.488 116.956 90.672C116.151 87.864 116.421 84.748 117.7 82.1213C118.021 81.46 117.747 80.6613 117.084 80.3386C116.421 80.0186 115.623 80.2946 115.301 80.9546C113.739 84.1653 113.408 87.9746 114.393 91.408C114.609 92.1613 114.988 93.2706 115.78 94.1933C116.616 95.1653 117.784 95.7346 118.931 95.7346Z" fill="#FF5E13"/>
<path d="M60.1506 37.7827C58.612 37.7827 57.076 37.7134 55.5453 37.5761C55.1053 37.5347 54.7813 37.1454 54.8213 36.7067C54.8613 36.2667 55.244 35.9401 55.6893 35.9814C71.4413 37.4054 87.968 31.1467 98.8173 19.6401C99.1213 19.3147 99.628 19.3027 99.948 19.6054C100.269 19.9094 100.285 20.4161 99.9813 20.7361C89.856 31.4774 74.9333 37.7827 60.1506 37.7827Z" fill="#2C3958"/>
<path d="M89.7707 38.9786C89.54 38.9786 89.3106 38.8786 89.152 38.6866C88.872 38.3453 88.9213 37.8413 89.2627 37.56C95.0973 32.764 99.7387 26.5533 102.683 19.5973C102.853 19.192 103.32 19.0013 103.732 19.1733C104.137 19.3466 104.328 19.8146 104.156 20.2226C101.111 27.4146 96.312 33.8373 90.2787 38.7973C90.1293 38.92 89.9507 38.9786 89.7707 38.9786Z" fill="#2C3958"/>
<path d="M70.7066 48.3494C64.2066 48.3494 57.832 46.592 52.2426 43.256C51.8626 43.0294 51.7386 42.536 51.9653 42.1574C52.192 41.7787 52.6853 41.6574 53.0626 41.88C58.5373 45.148 64.8106 46.8107 71.1706 46.7467C71.1746 46.7467 71.1786 46.7467 71.1826 46.7467C71.6186 46.7467 71.976 47.096 71.9826 47.5347C71.988 47.9774 71.6346 48.34 71.1933 48.3454C71.0306 48.348 70.8693 48.3494 70.7066 48.3494Z" fill="#2C3958"/>
</g>
</svg>
