<svg width="500" height="362" viewBox="0 0 500 362" fill="none" xmlns="http://www.w3.org/2000/svg">
<path d="M250 361.342C388.071 361.342 500 354.805 500 346.742C500 338.679 388.071 332.142 250 332.142C111.929 332.142 0 338.679 0 346.742C0 354.805 111.929 361.342 250 361.342Z" fill="#F5F5F5"/>
<path d="M401.725 228.169H104.863V326.056H401.725V228.169Z" fill="#FF5E13"/>
<path opacity="0.2" d="M401.721 228.173H104.86V326.054H401.721V228.173Z" fill="white"/>
<path d="M313.997 131.453H185.145V229.34H313.997V131.453Z" fill="#FF5E13"/>
<path opacity="0.2" d="M313.997 131.453H185.145V229.34H313.997V131.453Z" fill="white"/>
<path d="M261.5 159.237L254.211 195.683H245.776L251.712 166.005H244.423L245.777 159.237H261.5Z" fill="white"/>
<path d="M328.643 95.788L333.654 101.09L369.209 77.4399L409.348 90.7181L444.276 64.9199L446.622 69.1117L456.065 53.247L437.603 53.0007L439.95 57.1925L408.748 84.3588L368.524 71.3759L328.643 95.788Z" fill="black"/>
<path opacity="0.2" d="M349.892 238.245L376.909 237.266C370.539 235.435 363.8 235.546 357.206 234.865C355.301 234.669 353.381 234.4 351.599 233.701C349.899 233.035 348.367 231.996 346.68 231.299C344.482 230.39 342.037 230.083 339.681 230.422C338.921 230.531 338.16 230.709 337.48 231.068C336.17 231.759 335.272 233.066 334.769 234.46C334.323 235.699 334.109 236.968 334.043 238.245H334.021C334.009 238.432 334 238.624 333.997 238.821L334.02 238.82C333.985 241.625 334.717 244.448 335.793 247.041C342.066 262.213 392.82 249.255 392.82 249.255C391.048 259.217 393.705 266.714 395.521 276.692L400.273 302.934L395.195 303.495L397.247 310.844H401.718V238.245H349.892Z" fill="black"/>
<path opacity="0.2" d="M402.06 317.185V325.41L401.847 325.168L400.74 319.386C400.724 319.31 400.724 319.22 400.724 319.144C400.724 318.263 401.255 317.504 402.06 317.185Z" fill="black"/>
<path d="M425.799 311.12L433.749 310.261L434.519 291.575L426.562 292.438L425.799 311.12Z" fill="#FF8B7B"/>
<path d="M434.559 306.909L425.579 306.812C425.266 306.777 424.987 307.003 424.952 307.314C424.949 307.333 424.948 307.351 424.948 307.37L424.431 314.469C424.425 315.246 425.042 315.886 425.82 315.906C428.941 315.884 430.25 315.732 434.194 315.496C436.621 315.341 442.413 314.96 445.715 314.342C449.017 313.725 448.305 310.477 446.851 310.444C443.408 310.38 438.136 309.239 435.898 307.441C435.524 307.12 435.053 306.932 434.559 306.909Z" fill="#263238"/>
<path opacity="0.2" d="M426.56 292.45L434.519 291.575L434.148 300.582L426.2 301.175L426.56 292.45Z" fill="black"/>
<path d="M369.87 209.978C369.87 209.978 430.481 206.986 434.482 229.557C437.768 263.757 435.636 293.391 435.636 293.391L424.432 295.596C424.432 295.596 415.661 256.433 416.567 237.182C399.872 235.35 354.399 243.443 347.316 231.007C341.521 220.86 342.605 214.544 342.605 214.544L369.87 209.978Z" fill="#00225A"/>
<path d="M420.83 299.193L437.877 298.394L439.053 291.998L420.167 292.644L420.83 299.193Z" fill="#407BFF"/>
<path d="M438.881 307.927C439.138 307.662 439.232 307.278 439.128 306.923C439.085 306.683 438.921 306.482 438.694 306.389C437.709 305.978 435.445 307.516 435.19 307.689C435.147 307.715 435.119 307.756 435.107 307.804C435.085 307.903 435.147 308.001 435.245 308.023C435.94 308.209 436.653 308.312 437.373 308.334C437.909 308.39 438.447 308.245 438.881 307.927ZM438.571 306.727C438.68 306.776 438.752 306.883 438.757 307.003C438.839 307.231 438.786 307.485 438.62 307.662C438.243 308.028 437.191 308.067 435.765 307.764C436.693 307.185 438.033 306.527 438.571 306.727Z" fill="#407BFF"/>
<path d="M435.41 307.984C436.21 307.512 437.424 305.871 437.246 304.984C437.178 304.669 436.906 304.438 436.585 304.424C436.282 304.375 435.975 304.476 435.758 304.692C434.95 305.463 435.098 307.762 435.105 307.859C435.11 307.925 435.148 307.983 435.208 308.011C435.235 308.024 435.263 308.032 435.294 308.033L435.41 307.984ZM436.479 304.788C436.755 304.823 436.813 304.954 436.835 305.06C436.954 305.635 436.149 306.887 435.444 307.467C435.433 306.708 435.509 305.395 435.994 304.935C436.103 304.829 436.251 304.772 436.403 304.779C436.447 304.801 436.474 304.811 436.479 304.788Z" fill="#407BFF"/>
<path opacity="0.3" d="M409.059 222.996C409.059 222.996 421.705 219.365 424.431 226.992C427.157 234.619 423.96 271.777 420.167 280.027C416.372 288.278 409.474 224.243 409.474 224.243L409.059 222.996Z" fill="black"/>
<path d="M409.286 317.183L417.017 316.982L416.426 298.229L408.695 298.43L409.286 317.183Z" fill="#FF8B7B"/>
<path d="M417.143 314.67L408.187 315.244C407.871 315.25 407.619 315.509 407.622 315.826L407.643 322.941C407.689 323.721 408.357 324.316 409.137 324.273C412.244 323.975 413.73 323.741 417.668 323.454C420.092 323.297 424.878 323.199 428.151 322.449C431.423 321.698 430.606 318.499 429.157 318.512C425.717 318.565 420.914 316.645 418.545 315.02C418.128 314.754 417.636 314.63 417.143 314.67Z" fill="#263238"/>
<path d="M421.535 315.356C421.768 315.069 421.83 314.679 421.696 314.334C421.637 314.098 421.46 313.91 421.229 313.834C420.233 313.494 418.076 315.21 417.834 315.401C417.797 315.429 417.771 315.472 417.764 315.518C417.747 315.619 417.815 315.713 417.916 315.728C418.622 315.856 419.342 315.905 420.059 315.875C420.599 315.895 421.125 315.709 421.535 315.356ZM421.121 314.196C421.235 314.233 421.321 314.327 421.345 314.443C421.434 314.667 421.398 314.922 421.25 315.115C420.935 315.505 419.856 315.617 418.413 315.428C419.299 314.774 420.585 314.021 421.121 314.196Z" fill="#407BFF"/>
<path d="M418.099 315.719C418.862 315.193 419.94 313.414 419.703 312.598C419.615 312.28 419.32 312.065 418.991 312.079C418.687 312.042 418.382 312.159 418.183 312.391C417.423 313.218 417.76 315.5 417.77 315.599C417.778 315.661 417.818 315.715 417.876 315.74C417.904 315.745 417.932 315.743 417.958 315.732C418.005 315.743 418.055 315.739 418.099 315.719ZM418.93 312.412C419.2 312.427 419.288 312.554 419.298 312.662C419.46 313.224 418.749 314.534 418.088 315.167C418.025 314.427 418.001 313.113 418.456 312.617C418.551 312.502 418.692 312.435 418.84 312.429L418.93 312.412Z" fill="#407BFF"/>
<path opacity="0.2" d="M408.004 298.252L416.646 296.805L416.713 308.521L409.143 309.403L408.004 298.252Z" fill="black"/>
<path d="M358.027 211.789C358.027 211.789 417.868 216.253 418.666 233.641C423.075 262.056 419.748 299.447 419.748 299.447L405.416 302.431C405.416 302.431 398.052 267.433 396.991 241.695C382.342 244.149 352.207 248.69 341.879 241.364C332.511 232.937 335.116 215.668 335.116 215.668L358.027 211.789Z" fill="#00225A"/>
<path d="M404.021 307.147L421.538 305.676L421.909 298.015L402.706 300.004L404.021 307.147Z" fill="#407BFF"/>
<path d="M362.225 159.763C362.564 161.127 362.873 162.311 363.241 163.552C363.61 164.793 363.976 165.967 364.389 167.218C365.19 169.623 366.096 172.008 367.095 174.439C369.091 179.471 371.76 184.21 375.03 188.525C375.992 189.73 377.055 190.851 378.206 191.877C379.495 193.036 380.951 193.995 382.524 194.724C385.543 196.072 388.862 196.607 392.151 196.276C395.03 195.986 397.845 195.228 400.482 194.035C401.729 193.484 402.939 192.856 404.11 192.158C404.695 191.815 405.26 191.448 405.807 191.027C406.354 190.605 406.869 190.248 407.499 189.762L404.412 184.619L402.872 185.079L401.254 185.519C400.166 185.794 399.089 186.033 397.987 186.219C395.993 186.587 393.96 186.692 391.938 186.529C390.321 186.417 388.759 185.909 387.384 185.05C386.791 184.656 386.243 184.198 385.75 183.682C385.139 183.016 384.573 182.308 384.059 181.563C382.872 179.819 381.832 177.982 380.947 176.068C379.973 174.091 379.106 171.994 378.281 169.848C377.456 167.702 376.709 165.517 375.96 163.316L374.904 159.991C374.569 158.896 374.203 157.723 373.933 156.769L362.225 159.763Z" fill="#FF8B7B"/>
<path d="M361.052 153.063C365.877 146.51 373.59 148.611 378.2 158.653C380.751 163.997 382.817 169.561 384.368 175.277L366.674 182.133C361.661 172.658 356.086 159.783 361.052 153.063Z" fill="#407BFF"/>
<path opacity="0.1" d="M361.052 153.063C365.877 146.51 373.59 148.611 378.2 158.653C380.751 163.997 382.817 169.561 384.368 175.277L366.674 182.133C361.661 172.658 356.086 159.783 361.052 153.063Z" fill="black"/>
<path opacity="0.3" d="M368.87 163.515C367.364 162.557 364.529 168.471 363.352 175.379C364.408 177.74 365.539 179.996 366.661 182.1L377.307 177.973C375.335 171.603 372.252 165.672 368.87 163.515Z" fill="black"/>
<path d="M405.241 181.943L409.092 179.681L410.736 188.384C410.736 188.384 404.323 192.529 402.341 189.333L402.47 187.068C402.626 185.044 403.633 183.181 405.241 181.943Z" fill="#FF8B7B"/>
<path d="M413.987 179.099L417.641 186.016L410.703 188.389L409.059 179.687L413.987 179.099Z" fill="#FF8B7B"/>
<path d="M360.797 147.345L351.594 146.348L340.214 147.712C336.66 148.134 333.829 150.881 333.3 154.421C332.255 161.364 331.875 171.175 331.793 179.625C331.69 189.109 333.184 203.081 335.114 215.67L373.091 209.847C372.399 176.571 374.587 166.179 374.615 157.358C374.637 153.803 372.285 150.67 368.864 149.7L360.797 147.345Z" fill="#407BFF"/>
<path d="M360.797 147.345L351.594 146.348L340.214 147.712C336.66 148.134 333.829 150.881 333.3 154.421C332.255 161.364 331.875 171.175 331.793 179.625C331.69 189.109 333.184 203.081 335.114 215.67L373.091 209.847C372.399 176.571 374.587 166.179 374.615 157.358C374.637 153.803 372.285 150.67 368.864 149.7L360.797 147.345Z" fill="#407BFF"/>
<path opacity="0.3" d="M336.907 151.165C344.47 149.587 344.639 166.865 341.581 179.609C340.696 183.297 336.32 181.906 334.824 180.999C329.931 178.031 327.638 156.98 336.907 151.165Z" fill="black"/>
<path d="M336.807 176.757C337.331 184.221 335.083 188.204 339.139 190.572C343.194 192.938 366.974 199.993 367.513 198.994C366.43 200.833 365.378 202.408 364.295 204.247C357.489 203.448 350.675 202.723 343.854 202.076C338.877 201.604 330.844 200.583 326.858 197.565C323.251 194.834 323.483 182.347 323.793 173.344C326.904 171.397 336.807 176.757 336.807 176.757Z" fill="#FF8B7B"/>
<path d="M333.86 148.212C341.608 145.671 344.764 151.837 342.726 162.652C341.715 168.488 340.178 174.22 338.132 179.777L321.626 175.136C323.056 164.532 325.936 150.817 333.86 148.212Z" fill="#407BFF"/>
<path d="M345.188 147.804C344.959 149.439 345.569 151.101 346.517 152.453C347.464 153.804 348.73 154.894 349.982 155.969C351.574 157.335 353.464 158.791 355.532 158.45C357.443 158.137 358.514 157.134 359.215 154.824C360.945 157.42 361.064 158.738 362.875 158.846C364.048 158.917 365.043 158.03 365.837 157.161C367.24 155.626 367.861 154.751 368.06 152.683C368.383 149.316 365.562 146.292 362.357 145.215C358.915 144.058 355.884 143.852 352.338 143.556C349.374 143.311 345.673 144.351 345.188 147.804Z" fill="#263238"/>
<path d="M352.67 131.454L356.959 136.1L362.791 142.426C362.294 143.133 361.927 143.925 361.711 144.765C361.174 146.615 361.409 148.421 363.428 149.699C364.302 150.073 364.879 154.543 359.216 154.256C355.361 154.167 352.884 152.907 350.561 150.643C349.48 149.285 349.187 148.546 350.204 146.996C353.126 142.614 353.166 136.389 352.67 131.454Z" fill="#FF8B7B"/>
<path opacity="0.2" d="M361.385 140.858L357.689 136.273C357.651 136.414 357.608 136.565 357.562 136.725C357.413 137.393 357.318 138.07 357.275 138.753C357.133 141.087 359.416 144.004 361.59 145.213L361.739 144.74C361.962 143.953 362.292 143.2 362.718 142.503C362.746 142.463 362.78 142.429 362.82 142.401L361.385 140.858Z" fill="black"/>
<path d="M366.529 130.04C369.958 123.377 369.228 119.602 372.522 116.052C374.291 115.27 377.381 118.53 375.319 124.077C373.257 129.623 366.529 130.04 366.529 130.04Z" fill="#263238"/>
<path d="M352.777 122.645C352.379 130.377 351.813 134.88 355.263 139.15C360.474 145.613 370.351 142.961 373.021 135.458C375.427 128.709 375.608 117.206 368.407 113.462C363.128 110.758 356.656 112.845 353.953 118.124C353.232 119.527 352.831 121.071 352.777 122.645Z" fill="#FF8B7B"/>
<path d="M351.862 129.507L358.168 131.999L356.584 125.229L360.017 123.272L364.199 117.004C364.199 117.004 355.131 114.346 352.427 113.985C351.481 113.859 348.161 116.434 347.669 117.517C346.278 120.581 347.001 124.146 349.125 126.755C349.941 127.76 350.857 128.682 351.862 129.507Z" fill="#263238"/>
<path d="M355.025 106.093C357.01 105.135 359.421 106.338 361.526 106.984C363.633 107.63 365.703 108.432 367.872 108.817C369.751 109.151 371.804 109.135 373.43 108.134C375.056 107.133 376.024 104.905 375.127 103.22C377.432 104.531 379.022 107.023 379.244 109.666C379.466 112.309 378.311 115.028 376.255 116.706C374.356 118.256 371.838 118.881 369.387 118.911C366.935 118.94 364.515 118.422 362.12 117.906C358.935 117.222 354.321 117.121 351.427 115.66C348.347 114.104 348.956 109.024 355.025 106.093Z" fill="#263238"/>
<path d="M348.986 128.203C349.201 129.92 350.037 131.499 351.336 132.64C353.034 134.091 354.99 132.384 355.157 130.189C355.293 128.229 354.219 125.405 352.208 124.811C350.197 124.219 348.729 126.064 348.986 128.203Z" fill="#FF8B7B"/>
<path d="M364.488 126.903C364.391 127.537 364.642 128.121 365.059 128.194C365.478 128.268 365.843 127.826 365.983 127.194C366.122 126.562 365.829 125.975 365.409 125.894C364.991 125.812 364.584 126.26 364.488 126.903Z" fill="#263238"/>
<path d="M371.651 128.241C371.546 128.884 371.805 129.467 372.223 129.541C372.641 129.614 373.048 129.165 373.146 128.54C373.244 127.915 372.985 127.323 372.575 127.248C372.165 127.173 371.747 127.607 371.651 128.241Z" fill="#263238"/>
<path d="M369.28 128.282C369.554 130.087 370.065 131.847 370.8 133.518C369.665 134.166 368.157 133.344 368.157 133.344L369.28 128.282Z" fill="#FF5652"/>
<path d="M367.022 136.978C365.527 136.75 364.193 135.918 363.328 134.678C363.271 134.589 363.297 134.471 363.386 134.415C363.477 134.364 363.593 134.393 363.65 134.48C364.611 135.817 366.139 136.631 367.784 136.681C367.89 136.677 367.979 136.76 367.982 136.866C367.986 136.971 367.904 137.06 367.798 137.064C367.789 137.064 367.78 137.064 367.772 137.063C367.521 137.051 367.269 137.023 367.022 136.978Z" fill="#263238"/>
<path d="M363.432 124.388C363.37 124.37 363.315 124.337 363.271 124.289C363.132 124.132 363.145 123.893 363.299 123.751C364.176 122.918 365.411 122.578 366.591 122.845C366.792 122.896 366.912 123.101 366.861 123.303C366.859 123.308 366.858 123.312 366.857 123.317C366.796 123.518 366.585 123.631 366.384 123.573C365.457 123.382 364.495 123.658 363.807 124.31C363.709 124.406 363.562 124.437 363.432 124.388Z" fill="#263238"/>
<path d="M372.33 124.116C372.304 124.057 372.293 123.991 372.298 123.927C372.35 123.723 372.555 123.598 372.758 123.647C373.943 123.892 374.927 124.716 375.376 125.84C375.444 126.036 375.34 126.251 375.142 126.318C374.946 126.387 374.731 126.282 374.664 126.085C374.294 125.211 373.517 124.575 372.586 124.386C372.461 124.347 372.364 124.245 372.33 124.116Z" fill="#263238"/>
<path d="M392.993 224.235L444.767 217.465C445.302 217.395 445.683 216.9 445.613 216.365C445.544 215.83 445.048 215.449 444.513 215.519L392.739 222.29C392.204 222.359 391.823 222.854 391.893 223.389C391.963 223.924 392.458 224.305 392.993 224.235Z" fill="#407BFF"/>
<path opacity="0.5" d="M392.993 224.235L444.767 217.465C445.302 217.395 445.683 216.9 445.613 216.365C445.544 215.83 445.048 215.449 444.513 215.519L392.739 222.29C392.204 222.359 391.823 222.854 391.893 223.389C391.963 223.924 392.458 224.305 392.993 224.235Z" fill="black"/>
<path d="M367.478 223.941L392.596 224.251C393.136 224.257 393.582 223.821 393.589 223.281C393.595 222.742 393.159 222.295 392.62 222.288L367.501 221.979C366.963 221.972 366.515 222.408 366.509 222.947C366.502 223.487 366.938 223.935 367.478 223.941Z" fill="#407BFF"/>
<path opacity="0.5" d="M367.478 223.941L392.596 224.251C393.136 224.257 393.582 223.821 393.589 223.281C393.595 222.742 393.159 222.295 392.62 222.288L367.501 221.979C366.963 221.972 366.515 222.408 366.509 222.947C366.502 223.487 366.938 223.935 367.478 223.941Z" fill="white"/>
<path d="M394.162 223.093L366.51 222.884C366.51 222.884 365.579 222.336 367.438 221.979C369.298 221.622 393.302 218.448 393.302 218.448L394.162 223.093Z" fill="#407BFF"/>
<path d="M394.162 223.093L367.165 222.798C367.165 222.798 366.234 222.248 368.093 221.892C369.953 221.535 393.301 218.448 393.301 218.448L394.162 223.093Z" fill="#407BFF"/>
<path opacity="0.2" d="M394.162 223.093L367.165 222.798C367.165 222.798 366.234 222.248 368.093 221.892C369.953 221.535 393.301 218.448 393.301 218.448L394.162 223.093Z" fill="white"/>
<path d="M394.149 222.105L442.427 215.792C444.13 215.569 445.464 213.977 445.39 212.254L444.332 187.529C444.258 185.806 442.804 184.579 441.1 184.802L392.823 191.114C391.119 191.338 389.786 192.93 389.86 194.653L390.918 219.378C390.992 221.101 392.446 222.328 394.149 222.105Z" fill="#407BFF"/>
<path opacity="0.4" d="M394.149 222.105L442.427 215.792C444.13 215.569 445.464 213.977 445.39 212.254L444.332 187.529C444.258 185.806 442.804 184.579 441.1 184.802L392.823 191.114C391.119 191.338 389.786 192.93 389.86 194.653L390.918 219.378C390.992 221.101 392.446 222.328 394.149 222.105Z" fill="black"/>
<path d="M395.556 221.815L443.834 215.502C445.537 215.279 446.87 213.687 446.797 211.964L445.738 187.239C445.665 185.516 444.21 184.287 442.507 184.51L394.229 190.823C392.526 191.046 391.192 192.639 391.266 194.361L392.325 219.087C392.398 220.809 393.852 222.037 395.556 221.815Z" fill="#407BFF"/>
<path opacity="0.2" d="M395.556 221.815L443.834 215.502C445.537 215.279 446.87 213.687 446.797 211.964L445.738 187.239C445.665 185.516 444.21 184.287 442.507 184.51L394.229 190.823C392.526 191.046 391.192 192.639 391.266 194.361L392.325 219.087C392.398 220.809 393.852 222.037 395.556 221.815Z" fill="white"/>
<path d="M375.152 164.76C369.873 163.662 364.354 168.755 362.822 176.119C361.288 183.493 364.318 190.364 369.597 191.463C374.877 192.561 380.394 187.468 381.929 180.094C383.46 172.729 380.432 165.859 375.152 164.76ZM370.601 190.205C367.238 189.505 365.619 183.584 366.991 176.985C368.364 170.386 372.212 165.601 375.574 166.301C378.948 167.003 380.568 172.925 379.195 179.524C377.822 186.123 373.974 190.908 370.601 190.205Z" fill="#263238"/>
<path opacity="0.5" d="M379.189 179.527C377.815 186.127 373.972 190.911 370.604 190.209C367.236 189.509 365.619 183.59 366.992 176.989C368.365 170.389 372.209 165.605 375.577 166.306C378.945 167.007 380.562 172.926 379.189 179.527Z" fill="white"/>
<path d="M367.833 190.837L362.218 208.679C362.218 208.679 362.518 210.887 365.101 209.786C367.683 208.684 369.597 191.463 369.597 191.463L367.833 190.837Z" fill="#263238"/>
<path d="M362.194 195.712L366.173 194.413L366.121 204.305C366.121 204.305 357.473 206.639 356.796 202.642L357.85 200.442C358.741 198.541 360.01 196.334 362.194 195.712Z" fill="#FF8B7B"/>
<path d="M372.272 196.962L371.261 202.548L366.117 204.297L366.175 194.413L372.272 196.962Z" fill="#FF8B7B"/>
<path d="M412.157 145.757L412.111 145.777L412.064 145.757L412.111 145.748L412.157 145.757Z" fill="#F0F0F0"/>
<path d="M115.228 33.2329C115.634 33.1556 116.069 33.5798 116.201 34.1948C116.332 34.8099 116.119 35.3875 115.712 35.4649C115.304 35.5423 114.871 35.118 114.74 34.503C114.576 33.8673 114.821 33.3103 115.228 33.2329Z" fill="#263238"/>
<path d="M116.498 41.3961C117.57 41.44 118.607 41.008 119.33 40.215C117.766 38.8573 116.395 37.292 115.254 35.5642L116.498 41.3961Z" fill="#B74D3C"/>
<path d="M112.01 31.4897C112.611 30.7547 113.529 30.355 114.477 30.4182C114.517 30.4311 114.558 30.4375 114.599 30.4375C114.807 30.4362 114.974 30.266 114.973 30.0585C114.972 29.8509 114.803 29.6832 114.594 29.6845C113.41 29.5736 112.247 30.0417 111.471 30.9417C111.412 31.0087 111.379 31.0951 111.378 31.1854C111.376 31.393 111.542 31.5632 111.75 31.5657C111.842 31.5748 111.935 31.5477 112.01 31.4897Z" fill="#263238"/>
<path d="M107.924 69.1194C97.298 69.2342 95.672 63.4513 95.672 63.4513C98.8272 60.3619 98.9871 54.6924 98.3127 49.6366C99.1225 50.779 100.136 51.7719 101.474 52.6577C104.016 54.3275 106.766 54.6666 109.253 54.049C109.297 54.049 109.342 54.0335 109.386 54.0025C109.358 54.1057 109.344 54.2101 109.331 54.3133C108.695 58.3646 109.258 62.6982 113.508 63.9657C113.506 63.967 119.626 68.9931 107.924 69.1194Z" fill="#B25B52"/>
<path d="M109.677 52.5107C109.564 52.9994 109.452 53.4868 109.383 54.0051C109.34 54.0348 109.296 54.0503 109.251 54.0516C106.763 54.6692 104.014 54.3301 101.472 52.6603C100.133 51.7745 99.1199 50.7816 98.3101 49.6392C98.149 48.3576 97.9143 47.1056 97.6796 45.9567L109.246 52.2812L109.677 52.5107Z" fill="#B25B52"/>
<path d="M92.4356 64.4299C92.4356 64.4299 94.1157 59.2465 96.6494 57.609C99.183 55.9715 110.307 57.6709 112.05 58.353C113.793 59.0351 115.551 63.0515 115.551 63.0515L92.4356 64.4299Z" fill="#407BFF"/>
<path d="M86.5908 80.8285C89.7988 81.4861 92.9321 79.4179 93.5896 76.2098C94.2472 73.0018 92.179 69.8686 88.971 69.211L88.8975 69.1517C84.1358 68.1189 79.2141 66.9159 74.4318 65.6922C69.6494 64.4673 68.0157 64.4273 63.4822 62.8259C62.3398 62.4455 61.2361 62.0161 60.1401 61.5777L59.5341 61.3469C59.4335 61.3186 59.3355 61.276 59.2452 61.2219C58.9526 61.0633 58.6753 60.8763 58.4187 60.6649C56.914 59.2826 46.7678 46.1437 44.8943 41.6733L44.8337 41.5315C44.3076 40.3324 43.0569 39.6219 41.7572 39.7844C40.1351 39.9868 38.9849 41.4657 39.1874 43.0865C39.7895 48.5058 49.7179 66.7869 51.7448 69.1207C52.3908 69.8196 53.1013 70.4552 53.8646 71.0226C54.6369 71.5873 55.466 72.0722 56.3364 72.4706C57.5703 73.0714 66.2131 75.6593 71.3179 77.1369C76.3775 78.5836 81.3855 79.8279 86.6488 80.822L86.5908 80.8285Z" fill="#B25B52"/>
<path d="M44.1928 40.1132L44.2547 41.1447C44.3282 42.1569 43.7622 43.1059 42.8377 43.5236C41.0209 44.2457 39.0507 44.4933 37.1127 44.2418L38.6987 35.3424L43.0685 38.1816C43.7312 38.6097 44.149 39.3266 44.1928 40.1132Z" fill="#B25B52"/>
<path d="M38.6871 35.3269L37.0999 44.2251L31.1751 40.7269L31.05 32.6901L38.6871 35.3269Z" fill="#B25B52"/>
<path d="M88.4346 62.7769C86.1537 63.1147 77.1331 65.0424 69.6378 62.9303L69.1491 78.2381C69.1491 78.2381 82.154 84.6799 88.0491 80.0252C94.0783 75.2531 97.6409 66.9752 88.4346 62.7769Z" fill="#263238"/>
<path d="M71.6828 82.2429L65.7928 79.6035L67.4845 61.3083L72.9645 62.2972L71.6828 82.2429Z" fill="#407BFF"/>
<path d="M119.023 62.2186C117.306 61.9337 115.378 61.6719 113.41 61.5159C107.487 61.2348 101.552 61.2993 95.6359 61.708C95.5843 61.7119 91.7793 62.0729 91.729 62.0768C85.5348 62.5345 79.3031 67.9061 80.55 73.9908C87.4134 107.487 85.4561 126.188 84.8269 131.642L126.647 131.19C130.971 96.7629 129.779 79.4076 128.087 70.9762C127.181 66.4581 123.572 62.9703 119.023 62.2186Z" fill="#00225A"/>
<path opacity="0.2" d="M128.023 119.046L126.691 131.19C129.365 109.631 129.906 94.7772 129.512 84.6077L113.631 73.9908C120.797 96.4933 123.14 103.593 128.023 119.046Z" fill="black"/>
<path d="M117.289 43.8382C117.213 47.7657 115.065 51.0795 112.058 52.8833H112.044C112.029 52.8988 112.014 52.8988 112 52.8988C111.194 53.4094 110.312 53.773 109.385 54.0038C109.341 54.0335 109.297 54.049 109.252 54.0502C106.765 54.6679 104.016 54.3288 101.473 52.659C100.135 51.7732 99.1212 50.7803 98.3114 49.6379C96.229 46.7819 95.3613 42.9692 93.872 37.613C93.413 36.0386 93.3202 34.3715 93.6129 32.7597C94.6573 26.9922 100.181 23.1692 105.933 24.2136C114.007 25.6448 117.447 36.6627 117.289 43.8382Z" fill="#B25B52"/>
<path opacity="0.2" d="M112 52.8988C111.194 53.4094 110.312 53.773 109.385 54.0038C109.341 54.0335 109.674 49.2782 109.674 49.2782C109.641 49.1995 111.439 52.9053 112 52.8988Z" fill="black"/>
<path d="M112.643 39.7457C112.279 43.0478 110.629 46.2791 107.889 48.159C107.541 48.3975 107.171 48.6167 106.76 48.7083C105.404 49.0113 104.139 47.8521 103.524 46.6079C102.728 44.9961 102.557 43.1523 102.492 41.3549C102.338 37.1179 102.863 32.4761 105.843 29.4602C106.544 28.7497 107.429 28.1321 108.427 28.0947C112.22 27.9503 112.911 37.3203 112.643 39.7457Z" fill="#263238"/>
<path d="M95.9866 20.7167C94.3788 20.1765 92.4614 20.7387 91.4003 22.0616C90.3391 23.3845 90.2076 25.3792 91.0844 26.8311C87.7177 27.8755 84.5471 30.3962 83.8792 33.8557C83.2113 37.3164 86.0647 41.3419 89.5654 40.9448C88.5236 41.7842 88.1909 43.3869 88.8111 44.5719C89.4313 45.7568 90.9387 46.3951 92.2216 46.016C94.959 50.556 103.47 51.5449 107.578 48.1951C108.548 47.4047 107.848 46.5821 108.058 45.3494C108.268 44.1167 107.703 42.701 106.549 42.2187C106.845 41.1937 107.14 40.1686 107.437 39.1422C106.562 38.1791 105.689 37.2172 104.815 36.254C107.161 34.4359 109.618 32.4709 110.635 29.6819C111.652 26.8942 110.488 23.0983 107.602 22.411C109.505 22.0642 110.648 19.586 109.679 17.9123C108.66 16.1536 106.146 16.1394 104.756 17.3978C103.951 16.2748 103.289 15.0499 101.914 14.6772C96.5527 13.2254 95.0841 18.9825 95.9866 20.7167Z" fill="#263238"/>
<path d="M110.71 34.1291C112.945 34.7841 114.109 38.0759 114.205 40.166C114.313 42.4753 112.771 43.9349 110.757 42.3889C109.24 41.1975 108.157 39.542 107.674 37.6749C107.127 35.412 108.476 33.4728 110.71 34.1291Z" fill="#B25B52"/>
<path d="M106.771 329.941C106.687 329.928 106.622 329.861 106.611 329.778C106.593 329.699 106.627 329.619 106.695 329.576C106.849 329.507 109.716 327.8 111.105 328.149C111.373 328.197 111.609 328.358 111.752 328.591C111.943 328.843 111.953 329.187 111.777 329.445C111.447 329.94 110.46 330.103 109.347 330.124C108.485 330.137 107.623 330.077 106.771 329.941ZM110.624 328.47C109.479 328.631 108.379 329.014 107.385 329.597C108.937 329.778 111.039 329.726 111.413 329.187C111.499 329.107 111.541 328.996 111.4 328.754C111.316 328.608 111.169 328.509 111.003 328.484C110.877 328.469 110.75 328.471 110.625 328.492L110.624 328.47Z" fill="#407BFF"/>
<path d="M106.691 329.899C106.636 329.856 106.601 329.792 106.597 329.723C106.606 329.623 106.722 327.392 107.809 326.496C108.11 326.23 108.509 326.103 108.91 326.143C109.456 326.188 109.653 326.46 109.659 326.682C109.843 327.642 107.902 329.444 106.903 329.917L106.825 329.918C106.78 329.928 106.732 329.922 106.691 329.899ZM108.788 326.521C108.526 326.528 108.278 326.637 108.095 326.822C107.493 327.555 107.13 328.455 107.055 329.404C108.072 328.763 109.377 327.329 109.271 326.767C109.258 326.723 109.231 326.546 108.875 326.553L108.765 326.555L108.788 326.521Z" fill="#407BFF"/>
<path d="M98.0187 310.768L106.29 310.608L105.986 329.735L97.6667 329.896L98.0187 310.768Z" fill="#B25B52"/>
<path d="M107.934 329.387C113.666 332.742 115.406 332.864 121.977 334.162C123.413 334.445 122.578 337.928 119.155 337.994C113.49 338.103 112.891 337.847 108.063 337.941C103.927 338.021 99.1818 338.302 95.8925 338.422C95.7919 338.426 95.6901 338.417 95.5908 338.395C94.9396 338.253 94.5245 337.612 94.6637 336.962L96.1207 329.539C96.1904 329.208 96.4792 328.968 96.8183 328.96L105.914 328.785C106.631 328.794 107.329 329.003 107.934 329.387Z" fill="#263238"/>
<path opacity="0.2" d="M98.0071 310.778L97.8344 320.607L106.141 320.447L106.29 310.618L98.0071 310.778Z" fill="black"/>
<path d="M37.35 331.183C37.3371 331.263 37.2752 331.326 37.1953 331.342C37.1128 331.361 37.0289 331.321 36.9941 331.246C36.9155 331.103 35.2625 328.219 35.6428 326.839C35.706 326.58 35.8685 326.354 36.0941 326.211C36.352 326.022 36.7001 326.015 36.9606 326.194C37.4403 326.539 37.5808 327.522 37.5885 328.629C37.5834 329.484 37.5034 330.338 37.35 331.183ZM35.9691 327.329C36.1019 328.466 36.4526 329.566 37.0019 330.568C37.2249 329.022 37.2107 326.929 36.6756 326.551C36.6086 326.464 36.4861 326.423 36.2424 326.56C36.0954 326.643 35.9936 326.787 35.9665 326.954C35.9484 327.078 35.9497 327.205 35.9691 327.329Z" fill="#407BFF"/>
<path d="M37.3397 331.26C37.301 331.32 37.2314 331.352 37.1617 331.342C37.0728 331.333 34.8241 331.187 33.9615 330.095C33.6958 329.794 33.5721 329.393 33.6211 328.992C33.6739 328.46 33.9499 328.265 34.1729 328.261C35.1168 328.099 36.9077 330.06 37.359 331.05C37.3629 331.076 37.3629 331.102 37.3603 331.128C37.3732 331.173 37.3655 331.22 37.3397 331.26ZM33.9795 329.152C33.9911 329.406 34.0917 329.647 34.2619 329.834C34.9852 330.44 35.8801 330.81 36.8265 330.894C36.2076 329.874 34.7996 328.549 34.2335 328.648C34.1897 328.649 34.0117 328.675 34.013 329.03C34.013 329.074 34.0143 329.151 34.0143 329.151L33.9795 329.152Z" fill="#407BFF"/>
<path d="M41.6437 311.823L49.7218 312.238L45.3636 331.605L37.2275 331.186L41.6437 311.823Z" fill="#B25B52"/>
<path d="M35.2638 330.158C33.0872 332.787 31.9371 334.142 25.5752 336.267C24.1724 336.729 25.4424 340.07 28.8529 339.702C34.4927 339.091 31.3814 339.163 36.1844 338.646C40.295 338.199 45.0413 337.884 48.3163 337.587C48.4272 337.581 48.5368 337.56 48.6413 337.524C49.2782 337.309 49.6251 336.619 49.4149 335.985L47.0501 328.809C46.9483 328.486 46.6285 328.283 46.2894 328.326L37.2481 329.298C36.5016 329.312 35.7872 329.62 35.2638 330.158Z" fill="#263238"/>
<path opacity="0.2" d="M41.6321 311.834L39.3718 321.781L47.4743 322.198L49.7218 312.238L41.6321 311.834Z" fill="black"/>
<path d="M84.8282 131.642C84.8282 131.642 80.4443 138.659 77.4902 147.201C73.3126 159.284 75.0133 165.521 73.7007 173.666C71.3901 188.011 67.7153 199.051 65.2049 209.947C57.3666 244.044 37.6569 316.084 37.6569 316.084L52.3083 318.993C52.3083 318.993 80.7731 235.173 87.9421 210.755C94.4059 188.778 110.958 131.043 110.958 131.043L84.8282 131.642Z" fill="#407BFF"/>
<path d="M84.8282 131.642C84.8282 131.642 80.4443 138.659 77.4902 147.201C73.3126 159.284 75.0133 165.521 73.7007 173.666C71.3901 188.011 67.7153 199.051 65.2049 209.947C57.3666 244.044 37.6569 316.084 37.6569 316.084L52.3083 318.993C52.3083 318.993 80.7731 235.173 87.9421 210.755C94.4059 188.778 110.958 131.043 110.958 131.043L84.8282 131.642Z" fill="#407BFF"/>
<path d="M35.8917 313.427L35.8466 318.618L53.4533 320.151C53.4533 320.151 54.8923 314.454 54.8265 314.456L35.8917 313.427Z" fill="#407BFF"/>
<path opacity="0.3" d="M103.309 157.651C98.0909 175.773 91.4815 198.71 87.9537 210.746C87.7848 211.326 87.594 211.928 87.416 212.571C88.4875 192.569 91.7084 159.012 101.724 157.572C102.252 157.481 102.795 157.508 103.309 157.651Z" fill="black"/>
<path d="M98.2779 131.289C98.2779 131.289 95.155 186.407 95.213 212.431C95.271 236.686 95.6127 318.742 95.6127 318.742L109.668 318.471C109.668 318.471 117.793 234.763 119.771 210.091C121.655 186.729 126.649 131.191 126.649 131.191L98.2779 131.289Z" fill="#407BFF"/>
<path d="M98.2779 131.289C98.2779 131.289 95.155 186.407 95.213 212.431C95.271 236.686 95.6127 318.742 95.6127 318.742L109.668 318.471C109.668 318.471 117.793 234.763 119.771 210.091C121.655 186.729 126.649 131.191 126.649 131.191L98.2779 131.289Z" fill="#407BFF"/>
<path d="M93.4233 313.854L94.0126 319.005L111.106 318.675C111.106 318.675 111.789 312.872 111.724 312.874L93.4233 313.854Z" fill="#407BFF"/>
<path d="M149.716 48.952L153.984 45.9941C154.953 50.6346 159.371 54.2669 162.719 56.4176C164.32 57.4452 164.915 59.8023 163.784 60.5862L161.008 62.51C157.64 64.8438 149.716 48.952 149.716 48.952Z" fill="#407BFF"/>
<path d="M148.025 50.124L157.802 43.3483C160.975 41.1485 161.772 36.753 159.573 33.5798C157.374 30.4066 152.978 29.6097 149.805 31.8082L140.029 38.5839C136.855 40.7837 136.057 45.1792 138.257 48.3524C140.455 51.5256 144.851 52.3238 148.025 50.124Z" fill="#407BFF"/>
<path opacity="0.3" d="M148.025 50.124L157.802 43.3483C160.975 41.1485 161.772 36.753 159.573 33.5798C157.374 30.4066 152.978 29.6097 149.805 31.8082L140.029 38.5839C136.855 40.7837 136.057 45.1792 138.257 48.3524C140.455 51.5256 144.851 52.3238 148.025 50.124Z" fill="black"/>
<path d="M178.09 39.5665L159.758 47.299C158.31 48.3021 145.343 29.593 146.791 28.5898L160.468 14.1383L178.09 39.5665Z" fill="#407BFF"/>
<path d="M167.947 27.7762C172.813 34.7983 177.354 40.077 178.09 39.5664C178.827 39.0558 175.478 32.9506 170.612 25.9285C165.746 18.9064 161.204 13.6289 160.468 14.1383C159.733 14.6489 163.08 20.7541 167.947 27.7762Z" fill="#407BFF"/>
<path opacity="0.3" d="M167.947 27.7762C172.813 34.7983 177.354 40.077 178.09 39.5664C178.827 39.0558 175.478 32.9506 170.612 25.9285C165.746 18.9064 161.204 13.6289 160.468 14.1383C159.733 14.6489 163.08 20.7541 167.947 27.7762Z" fill="black"/>
<path d="M172.372 25.4991C171.182 23.7829 168.683 23.1795 167.865 23.7456C167.048 24.3116 167.351 26.1632 168.54 27.8794C169.73 29.5968 171.356 30.5291 172.173 29.963C172.991 29.397 173.561 27.2166 172.372 25.4991Z" fill="#407BFF"/>
<path d="M148.343 57.4659L149.662 53.8246C150.473 51.5849 151.961 49.6534 153.918 48.297L156.649 46.4041C157.183 46.0341 157.915 46.1617 158.288 46.6942C159.417 48.3099 161.556 51.7603 161.89 55.154C161.966 55.9276 161.627 56.6832 160.999 57.1396L155.111 61.0878C154.182 61.806 153.084 62.1683 152.251 61.3405L148.343 57.4659Z" fill="#B25B52"/>
<path d="M154.928 58.5167L150.707 76.2124C150.575 76.7888 150.426 77.3484 150.279 77.8951C146.722 91.105 139.86 98.1154 136.716 96.4908C133.454 94.8081 126.65 87.1336 126.65 87.1336L134.473 80.9497L136.716 82.8386L148.965 56.3763L150.707 52.6874C150.707 52.6874 156.211 52.6577 154.928 58.5167Z" fill="#B25B52"/>
<path d="M150.706 76.2124L150.308 77.9093L150.278 77.8938C150.425 77.3497 150.573 76.7888 150.706 76.2124Z" fill="#B25B52"/>
<path d="M127.505 65.8856C134.68 71.7498 139.071 84.2325 139.071 84.2325L127.478 91.5872C127.478 91.5872 112.265 80.7975 113.448 70.5468C114.336 62.7021 118.644 58.6096 127.505 65.8856Z" fill="#263238"/>
<path d="M120.797 89.0948L124.901 93.4491L140.863 83.1919L138.395 78.1349L120.797 89.0948Z" fill="#407BFF"/>
<path d="M180.746 19.9354L189.066 0L195.673 3.65933L180.746 19.9354Z" fill="#263238"/>
<path d="M181.599 27.1121L203.164 25.8821L201.907 18.4345L181.599 27.1121Z" fill="#263238"/>
<path d="M186.985 20.134L203.476 0.965775L210.008 8.12837L186.985 20.134Z" fill="#263238"/>
<path d="M22.7979 15.0911V32.5509L39.1655 41.2169V22.2705L22.7979 15.0911Z" fill="#407BFF"/>
<path opacity="0.1" d="M22.7979 15.0911V32.5509L39.1655 41.2169V22.2705L22.7979 15.0911Z" fill="black"/>
<path d="M55.5344 15.0911V32.5509L39.1655 41.2169V22.2705L55.5344 15.0911Z" fill="#407BFF"/>
<path opacity="0.2" d="M55.5344 15.0911V32.5509L39.1655 41.2169V22.2705L55.5344 15.0911Z" fill="black"/>
<path d="M22.7979 15.0911L39.1655 22.2705L55.5344 15.0911L39.1655 6.86348L22.7979 15.0911Z" fill="#407BFF"/>
<path d="M46.4983 19.0547V29.8998L47.3506 28.4776L47.8599 29.2345L48.3988 28.0083L48.9404 28.7703V17.9819L46.4983 19.0547Z" fill="#263238"/>
<path d="M46.4983 19.0547L29.8083 11.5672L32.5057 10.2107L48.9404 17.9819L46.4983 19.0547Z" fill="#263238"/>
<path d="M265.122 259.04C265.005 260.378 263.825 261.463 262.487 261.463H245.342C244.003 261.463 243.013 260.378 243.13 259.04L243.357 256.442H265.349L265.122 259.04Z" fill="#407BFF"/>
<path d="M230.974 262.115L224.412 337.121C224.064 341.101 227.019 344.34 231 344.34H262.224C266.204 344.34 269.725 341.101 270.073 337.121L276.635 262.115C276.983 258.135 274.028 254.897 270.048 254.897H238.824C234.843 254.897 231.322 258.135 230.974 262.115Z" fill="#407BFF"/>
<g opacity="0.4">
<path d="M265.122 259.04C265.005 260.378 263.825 261.463 262.487 261.463H245.342C244.003 261.463 243.013 260.378 243.13 259.04L243.357 256.442H265.349L265.122 259.04Z" fill="black"/>
<path d="M230.974 262.115L224.412 337.121C224.064 341.101 227.019 344.34 231 344.34H262.224C266.204 344.34 269.725 341.101 270.073 337.121L276.635 262.115C276.983 258.135 274.028 254.897 270.048 254.897H238.824C234.843 254.897 231.322 258.135 230.974 262.115Z" fill="#407BFF"/>
</g>
<path d="M236.762 256.438H267.986C271.141 256.438 273.475 258.996 273.199 262.151L266.637 337.157C266.361 340.312 263.58 342.87 260.425 342.87H229.201C226.046 342.87 223.712 340.312 223.988 337.157L230.55 262.151C230.824 258.996 233.607 256.438 236.762 256.438Z" fill="#407BFF"/>
<path opacity="0.3" d="M236.762 256.438H267.986C271.141 256.438 273.475 258.996 273.199 262.151L266.637 337.157C266.361 340.312 263.58 342.87 260.425 342.87H229.201C226.046 342.87 223.712 340.312 223.988 337.157L230.55 262.151C230.824 258.996 233.607 256.438 236.762 256.438Z" fill="white"/>
<path d="M229.044 262.15L222.482 337.156C222.134 341.136 225.089 344.375 229.069 344.375H260.293C264.274 344.375 267.795 341.136 268.143 337.156L274.705 262.15C275.053 258.17 272.098 254.932 268.117 254.932H236.893C232.913 254.932 229.392 258.17 229.044 262.15ZM230.548 262.15C230.824 258.995 233.605 256.437 236.761 256.437H267.985C271.14 256.437 273.474 258.995 273.198 262.15L266.636 337.156C266.36 340.311 263.579 342.869 260.424 342.869H229.2C226.044 342.869 223.711 340.311 223.987 337.156L230.548 262.15Z" fill="white"/>
<path d="M263.419 256.478C263.229 258.644 261.32 260.402 259.152 260.402H245.006C242.84 260.402 241.236 258.645 241.426 256.478H263.419Z" fill="white"/>
<path d="M248.066 302.748L242.01 301.56C243.165 307.075 240.086 313.137 237.465 317.072C236.213 318.953 236.686 321.804 238.292 322.119L242.232 322.891C247.009 323.828 248.066 302.748 248.066 302.748Z" fill="#407BFF"/>
<path d="M250.466 303.217L236.592 300.498C232.088 299.615 229.125 295.208 230.008 290.704C230.891 286.2 235.298 283.237 239.802 284.12L253.676 286.839C258.18 287.723 261.143 292.13 260.26 296.634C259.377 301.137 254.969 304.101 250.466 303.217Z" fill="#407BFF"/>
<path opacity="0.3" d="M250.466 303.217L236.592 300.498C232.088 299.615 229.125 295.208 230.008 290.704C230.891 286.2 235.298 283.237 239.802 284.12L253.676 286.839C258.18 287.723 261.143 292.13 260.26 296.634C259.377 301.137 254.969 304.101 250.466 303.217Z" fill="black"/>
<path d="M212.695 306.046L236.343 305.732C238.398 306.134 243.602 279.584 241.547 279.18L219.768 269.961L212.695 306.046Z" fill="#407BFF"/>
<path d="M218.124 288.375C216.17 298.339 213.74 306.251 212.695 306.047C211.651 305.842 212.387 297.598 214.341 287.634C216.294 277.669 218.725 269.756 219.769 269.961C220.813 270.166 220.077 278.411 218.124 288.375Z" fill="#407BFF"/>
<path opacity="0.3" d="M218.124 288.375C216.17 298.339 213.74 306.251 212.695 306.047C211.651 305.842 212.387 297.598 214.341 287.634C216.294 277.669 218.725 269.756 219.769 269.961C220.813 270.166 220.077 278.411 218.124 288.375Z" fill="black"/>
<path d="M212.221 288.004C212.698 285.567 215.134 283.72 216.293 283.947C217.452 284.174 218.005 286.334 217.528 288.771C217.051 291.208 215.723 292.999 214.564 292.771C213.403 292.544 211.742 290.441 212.221 288.004Z" fill="#407BFF"/>
<path d="M254.236 309.239L251.065 305.902C249.114 303.849 246.574 302.455 243.797 301.91L239.921 301.15C239.163 301.002 238.426 301.491 238.274 302.248C237.813 304.544 237.128 309.321 238.383 313.177C238.669 314.055 239.397 314.716 240.3 314.915L248.593 316.408C249.946 316.748 251.315 316.618 251.828 315.321L254.236 309.239Z" fill="#FFC0BA"/>
<path d="M252.416 317.589L266.694 336.506L268.117 320.24L254.237 309.237C254.237 309.237 248.223 311.82 252.416 317.589Z" fill="#FFC0BA"/>
<path d="M205.846 284.028L189.423 269.996L185.18 276.243L205.846 284.028Z" fill="white"/>
<path d="M208.326 290.817L188.526 299.455L186.287 292.242L208.326 290.817Z" fill="white"/>
<path d="M200.369 287.022L177 277.362L174.405 286.703L200.369 287.022Z" fill="white"/>
<path d="M244.481 78.3703L240.352 70.5353C240.352 70.5353 243.524 64.8258 247.33 64.6143C251.136 64.4028 255.154 67.7863 255.154 67.7863L260.018 65.754L256.359 79.5053C256.359 79.5053 249.67 84.9365 244.481 78.3703Z" fill="#407BFF"/>
<path d="M276.551 107.401C276.551 124.852 265.567 131.933 252.019 131.933C238.472 131.933 227.488 120.949 227.488 107.401C227.488 93.8521 238.472 76.5666 252.019 76.5666C252.019 76.5666 276.551 91.425 276.551 107.401Z" fill="#407BFF"/>
<path opacity="0.2" d="M276.551 107.401C276.551 124.852 265.567 131.933 252.019 131.933C238.472 131.933 227.488 120.949 227.488 107.401C227.488 93.8521 238.472 76.5666 252.019 76.5666C252.019 76.5666 276.551 91.425 276.551 107.401Z" fill="black"/>
<path d="M260.279 110.237C260.279 113.762 257.443 116.121 253.016 116.491L252.433 119.408H249.782L250.365 116.491C247.846 116.253 245.62 115.459 244.268 114.451L246.044 111.164C247.45 112.198 249.225 112.86 251.054 113.047L251.956 108.567C249.491 107.826 246.787 106.845 246.787 103.637C246.787 100.112 249.676 97.7269 254.182 97.4081L254.765 94.4927H257.416L256.833 97.4361C258.716 97.6196 260.438 98.1514 261.711 98.9459L260.095 102.233C258.956 101.465 257.577 101.012 256.146 100.855L255.219 105.52C257.656 106.235 260.279 107.19 260.279 110.237ZM252.699 104.777L253.467 100.959C251.957 101.252 251.108 102.071 251.082 103.08C251.082 103.903 251.744 104.379 252.699 104.777ZM255.986 110.926C255.986 110.158 255.376 109.681 254.448 109.336L253.733 112.966C255.163 112.674 255.986 111.934 255.986 110.926Z" fill="white"/>
</svg>
